<?xml version="1.0" standalone="no"?>
<!DOCTYPE svg PUBLIC "-//W3C//DTD SVG 20010904//EN"
 "http://www.w3.org/TR/2001/REC-SVG-20010904/DTD/svg10.dtd">
<svg version="1.0" xmlns="http://www.w3.org/2000/svg"
 width="1455.000000pt" height="1455.000000pt" viewBox="0 0 1455.000000 1455.000000"
 preserveAspectRatio="xMidYMid meet">
<metadata>
Created by potrace 1.14, written by Peter Selinger 2001-2017
</metadata>
<g transform="translate(0.000000,1455.000000) scale(0.100000,-0.100000)"
fill="#000000" stroke="none">
<path d="M8014 14412 c-603 -815 -634 -854 -878 -1097 -250 -249 -478 -432
-756 -605 -235 -145 -401 -230 -734 -372 -260 -111 -584 -271 -718 -355 -21
-12 -40 -23 -42 -23 -10 0 -260 -159 -391 -248 -119 -82 -342 -246 -410 -303
-94 -79 -177 -150 -213 -183 l-43 -40 688 -688 c378 -378 692 -688 696 -688 5
0 37 24 71 53 110 91 302 234 349 258 12 7 24 15 27 18 4 6 38 28 195 124 166
103 490 256 720 340 109 40 215 77 218 76 1 -1 34 8 72 20 67 20 333 85 385
94 89 17 150 27 185 32 23 3 50 7 60 9 11 2 47 7 80 10 62 8 89 10 235 22 111
10 465 10 605 1 104 -7 137 -10 230 -22 22 -2 63 -7 90 -11 330 -40 803 -171
1125 -311 316 -137 459 -168 790 -167 121 1 304 11 345 19 11 2 41 7 68 10
111 12 151 19 312 50 193 38 353 77 600 145 247 67 855 281 855 300 0 7 -161
163 -226 220 -263 226 -643 504 -918 670 -32 19 -72 44 -89 56 -119 77 -754
414 -781 414 -2 0 -37 15 -78 34 -40 19 -136 60 -213 92 -255 106 -562 268
-760 400 -70 47 -192 132 -214 150 -237 188 -316 258 -471 414 -142 143 -162
165 -284 315 -122 149 -114 140 -156 200 -19 27 -41 56 -47 65 -7 8 -68 90
-135 181 -183 246 -322 432 -333 445 -7 9 -38 -26 -111 -124z"/>
<path d="M3364 10727 c-52 -54 -246 -286 -327 -392 -42 -55 -80 -104 -84 -110
-10 -12 -85 -119 -145 -205 -51 -73 -218 -337 -218 -344 0 -3 -40 -72 -90
-156 -34 -57 -198 -388 -245 -495 -174 -393 -334 -881 -409 -1248 -45 -216
-77 -405 -92 -532 -3 -33 -8 -68 -9 -77 -2 -9 -7 -48 -10 -85 -4 -37 -8 -84
-10 -103 -27 -237 -27 -871 0 -1145 16 -161 34 -300 55 -425 5 -30 12 -71 15
-90 3 -19 10 -57 15 -85 6 -27 15 -72 20 -100 61 -313 186 -740 305 -1040 154
-390 306 -692 548 -1090 132 -218 417 -600 604 -814 l30 -33 691 692 c381 380
692 693 692 695 0 2 -6 10 -13 17 -7 7 -30 35 -52 63 -22 27 -44 54 -48 60
-207 260 -427 635 -578 987 -95 222 -226 635 -254 800 -3 18 -12 65 -20 103
-20 99 -24 124 -30 175 -3 25 -8 54 -10 65 -2 11 -7 45 -10 75 -3 30 -8 73
-10 95 -23 213 -23 735 0 857 3 13 8 57 11 98 3 41 7 77 9 80 2 3 6 30 10 60
7 61 60 332 76 395 6 22 12 47 14 55 8 41 59 209 98 325 94 276 207 527 352
780 128 225 366 558 511 715 l23 25 -692 692 -692 691 -31 -31z"/>
<path d="M4440 2416 c-377 -376 -686 -688 -687 -693 -2 -5 24 -34 58 -63 34
-30 67 -59 73 -65 121 -116 556 -448 700 -534 23 -14 43 -27 46 -31 6 -7 265
-163 380 -229 108 -61 435 -221 575 -281 311 -134 687 -260 984 -330 47 -12
113 -27 146 -35 33 -8 71 -17 85 -19 14 -2 45 -9 70 -14 25 -6 90 -18 145 -27
55 -9 111 -18 125 -21 14 -2 45 -6 70 -10 25 -3 56 -7 70 -10 14 -2 72 -8 130
-14 58 -6 119 -12 135 -15 191 -26 941 -26 1115 0 14 2 59 7 100 10 41 3 86 8
100 10 14 2 75 11 135 20 61 9 148 23 195 31 47 9 99 18 115 20 17 3 80 16
140 30 61 14 121 27 135 30 51 10 259 67 400 109 267 81 609 208 835 310 166
75 516 253 640 325 77 45 153 89 169 98 76 44 439 291 548 373 99 74 306 241
365 294 58 52 181 165 237 217 l68 64 -63 41 c-367 233 -811 425 -1211 522
-67 16 -139 32 -158 35 -221 36 -233 37 -430 41 -323 6 -586 -48 -865 -180
-103 -48 -273 -122 -335 -144 -19 -7 -44 -17 -55 -21 -26 -12 -278 -94 -330
-108 -22 -7 -71 -20 -110 -31 -57 -16 -168 -42 -290 -67 -40 -8 -131 -24 -170
-29 -22 -3 -50 -8 -61 -10 -12 -3 -50 -7 -85 -11 -35 -3 -75 -7 -89 -10 -117
-20 -579 -32 -750 -19 -169 13 -207 16 -230 20 -14 2 -52 6 -85 10 -33 3 -69
8 -80 10 -11 2 -36 7 -55 10 -37 5 -63 10 -150 26 -91 17 -101 19 -225 49
-651 159 -1289 487 -1798 924 -49 42 -90 76 -91 76 -1 0 -310 -308 -686 -684z"/>
</g>
</svg>
