<svg width="440" height="287" viewBox="0 0 440 287" fill="none" xmlns="http://www.w3.org/2000/svg">
<rect x="79.7959" y="13" width="204.844" height="100.071" fill="#F8F8F8"/>
<rect x="209.374" y="96.3921" width="204.844" height="100.071" fill="#ECECEC"/>
<rect x="20.7793" y="146.427" width="204.844" height="100.071" fill="#DDDDDD"/>
<rect x="1.5293" y="236.865" width="107.5" height="44.5" rx="22.25" fill="white" stroke="url(#paint0_linear_218_2)" stroke-width="1.5"/>
<rect x="331.529" y="241.75" width="107.5" height="44.5" rx="22.25" fill="white" stroke="url(#paint1_linear_218_2)" stroke-width="1.5"/>
<rect x="226.529" y="0.75" width="107.5" height="44.5" rx="22.25" fill="white" stroke="url(#paint2_linear_218_2)" stroke-width="1.5"/>
<rect x="234.779" y="10" width="74" height="32" fill="white"/>
<path d="M43.2273 252.963L39.0193 264.115H37.3393L33.1313 252.963H34.6833L38.1873 262.579L41.6913 252.963H43.2273ZM52.9038 259.395C52.9038 259.673 52.8878 259.966 52.8558 260.275H45.8478C45.9011 261.139 46.1945 261.817 46.7278 262.307C47.2718 262.787 47.9278 263.027 48.6958 263.027C49.3251 263.027 49.8478 262.883 50.2638 262.595C50.6905 262.297 50.9891 261.902 51.1598 261.411H52.7278C52.4931 262.254 52.0238 262.942 51.3198 263.475C50.6158 263.998 49.7411 264.259 48.6958 264.259C47.8638 264.259 47.1171 264.073 46.4558 263.699C45.8051 263.326 45.2931 262.798 44.9198 262.115C44.5465 261.422 44.3598 260.622 44.3598 259.715C44.3598 258.809 44.5411 258.014 44.9038 257.331C45.2665 256.649 45.7731 256.126 46.4238 255.763C47.0851 255.39 47.8425 255.203 48.6958 255.203C49.5278 255.203 50.2638 255.385 50.9038 255.747C51.5438 256.11 52.0345 256.611 52.3758 257.251C52.7278 257.881 52.9038 258.595 52.9038 259.395ZM51.3998 259.091C51.3998 258.537 51.2771 258.062 51.0318 257.667C50.7865 257.262 50.4505 256.958 50.0238 256.755C49.6078 256.542 49.1438 256.435 48.6318 256.435C47.8958 256.435 47.2665 256.67 46.7438 257.139C46.2318 257.609 45.9385 258.259 45.8638 259.091H51.3998ZM56.3617 256.771C56.6177 256.27 56.9803 255.881 57.4497 255.603C57.9297 255.326 58.511 255.187 59.1937 255.187V256.691H58.8097C57.1777 256.691 56.3617 257.577 56.3617 259.347V264.115H54.9057V255.347H56.3617V256.771ZM61.7064 253.923C61.4291 253.923 61.1944 253.827 61.0024 253.635C60.8104 253.443 60.7144 253.209 60.7144 252.931C60.7144 252.654 60.8104 252.419 61.0024 252.227C61.1944 252.035 61.4291 251.939 61.7064 251.939C61.9731 251.939 62.1971 252.035 62.3784 252.227C62.5704 252.419 62.6664 252.654 62.6664 252.931C62.6664 253.209 62.5704 253.443 62.3784 253.635C62.1971 253.827 61.9731 253.923 61.7064 253.923ZM62.4104 255.347V264.115H60.9544V255.347H62.4104ZM68.5399 256.547H66.6999V264.115H65.2439V256.547H64.1079V255.347H65.2439V254.723C65.2439 253.742 65.4946 253.027 65.9959 252.579C66.5079 252.121 67.3239 251.891 68.4439 251.891V253.107C67.8039 253.107 67.3506 253.235 67.0839 253.491C66.8279 253.737 66.6999 254.147 66.6999 254.723V255.347H68.5399V256.547ZM77.8695 255.347L72.5895 268.243H71.0855L72.8135 264.019L69.2775 255.347H70.8935L73.6455 262.451L76.3655 255.347H77.8695Z" fill="#212121"/>
<path d="M261.547 29.112C260.811 29.112 260.15 28.984 259.563 28.728C258.987 28.4613 258.534 28.0987 258.203 27.64C257.873 27.1707 257.702 26.632 257.691 26.024H259.243C259.297 26.5467 259.51 26.9893 259.883 27.352C260.267 27.704 260.822 27.88 261.547 27.88C262.241 27.88 262.785 27.7093 263.179 27.368C263.585 27.016 263.787 26.568 263.787 26.024C263.787 25.5973 263.67 25.2507 263.435 24.984C263.201 24.7173 262.907 24.5147 262.555 24.376C262.203 24.2373 261.729 24.088 261.131 23.928C260.395 23.736 259.803 23.544 259.355 23.352C258.918 23.16 258.539 22.8613 258.219 22.456C257.91 22.04 257.755 21.4853 257.755 20.792C257.755 20.184 257.91 19.6453 258.219 19.176C258.529 18.7067 258.961 18.344 259.515 18.088C260.081 17.832 260.726 17.704 261.451 17.704C262.497 17.704 263.35 17.9653 264.011 18.488C264.683 19.0107 265.062 19.704 265.147 20.568H263.547C263.494 20.1413 263.27 19.768 262.875 19.448C262.481 19.1173 261.958 18.952 261.307 18.952C260.699 18.952 260.203 19.112 259.819 19.432C259.435 19.7413 259.243 20.1787 259.243 20.744C259.243 21.1493 259.355 21.48 259.579 21.736C259.814 21.992 260.097 22.1893 260.427 22.328C260.769 22.456 261.243 22.6053 261.851 22.776C262.587 22.9787 263.179 23.1813 263.627 23.384C264.075 23.576 264.459 23.88 264.779 24.296C265.099 24.7013 265.259 25.256 265.259 25.96C265.259 26.504 265.115 27.016 264.827 27.496C264.539 27.976 264.113 28.3653 263.547 28.664C262.982 28.9627 262.315 29.112 261.547 29.112ZM271.834 20.072C272.495 20.072 273.093 20.216 273.626 20.504C274.159 20.7813 274.575 21.2027 274.874 21.768C275.183 22.3333 275.338 23.0213 275.338 23.832V29H273.898V24.04C273.898 23.1653 273.679 22.4987 273.242 22.04C272.805 21.5707 272.207 21.336 271.45 21.336C270.682 21.336 270.069 21.576 269.61 22.056C269.162 22.536 268.938 23.2347 268.938 24.152V29H267.482V17.16H268.938V21.48C269.226 21.032 269.621 20.6853 270.122 20.44C270.634 20.1947 271.205 20.072 271.834 20.072ZM277.252 24.584C277.252 23.688 277.434 22.904 277.796 22.232C278.159 21.5493 278.655 21.0213 279.284 20.648C279.924 20.2747 280.634 20.088 281.412 20.088C282.18 20.088 282.847 20.2533 283.412 20.584C283.978 20.9147 284.399 21.3307 284.676 21.832V20.232H286.148V29H284.676V27.368C284.388 27.88 283.956 28.3067 283.38 28.648C282.815 28.9787 282.154 29.144 281.396 29.144C280.618 29.144 279.914 28.952 279.284 28.568C278.655 28.184 278.159 27.6453 277.796 26.952C277.434 26.2587 277.252 25.4693 277.252 24.584ZM284.676 24.6C284.676 23.9387 284.543 23.3627 284.276 22.872C284.01 22.3813 283.647 22.008 283.188 21.752C282.74 21.4853 282.244 21.352 281.7 21.352C281.156 21.352 280.66 21.48 280.212 21.736C279.764 21.992 279.407 22.3653 279.14 22.856C278.874 23.3467 278.74 23.9227 278.74 24.584C278.74 25.256 278.874 25.8427 279.14 26.344C279.407 26.8347 279.764 27.2133 280.212 27.48C280.66 27.736 281.156 27.864 281.7 27.864C282.244 27.864 282.74 27.736 283.188 27.48C283.647 27.2133 284.01 26.8347 284.276 26.344C284.543 25.8427 284.676 25.2613 284.676 24.6ZM290.145 21.656C290.401 21.1547 290.763 20.7653 291.233 20.488C291.713 20.2107 292.294 20.072 292.977 20.072V21.576H292.593C290.961 21.576 290.145 22.4613 290.145 24.232V29H288.689V20.232H290.145V21.656ZM302.738 24.28C302.738 24.5573 302.722 24.8507 302.69 25.16H295.682C295.735 26.024 296.028 26.7013 296.562 27.192C297.106 27.672 297.762 27.912 298.53 27.912C299.159 27.912 299.682 27.768 300.098 27.48C300.524 27.1813 300.823 26.7867 300.994 26.296H302.562C302.327 27.1387 301.858 27.8267 301.154 28.36C300.45 28.8827 299.575 29.144 298.53 29.144C297.698 29.144 296.951 28.9573 296.29 28.584C295.639 28.2107 295.127 27.6827 294.754 27C294.38 26.3067 294.194 25.5067 294.194 24.6C294.194 23.6933 294.375 22.8987 294.738 22.216C295.1 21.5333 295.607 21.0107 296.258 20.648C296.919 20.2747 297.676 20.088 298.53 20.088C299.362 20.088 300.098 20.2693 300.738 20.632C301.378 20.9947 301.868 21.496 302.21 22.136C302.562 22.7653 302.738 23.48 302.738 24.28ZM301.234 23.976C301.234 23.4213 301.111 22.9467 300.866 22.552C300.62 22.1467 300.284 21.8427 299.858 21.64C299.442 21.4267 298.978 21.32 298.466 21.32C297.73 21.32 297.1 21.5547 296.578 22.024C296.066 22.4933 295.772 23.144 295.698 23.976H301.234Z" fill="#212121"/>
<path d="M380.323 257.928V269H378.867V260.744L375.187 269H374.163L370.467 260.728V269H369.011V257.928H370.579L374.675 267.08L378.771 257.928H380.323ZM383.625 258.808C383.347 258.808 383.113 258.712 382.921 258.52C382.729 258.328 382.633 258.093 382.633 257.816C382.633 257.539 382.729 257.304 382.921 257.112C383.113 256.92 383.347 256.824 383.625 256.824C383.891 256.824 384.115 256.92 384.297 257.112C384.489 257.304 384.585 257.539 384.585 257.816C384.585 258.093 384.489 258.328 384.297 258.52C384.115 258.712 383.891 258.808 383.625 258.808ZM384.329 260.232V269H382.873V260.232H384.329ZM391.162 260.072C392.229 260.072 393.093 260.397 393.754 261.048C394.415 261.688 394.746 262.616 394.746 263.832V269H393.306V264.04C393.306 263.165 393.087 262.499 392.65 262.04C392.213 261.571 391.615 261.336 390.858 261.336C390.09 261.336 389.477 261.576 389.018 262.056C388.57 262.536 388.346 263.235 388.346 264.152V269H386.89V260.232H388.346V261.48C388.634 261.032 389.023 260.685 389.514 260.44C390.015 260.195 390.565 260.072 391.162 260.072ZM398.98 261.432V266.6C398.98 267.027 399.071 267.331 399.252 267.512C399.434 267.683 399.748 267.768 400.196 267.768H401.268V269H399.956C399.146 269 398.538 268.813 398.132 268.44C397.727 268.067 397.524 267.453 397.524 266.6V261.432H396.388V260.232H397.524V258.024H398.98V260.232H401.268V261.432H398.98Z" fill="#212121"/>
<defs>
<linearGradient id="paint0_linear_218_2" x1="-5.09276" y1="236.115" x2="124.767" y2="247.642" gradientUnits="userSpaceOnUse">
<stop stop-color="#9094FF"/>
<stop offset="0.664583" stop-color="#55F4C5"/>
<stop offset="1" stop-color="#A659F3"/>
</linearGradient>
<linearGradient id="paint1_linear_218_2" x1="324.907" y1="241" x2="454.767" y2="252.527" gradientUnits="userSpaceOnUse">
<stop stop-color="#9094FF"/>
<stop offset="0.664583" stop-color="#55F4C5"/>
<stop offset="1" stop-color="#A659F3"/>
</linearGradient>
<linearGradient id="paint2_linear_218_2" x1="219.907" y1="-1.42941e-05" x2="349.767" y2="11.5271" gradientUnits="userSpaceOnUse">
<stop stop-color="#9094FF"/>
<stop offset="0.664583" stop-color="#55F4C5"/>
<stop offset="1" stop-color="#A659F3"/>
</linearGradient>
</defs>
</svg>
