<svg id="Layer_1" data-name="Layer 1" xmlns="http://www.w3.org/2000/svg" xmlns:xlink="http://www.w3.org/1999/xlink" width="2704.03" height="1455.39" viewBox="0 0 2704.03 1455.39"><defs><style>.cls-1{fill-rule:evenodd;fill:url(#New_Gradient_Swatch_8);}.cls-2{font-size:765.35px;fill:#46b6b5;font-family:Calibri;}</style><linearGradient id="New_Gradient_Swatch_8" x1="989.64" y1="200.81" x2="316.4" y2="1366.89" gradientUnits="userSpaceOnUse"><stop offset="0" stop-color="#46b6b5"/><stop offset="1" stop-color="#5f92c4"/></linearGradient></defs><path class="cls-1" d="M351.31,474.78,212.8,336.27A642.23,642.23,0,0,1,401.28,218.39,433.31,433.31,0,0,0,586.62,74.49L641.83,0,697,74.47a433.28,433.28,0,0,0,185.33,143.9C945.7,244,1015.49,284.12,1071.79,329.5a533.68,533.68,0,0,1,42.4,37.85,866.59,866.59,0,0,1-118.55,38.3c-58,14-124.42,22.1-167.2,2.43C673.46,336.82,486,359.06,351.31,474.78ZM307.8,517.6,169.38,379.18a641.7,641.7,0,0,0-7.61,860.35L300.27,1101C158.12,932.45,160.63,683.33,307.8,517.6Zm686.6,686.6c-47-12.49-101.49-16.06-151,7.82-162.54,78.44-361.29,58.91-500.74-67.09L204.41,1283.21C319,1390,472.82,1455.38,641.83,1455.39c160.74,0,322.94-66.35,438.39-165.37q17.74-15.23,34-31.44S1062,1222.17,994.4,1204.2Z"/><text class="cls-2" transform="translate(946.94 1056.7)">ertUP</text></svg>