<svg width="120" height="25" viewBox="0 0 120 25" fill="none" xmlns="http://www.w3.org/2000/svg">
<path d="M31.688 12.5493C31.688 11.4613 31.9333 10.4853 32.424 9.6213C32.9147 8.74663 33.5813 8.06397 34.424 7.5733C35.2773 7.08263 36.2213 6.8373 37.256 6.8373C38.472 6.8373 39.5333 7.13063 40.44 7.7173C41.3467 8.30397 42.008 9.13597 42.424 10.2133H40.68C40.3707 9.5413 39.9227 9.02397 39.336 8.6613C38.76 8.29863 38.0667 8.1173 37.256 8.1173C36.4773 8.1173 35.7787 8.29863 35.16 8.6613C34.5413 9.02397 34.056 9.5413 33.704 10.2133C33.352 10.8746 33.176 11.6533 33.176 12.5493C33.176 13.4346 33.352 14.2133 33.704 14.8853C34.056 15.5466 34.5413 16.0586 35.16 16.4213C35.7787 16.784 36.4773 16.9653 37.256 16.9653C38.0667 16.9653 38.76 16.7893 39.336 16.4373C39.9227 16.0746 40.3707 15.5573 40.68 14.8853H42.424C42.008 15.952 41.3467 16.7786 40.44 17.3653C39.5333 17.9413 38.472 18.2293 37.256 18.2293C36.2213 18.2293 35.2773 17.9893 34.424 17.5093C33.5813 17.0186 32.9147 16.3413 32.424 15.4773C31.9333 14.6133 31.688 13.6373 31.688 12.5493ZM48.9434 9.2053C49.6047 9.2053 50.202 9.3493 50.7354 9.6373C51.2687 9.91463 51.6847 10.336 51.9834 10.9013C52.2927 11.4666 52.4474 12.1546 52.4474 12.9653V18.1333H51.0074V13.1733C51.0074 12.2986 50.7887 11.632 50.3514 11.1733C49.914 10.704 49.3167 10.4693 48.5594 10.4693C47.7914 10.4693 47.178 10.7093 46.7194 11.1893C46.2714 11.6693 46.0474 12.368 46.0474 13.2853V18.1333H44.5914V6.2933H46.0474V10.6133C46.3354 10.1653 46.73 9.81863 47.2314 9.5733C47.7434 9.32797 48.314 9.2053 48.9434 9.2053ZM58.6498 18.2773C57.8284 18.2773 57.0818 18.0906 56.4098 17.7173C55.7484 17.344 55.2258 16.816 54.8418 16.1333C54.4684 15.44 54.2818 14.64 54.2818 13.7333C54.2818 12.8373 54.4738 12.048 54.8578 11.3653C55.2524 10.672 55.7858 10.144 56.4578 9.7813C57.1298 9.40797 57.8818 9.2213 58.7138 9.2213C59.5458 9.2213 60.2978 9.40797 60.9698 9.7813C61.6418 10.144 62.1698 10.6666 62.5538 11.3493C62.9484 12.032 63.1458 12.8266 63.1458 13.7333C63.1458 14.64 62.9431 15.44 62.5378 16.1333C62.1431 16.816 61.6044 17.344 60.9218 17.7173C60.2391 18.0906 59.4818 18.2773 58.6498 18.2773ZM58.6498 16.9973C59.1724 16.9973 59.6631 16.8746 60.1218 16.6293C60.5804 16.384 60.9484 16.016 61.2258 15.5253C61.5138 15.0346 61.6578 14.4373 61.6578 13.7333C61.6578 13.0293 61.5191 12.432 61.2418 11.9413C60.9644 11.4506 60.6018 11.088 60.1538 10.8533C59.7058 10.608 59.2204 10.4853 58.6978 10.4853C58.1644 10.4853 57.6738 10.608 57.2258 10.8533C56.7884 11.088 56.4364 11.4506 56.1698 11.9413C55.9031 12.432 55.7698 13.0293 55.7698 13.7333C55.7698 14.448 55.8978 15.0506 56.1538 15.5413C56.4204 16.032 56.7724 16.4 57.2098 16.6453C57.6471 16.88 58.1271 16.9973 58.6498 16.9973ZM68.8841 18.2773C68.0628 18.2773 67.3161 18.0906 66.6441 17.7173C65.9828 17.344 65.4601 16.816 65.0761 16.1333C64.7028 15.44 64.5161 14.64 64.5161 13.7333C64.5161 12.8373 64.7081 12.048 65.0921 11.3653C65.4868 10.672 66.0201 10.144 66.6921 9.7813C67.3641 9.40797 68.1161 9.2213 68.9481 9.2213C69.7801 9.2213 70.5321 9.40797 71.2041 9.7813C71.8761 10.144 72.4041 10.6666 72.7881 11.3493C73.1828 12.032 73.3801 12.8266 73.3801 13.7333C73.3801 14.64 73.1775 15.44 72.7721 16.1333C72.3775 16.816 71.8388 17.344 71.1561 17.7173C70.4735 18.0906 69.7161 18.2773 68.8841 18.2773ZM68.8841 16.9973C69.4068 16.9973 69.8975 16.8746 70.3561 16.6293C70.8148 16.384 71.1828 16.016 71.4601 15.5253C71.7481 15.0346 71.8921 14.4373 71.8921 13.7333C71.8921 13.0293 71.7535 12.432 71.4761 11.9413C71.1988 11.4506 70.8361 11.088 70.3881 10.8533C69.9401 10.608 69.4548 10.4853 68.9321 10.4853C68.3988 10.4853 67.9081 10.608 67.4601 10.8533C67.0228 11.088 66.6708 11.4506 66.4041 11.9413C66.1375 12.432 66.0041 13.0293 66.0041 13.7333C66.0041 14.448 66.1321 15.0506 66.3881 15.5413C66.6548 16.032 67.0068 16.4 67.4441 16.6453C67.8815 16.88 68.3615 16.9973 68.8841 16.9973ZM78.3985 18.2773C77.7265 18.2773 77.1238 18.1653 76.5905 17.9413C76.0572 17.7066 75.6358 17.3866 75.3265 16.9813C75.0172 16.5653 74.8465 16.0906 74.8145 15.5573H76.3185C76.3612 15.9946 76.5638 16.352 76.9265 16.6293C77.2998 16.9066 77.7852 17.0453 78.3825 17.0453C78.9372 17.0453 79.3745 16.9226 79.6945 16.6773C80.0145 16.432 80.1745 16.1226 80.1745 15.7493C80.1745 15.3653 80.0038 15.0826 79.6625 14.9013C79.3212 14.7093 78.7932 14.5226 78.0785 14.3413C77.4278 14.1706 76.8945 14 76.4785 13.8293C76.0732 13.648 75.7212 13.3866 75.4225 13.0453C75.1345 12.6933 74.9905 12.2346 74.9905 11.6693C74.9905 11.2213 75.1238 10.8106 75.3905 10.4373C75.6572 10.064 76.0358 9.77063 76.5265 9.5573C77.0172 9.3333 77.5772 9.2213 78.2065 9.2213C79.1772 9.2213 79.9612 9.46663 80.5585 9.9573C81.1558 10.448 81.4758 11.12 81.5185 11.9733H80.0625C80.0305 11.5146 79.8438 11.1466 79.5025 10.8693C79.1718 10.592 78.7238 10.4533 78.1585 10.4533C77.6358 10.4533 77.2198 10.5653 76.9105 10.7893C76.6012 11.0133 76.4465 11.3066 76.4465 11.6693C76.4465 11.9573 76.5372 12.1973 76.7185 12.3893C76.9105 12.5706 77.1452 12.72 77.4225 12.8373C77.7105 12.944 78.1052 13.0666 78.6065 13.2053C79.2358 13.376 79.7478 13.5466 80.1425 13.7173C80.5372 13.8773 80.8732 14.1226 81.1505 14.4533C81.4385 14.784 81.5878 15.216 81.5985 15.7493C81.5985 16.2293 81.4652 16.6613 81.1985 17.0453C80.9318 17.4293 80.5532 17.7333 80.0625 17.9573C79.5825 18.1706 79.0278 18.2773 78.3985 18.2773ZM91.6539 13.4133C91.6539 13.6906 91.6379 13.984 91.6059 14.2933H84.5979C84.6512 15.1573 84.9445 15.8346 85.4779 16.3253C86.0219 16.8053 86.6779 17.0453 87.4459 17.0453C88.0752 17.0453 88.5979 16.9013 89.0139 16.6133C89.4405 16.3146 89.7392 15.92 89.9099 15.4293H91.4779C91.2432 16.272 90.7739 16.96 90.0699 17.4933C89.3659 18.016 88.4912 18.2773 87.4459 18.2773C86.6139 18.2773 85.8672 18.0906 85.2059 17.7173C84.5552 17.344 84.0432 16.816 83.6699 16.1333C83.2965 15.44 83.1099 14.64 83.1099 13.7333C83.1099 12.8266 83.2912 12.032 83.6539 11.3493C84.0165 10.6666 84.5232 10.144 85.1739 9.7813C85.8352 9.40797 86.5925 9.2213 87.4459 9.2213C88.2779 9.2213 89.0139 9.40263 89.6539 9.7653C90.2939 10.128 90.7845 10.6293 91.1259 11.2693C91.4779 11.8986 91.6539 12.6133 91.6539 13.4133ZM90.1499 13.1093C90.1499 12.5546 90.0272 12.08 89.7819 11.6853C89.5365 11.28 89.2005 10.976 88.7739 10.7733C88.3579 10.56 87.8939 10.4533 87.3819 10.4533C86.6459 10.4533 86.0165 10.688 85.4939 11.1573C84.9819 11.6266 84.6885 12.2773 84.6139 13.1093H90.1499ZM101.409 10.5653H99.5694V18.1333H98.1134V10.5653H96.9774V9.3653H98.1134V8.7413C98.1134 7.75997 98.364 7.0453 98.8654 6.5973C99.3774 6.13863 100.193 5.9093 101.313 5.9093V7.1253C100.673 7.1253 100.22 7.2533 99.9534 7.5093C99.6974 7.75463 99.5694 8.1653 99.5694 8.7413V9.3653H101.409V10.5653ZM103.859 7.9413C103.582 7.9413 103.347 7.8453 103.155 7.6533C102.963 7.4613 102.867 7.22663 102.867 6.9493C102.867 6.67197 102.963 6.4373 103.155 6.2453C103.347 6.0533 103.582 5.9573 103.859 5.9573C104.126 5.9573 104.35 6.0533 104.531 6.2453C104.723 6.4373 104.819 6.67197 104.819 6.9493C104.819 7.22663 104.723 7.4613 104.531 7.6533C104.35 7.8453 104.126 7.9413 103.859 7.9413ZM104.563 9.3653V18.1333H103.107V9.3653H104.563ZM108.501 6.2933V18.1333H107.045V6.2933H108.501ZM118.982 13.4133C118.982 13.6906 118.966 13.984 118.934 14.2933H111.926C111.979 15.1573 112.273 15.8346 112.806 16.3253C113.35 16.8053 114.006 17.0453 114.774 17.0453C115.403 17.0453 115.926 16.9013 116.342 16.6133C116.769 16.3146 117.067 15.92 117.238 15.4293H118.806C118.571 16.272 118.102 16.96 117.398 17.4933C116.694 18.016 115.819 18.2773 114.774 18.2773C113.942 18.2773 113.195 18.0906 112.534 17.7173C111.883 17.344 111.371 16.816 110.998 16.1333C110.625 15.44 110.438 14.64 110.438 13.7333C110.438 12.8266 110.619 12.032 110.982 11.3493C111.345 10.6666 111.851 10.144 112.502 9.7813C113.163 9.40797 113.921 9.2213 114.774 9.2213C115.606 9.2213 116.342 9.40263 116.982 9.7653C117.622 10.128 118.113 10.6293 118.454 11.2693C118.806 11.8986 118.982 12.6133 118.982 13.4133ZM117.478 13.1093C117.478 12.5546 117.355 12.08 117.11 11.6853C116.865 11.28 116.529 10.976 116.102 10.7733C115.686 10.56 115.222 10.4533 114.71 10.4533C113.974 10.4533 113.345 10.688 112.822 11.1573C112.31 11.6266 112.017 12.2773 111.942 13.1093H117.478Z" fill="#4148FF"/>
<path d="M14 2.1333H6C5.46957 2.1333 4.96086 2.34401 4.58579 2.71909C4.21071 3.09416 4 3.60287 4 4.1333V20.1333C4 20.6637 4.21071 21.1724 4.58579 21.5475C4.96086 21.9226 5.46957 22.1333 6 22.1333H18C18.5304 22.1333 19.0391 21.9226 19.4142 21.5475C19.7893 21.1724 20 20.6637 20 20.1333V8.1333L14 2.1333Z" stroke="#4148FF" stroke-width="2" stroke-linecap="round" stroke-linejoin="round"/>
<path d="M14 2.1333V8.1333H20" stroke="#4148FF" stroke-width="2" stroke-linecap="round" stroke-linejoin="round"/>
<path d="M12 18.1333V12.1333" stroke="#4148FF" stroke-width="2" stroke-linecap="round" stroke-linejoin="round"/>
<path d="M9 15.1333H15" stroke="#4148FF" stroke-width="2" stroke-linecap="round" stroke-linejoin="round"/>
</svg>
