<?xml version="1.0" encoding="UTF-8" standalone="no"?>
<svg
   id="Layer_1"
   data-name="Layer 1"
   width="1455.39"
   height="1455.39"
   version="1.1"
   xmlns="http://www.w3.org/2000/svg"
   xmlns:svg="http://www.w3.org/2000/svg">
  <defs
     id="defs9">
    <linearGradient
       id="New_Gradient_Swatch_8"
       x1="989.64001"
       y1="200.81"
       x2="316.39999"
       y2="1366.89"
       gradientUnits="userSpaceOnUse"
       gradientTransform="translate(170.58441)">
      <stop
         offset="0"
         stop-color="#46b6b5"
         id="stop4" />
      <stop
         offset="1"
         stop-color="#5f92c4"
         id="stop6" />
    </linearGradient>
    <style
       id="style2">.cls-2{font-size:765.35px;fill:#46b6b5;font-family:Calibri}</style>
  </defs>
  <path
     d="m 521.89441,474.78 -138.51,-138.51 a 642.23,642.23 0 0 1 188.48,-117.88 433.31,433.31 0 0 0 185.34,-143.9 l 55.21,-74.49 55.17,74.47 a 433.28,433.28 0 0 0 185.32999,143.9 c 63.37,25.63 133.16,65.75 189.46,111.13 a 533.68,533.68 0 0 1 42.4,37.85 866.59,866.59 0 0 1 -118.55,38.3 c -58,14 -124.42,22.1 -167.19999,2.43 -154.98,-71.26 -342.44,-49.02 -477.13,66.7 z m -43.51,42.82 -138.42,-138.42 a 641.7,641.7 0 0 0 -7.61,860.35 l 138.5,-138.53 c -142.15,-168.55 -139.64,-417.67 7.53,-583.4 z m 686.59999,686.6 c -47,-12.49 -101.49,-16.06 -151,7.82 -162.53999,78.44 -361.28999,58.91 -500.73999,-67.09 l -138.25,138.28 c 114.59,106.79 268.41,172.17 437.42,172.18 160.74,0 322.93999,-66.35 438.38999,-165.37 q 17.74,-15.23 34,-31.44 c 0,0 -52.22,-36.41 -119.82,-54.38 z"
     id="path11"
     style="fill:url(#New_Gradient_Swatch_8);fill-rule:evenodd" />
</svg>
