<svg width="204" height="25" viewBox="0 0 204 25" fill="none" xmlns="http://www.w3.org/2000/svg">
<path d="M39.704 6.9813C40.92 6.9813 41.9707 7.21063 42.856 7.6693C43.752 8.1173 44.4347 8.76263 44.904 9.6053C45.384 10.448 45.624 11.44 45.624 12.5813C45.624 13.7226 45.384 14.7146 44.904 15.5573C44.4347 16.3893 43.752 17.0293 42.856 17.4773C41.9707 17.9146 40.92 18.1333 39.704 18.1333H36.232V6.9813H39.704ZM39.704 16.9333C41.144 16.9333 42.2427 16.5546 43 15.7973C43.7573 15.0293 44.136 13.9573 44.136 12.5813C44.136 11.1946 43.752 10.112 42.984 9.3333C42.2267 8.55463 41.1333 8.1653 39.704 8.1653H37.688V16.9333H39.704ZM51.3685 18.2773C50.5472 18.2773 49.8005 18.0906 49.1285 17.7173C48.4672 17.344 47.9445 16.816 47.5605 16.1333C47.1872 15.44 47.0005 14.64 47.0005 13.7333C47.0005 12.8373 47.1925 12.048 47.5765 11.3653C47.9712 10.672 48.5045 10.144 49.1765 9.7813C49.8485 9.40797 50.6005 9.2213 51.4325 9.2213C52.2645 9.2213 53.0165 9.40797 53.6885 9.7813C54.3605 10.144 54.8885 10.6666 55.2725 11.3493C55.6672 12.032 55.8645 12.8266 55.8645 13.7333C55.8645 14.64 55.6618 15.44 55.2565 16.1333C54.8618 16.816 54.3232 17.344 53.6405 17.7173C52.9578 18.0906 52.2005 18.2773 51.3685 18.2773ZM51.3685 16.9973C51.8912 16.9973 52.3818 16.8746 52.8405 16.6293C53.2992 16.384 53.6672 16.016 53.9445 15.5253C54.2325 15.0346 54.3765 14.4373 54.3765 13.7333C54.3765 13.0293 54.2378 12.432 53.9605 11.9413C53.6832 11.4506 53.3205 11.088 52.8725 10.8533C52.4245 10.608 51.9392 10.4853 51.4165 10.4853C50.8832 10.4853 50.3925 10.608 49.9445 10.8533C49.5072 11.088 49.1552 11.4506 48.8885 11.9413C48.6218 12.432 48.4885 13.0293 48.4885 13.7333C48.4885 14.448 48.6165 15.0506 48.8725 15.5413C49.1392 16.032 49.4912 16.4 49.9285 16.6453C50.3658 16.88 50.8458 16.9973 51.3685 16.9973ZM69.4589 9.3653L66.7229 18.1333H65.2189L63.1069 11.1733L60.9949 18.1333H59.4909L56.7389 9.3653H58.2269L60.2429 16.7253L62.4189 9.3653H63.9069L66.0349 16.7413L68.0189 9.3653H69.4589ZM75.1759 9.2053C76.2425 9.2053 77.1065 9.53063 77.7679 10.1813C78.4292 10.8213 78.7599 11.7493 78.7599 12.9653V18.1333H77.3199V13.1733C77.3199 12.2986 77.1012 11.632 76.6639 11.1733C76.2265 10.704 75.6292 10.4693 74.8719 10.4693C74.1039 10.4693 73.4905 10.7093 73.0319 11.1893C72.5839 11.6693 72.3599 12.368 72.3599 13.2853V18.1333H70.9039V9.3653H72.3599V10.6133C72.6479 10.1653 73.0372 9.81863 73.5279 9.5733C74.0292 9.32797 74.5785 9.2053 75.1759 9.2053ZM82.5943 6.2933V18.1333H81.1383V6.2933H82.5943ZM88.8998 18.2773C88.0784 18.2773 87.3318 18.0906 86.6598 17.7173C85.9984 17.344 85.4758 16.816 85.0918 16.1333C84.7184 15.44 84.5318 14.64 84.5318 13.7333C84.5318 12.8373 84.7238 12.048 85.1078 11.3653C85.5024 10.672 86.0358 10.144 86.7078 9.7813C87.3798 9.40797 88.1318 9.2213 88.9638 9.2213C89.7958 9.2213 90.5478 9.40797 91.2198 9.7813C91.8918 10.144 92.4198 10.6666 92.8038 11.3493C93.1984 12.032 93.3958 12.8266 93.3958 13.7333C93.3958 14.64 93.1931 15.44 92.7878 16.1333C92.3931 16.816 91.8544 17.344 91.1718 17.7173C90.4891 18.0906 89.7318 18.2773 88.8998 18.2773ZM88.8998 16.9973C89.4224 16.9973 89.9131 16.8746 90.3718 16.6293C90.8304 16.384 91.1984 16.016 91.4758 15.5253C91.7638 15.0346 91.9078 14.4373 91.9078 13.7333C91.9078 13.0293 91.7691 12.432 91.4918 11.9413C91.2144 11.4506 90.8518 11.088 90.4038 10.8533C89.9558 10.608 89.4704 10.4853 88.9478 10.4853C88.4144 10.4853 87.9238 10.608 87.4758 10.8533C87.0384 11.088 86.6864 11.4506 86.4198 11.9413C86.1531 12.432 86.0198 13.0293 86.0198 13.7333C86.0198 14.448 86.1478 15.0506 86.4038 15.5413C86.6704 16.032 87.0224 16.4 87.4598 16.6453C87.8971 16.88 88.3771 16.9973 88.8998 16.9973ZM94.7661 13.7173C94.7661 12.8213 94.9475 12.0373 95.3101 11.3653C95.6728 10.6826 96.1688 10.1546 96.7981 9.7813C97.4381 9.40797 98.1475 9.2213 98.9261 9.2213C99.6941 9.2213 100.361 9.38663 100.926 9.7173C101.491 10.048 101.913 10.464 102.19 10.9653V9.3653H103.662V18.1333H102.19V16.5013C101.902 17.0133 101.47 17.44 100.894 17.7813C100.329 18.112 99.6675 18.2773 98.9101 18.2773C98.1315 18.2773 97.4275 18.0853 96.7981 17.7013C96.1688 17.3173 95.6728 16.7786 95.3101 16.0853C94.9475 15.392 94.7661 14.6026 94.7661 13.7173ZM102.19 13.7333C102.19 13.072 102.057 12.496 101.79 12.0053C101.523 11.5146 101.161 11.1413 100.702 10.8853C100.254 10.6186 99.7581 10.4853 99.2141 10.4853C98.6701 10.4853 98.1741 10.6133 97.7261 10.8693C97.2781 11.1253 96.9208 11.4986 96.6541 11.9893C96.3875 12.48 96.2541 13.056 96.2541 13.7173C96.2541 14.3893 96.3875 14.976 96.6541 15.4773C96.9208 15.968 97.2781 16.3466 97.7261 16.6133C98.1741 16.8693 98.6701 16.9973 99.2141 16.9973C99.7581 16.9973 100.254 16.8693 100.702 16.6133C101.161 16.3466 101.523 15.968 101.79 15.4773C102.057 14.976 102.19 14.3946 102.19 13.7333ZM105.579 13.7173C105.579 12.8213 105.76 12.0373 106.123 11.3653C106.485 10.6826 106.981 10.1546 107.611 9.7813C108.251 9.40797 108.965 9.2213 109.755 9.2213C110.437 9.2213 111.072 9.3813 111.659 9.7013C112.245 10.0106 112.693 10.4213 113.003 10.9333V6.2933H114.475V18.1333H113.003V16.4853C112.715 17.008 112.288 17.44 111.723 17.7813C111.157 18.112 110.496 18.2773 109.739 18.2773C108.96 18.2773 108.251 18.0853 107.611 17.7013C106.981 17.3173 106.485 16.7786 106.123 16.0853C105.76 15.392 105.579 14.6026 105.579 13.7173ZM113.003 13.7333C113.003 13.072 112.869 12.496 112.603 12.0053C112.336 11.5146 111.973 11.1413 111.515 10.8853C111.067 10.6186 110.571 10.4853 110.027 10.4853C109.483 10.4853 108.987 10.6133 108.539 10.8693C108.091 11.1253 107.733 11.4986 107.467 11.9893C107.2 12.48 107.067 13.056 107.067 13.7173C107.067 14.3893 107.2 14.976 107.467 15.4773C107.733 15.968 108.091 16.3466 108.539 16.6133C108.987 16.8693 109.483 16.9973 110.027 16.9973C110.571 16.9973 111.067 16.8693 111.515 16.6133C111.973 16.3466 112.336 15.968 112.603 15.4773C112.869 14.976 113.003 14.3946 113.003 13.7333ZM129.201 13.4133C129.201 13.6906 129.185 13.984 129.153 14.2933H122.145C122.198 15.1573 122.491 15.8346 123.025 16.3253C123.569 16.8053 124.225 17.0453 124.993 17.0453C125.622 17.0453 126.145 16.9013 126.561 16.6133C126.987 16.3146 127.286 15.92 127.457 15.4293H129.025C128.79 16.272 128.321 16.96 127.617 17.4933C126.913 18.016 126.038 18.2773 124.993 18.2773C124.161 18.2773 123.414 18.0906 122.753 17.7173C122.102 17.344 121.59 16.816 121.217 16.1333C120.843 15.44 120.657 14.64 120.657 13.7333C120.657 12.8266 120.838 12.032 121.201 11.3493C121.563 10.6666 122.07 10.144 122.721 9.7813C123.382 9.40797 124.139 9.2213 124.993 9.2213C125.825 9.2213 126.561 9.40263 127.201 9.7653C127.841 10.128 128.331 10.6293 128.673 11.2693C129.025 11.8986 129.201 12.6133 129.201 13.4133ZM127.697 13.1093C127.697 12.5546 127.574 12.08 127.329 11.6853C127.083 11.28 126.747 10.976 126.321 10.7733C125.905 10.56 125.441 10.4533 124.929 10.4533C124.193 10.4533 123.563 10.688 123.041 11.1573C122.529 11.6266 122.235 12.2773 122.161 13.1093H127.697ZM135.699 18.1333L133.619 14.8693L131.619 18.1333H130.099L132.931 13.7813L130.099 9.3653H131.747L133.827 12.6133L135.811 9.3653H137.331L134.515 13.7013L137.347 18.1333H135.699ZM138.235 13.7333C138.235 12.8266 138.416 12.0373 138.779 11.3653C139.142 10.6826 139.643 10.1546 140.283 9.7813C140.934 9.40797 141.675 9.2213 142.507 9.2213C143.584 9.2213 144.47 9.48263 145.163 10.0053C145.867 10.528 146.331 11.2533 146.555 12.1813H144.987C144.838 11.648 144.544 11.2266 144.107 10.9173C143.68 10.608 143.147 10.4533 142.507 10.4533C141.675 10.4533 141.003 10.7413 140.491 11.3173C139.979 11.8826 139.723 12.688 139.723 13.7333C139.723 14.7893 139.979 15.6053 140.491 16.1813C141.003 16.7573 141.675 17.0453 142.507 17.0453C143.147 17.0453 143.68 16.896 144.107 16.5973C144.534 16.2986 144.827 15.872 144.987 15.3173H146.555C146.32 16.2133 145.851 16.9333 145.147 17.4773C144.443 18.0106 143.563 18.2773 142.507 18.2773C141.675 18.2773 140.934 18.0906 140.283 17.7173C139.643 17.344 139.142 16.816 138.779 16.1333C138.416 15.4506 138.235 14.6506 138.235 13.7333ZM156.498 13.4133C156.498 13.6906 156.482 13.984 156.45 14.2933H149.442C149.495 15.1573 149.788 15.8346 150.322 16.3253C150.866 16.8053 151.522 17.0453 152.29 17.0453C152.919 17.0453 153.442 16.9013 153.858 16.6133C154.284 16.3146 154.583 15.92 154.754 15.4293H156.322C156.087 16.272 155.618 16.96 154.914 17.4933C154.21 18.016 153.335 18.2773 152.29 18.2773C151.458 18.2773 150.711 18.0906 150.05 17.7173C149.399 17.344 148.887 16.816 148.514 16.1333C148.14 15.44 147.954 14.64 147.954 13.7333C147.954 12.8266 148.135 12.032 148.498 11.3493C148.86 10.6666 149.367 10.144 150.018 9.7813C150.679 9.40797 151.436 9.2213 152.29 9.2213C153.122 9.2213 153.858 9.40263 154.498 9.7653C155.138 10.128 155.628 10.6293 155.97 11.2693C156.322 11.8986 156.498 12.6133 156.498 13.4133ZM154.994 13.1093C154.994 12.5546 154.871 12.08 154.626 11.6853C154.38 11.28 154.044 10.976 153.618 10.7733C153.202 10.56 152.738 10.4533 152.226 10.4533C151.49 10.4533 150.86 10.688 150.338 11.1573C149.826 11.6266 149.532 12.2773 149.458 13.1093H154.994ZM159.876 6.2933V18.1333H158.42V6.2933H159.876ZM170.447 18.2773C169.625 18.2773 168.879 18.0906 168.207 17.7173C167.545 17.344 167.023 16.816 166.639 16.1333C166.265 15.44 166.079 14.64 166.079 13.7333C166.079 12.8373 166.271 12.048 166.655 11.3653C167.049 10.672 167.583 10.144 168.255 9.7813C168.927 9.40797 169.679 9.2213 170.511 9.2213C171.343 9.2213 172.095 9.40797 172.767 9.7813C173.439 10.144 173.967 10.6666 174.351 11.3493C174.745 12.032 174.943 12.8266 174.943 13.7333C174.943 14.64 174.74 15.44 174.335 16.1333C173.94 16.816 173.401 17.344 172.719 17.7173C172.036 18.0906 171.279 18.2773 170.447 18.2773ZM170.447 16.9973C170.969 16.9973 171.46 16.8746 171.919 16.6293C172.377 16.384 172.745 16.016 173.023 15.5253C173.311 15.0346 173.455 14.4373 173.455 13.7333C173.455 13.0293 173.316 12.432 173.039 11.9413C172.761 11.4506 172.399 11.088 171.951 10.8533C171.503 10.608 171.017 10.4853 170.495 10.4853C169.961 10.4853 169.471 10.608 169.023 10.8533C168.585 11.088 168.233 11.4506 167.967 11.9413C167.7 12.432 167.567 13.0293 167.567 13.7333C167.567 14.448 167.695 15.0506 167.951 15.5413C168.217 16.032 168.569 16.4 169.007 16.6453C169.444 16.88 169.924 16.9973 170.447 16.9973ZM180.425 10.5653H178.585V18.1333H177.129V10.5653H175.993V9.3653H177.129V8.7413C177.129 7.75997 177.38 7.0453 177.881 6.5973C178.393 6.13863 179.209 5.9093 180.329 5.9093V7.1253C179.689 7.1253 179.236 7.2533 178.969 7.5093C178.713 7.75463 178.585 8.1653 178.585 8.7413V9.3653H180.425V10.5653ZM185.844 13.7173C185.844 12.8213 186.026 12.0373 186.388 11.3653C186.751 10.6826 187.247 10.1546 187.876 9.7813C188.516 9.40797 189.226 9.2213 190.004 9.2213C190.772 9.2213 191.439 9.38663 192.004 9.7173C192.57 10.048 192.991 10.464 193.268 10.9653V9.3653H194.74V18.1333H193.268V16.5013C192.98 17.0133 192.548 17.44 191.972 17.7813C191.407 18.112 190.746 18.2773 189.988 18.2773C189.21 18.2773 188.506 18.0853 187.876 17.7013C187.247 17.3173 186.751 16.7786 186.388 16.0853C186.026 15.392 185.844 14.6026 185.844 13.7173ZM193.268 13.7333C193.268 13.072 193.135 12.496 192.868 12.0053C192.602 11.5146 192.239 11.1413 191.78 10.8853C191.332 10.6186 190.836 10.4853 190.292 10.4853C189.748 10.4853 189.252 10.6133 188.804 10.8693C188.356 11.1253 187.999 11.4986 187.732 11.9893C187.466 12.48 187.332 13.056 187.332 13.7173C187.332 14.3893 187.466 14.976 187.732 15.4773C187.999 15.968 188.356 16.3466 188.804 16.6133C189.252 16.8693 189.748 16.9973 190.292 16.9973C190.836 16.9973 191.332 16.8693 191.78 16.6133C192.239 16.3466 192.602 15.968 192.868 15.4773C193.135 14.976 193.268 14.3946 193.268 13.7333ZM198.657 6.2933V18.1333H197.201V6.2933H198.657ZM202.594 6.2933V18.1333H201.138V6.2933H202.594Z" fill="#4148FF"/>
<path d="M21 15.1333V19.1333C21 19.6637 20.7893 20.1724 20.4142 20.5475C20.0391 20.9226 19.5304 21.1333 19 21.1333H5C4.46957 21.1333 3.96086 20.9226 3.58579 20.5475C3.21071 20.1724 3 19.6637 3 19.1333V15.1333" stroke="#4148FF" stroke-width="2" stroke-linecap="round" stroke-linejoin="round"/>
<path d="M7 10.1333L12 15.1333L17 10.1333" stroke="#4148FF" stroke-width="2" stroke-linecap="round" stroke-linejoin="round"/>
<path d="M12 15.1333V3.1333" stroke="#4148FF" stroke-width="2" stroke-linecap="round" stroke-linejoin="round"/>
</svg>
