<svg width="1372" height="424" fill="none" version="1.1" viewBox="0 0 1372 424" xmlns="http://www.w3.org/2000/svg">
 <g stroke="#e4e4e4" stroke-width="4">
  <line x1="1" x2="1372" y1="151" y2="151"/>
  <line x1="1" x2="1372" y1="241" y2="241"/>
  <line x1="1" x2="1372" y1="331" y2="331"/>
  <line x1="1" x2="1372" y1="288" y2="288"/>
  <line x1="1" x2="1372" y1="246" y2="246"/>
  <line x1="1" x2="1372" y1="203" y2="203"/>
  <line x1="1" x2="1372" y1="117" y2="117"/>
  <line x1="1" x2="1372" y1="31" y2="31"/>
  <line x1="1" x2="1372" y1="70" y2="70"/>
  <line x1="1" x2="1372" y1="108" y2="108"/>
  <line x1="1" x2="1372" y1="147" y2="147"/>
  <line x1="1" x2="1372" y1="185" y2="185"/>
  <line x1="1" x2="1372" y1="224" y2="224"/>
  <line x1="1" x2="1372" y1="164" y2="164"/>
  <line x1="1" x2="1372" y1="254" y2="254"/>
  <line x1="1" x2="1372" y1="344" y2="344"/>
  <line x1="1" x2="1372" y1="301" y2="301"/>
  <line x1="1" x2="1372" y1="258" y2="258"/>
  <line x1="1" x2="1372" y1="216" y2="216"/>
  <line x1="1" x2="1372" y1="130" y2="130"/>
  <line x1="1" x2="1372" y1="44" y2="44"/>
  <line x1="1" x2="1372" y1="82" y2="82"/>
  <line x1="1" x2="1372" y1="121" y2="121"/>
  <line x1="1" x2="1372" y1="160" y2="160"/>
  <line x1="1" x2="1372" y1="198" y2="198"/>
  <line x1="1" x2="1372" y1="237" y2="237"/>
  <line x1="1" x2="1372" y1="176" y2="176"/>
  <line x1="1" x2="1372" y1="266" y2="266"/>
  <line x1="1" x2="1372" y1="357" y2="357"/>
  <line x1="1" x2="1372" y1="314" y2="314"/>
  <line x1="1" x2="1372" y1="271" y2="271"/>
  <line x1="1" x2="1372" y1="229" y2="229"/>
  <line x1="1" x2="1372" y1="143" y2="143"/>
  <line x1="1" x2="1372" y1="57" y2="57"/>
  <line x1="1" x2="1372" y1="95" y2="95"/>
  <line x1="1" x2="1372" y1="134" y2="134"/>
  <line x1="1" x2="1372" y1="172" y2="172"/>
  <line x1="1" x2="1372" y1="211" y2="211"/>
  <line x1="1" x2="1372" y1="250" y2="250"/>
  <line x1="1" x2="1372" y1="189" y2="189"/>
  <line x1="1" x2="1372" y1="279" y2="279"/>
  <line x1="1" x2="1372" y1="369" y2="369"/>
  <line x1="1" x2="1372" y1="327" y2="327"/>
  <line x1="1" x2="1372" y1="284" y2="284"/>
  <line x1="1" x2="1372" y1="242" y2="242"/>
  <line x1="1" x2="1372" y1="156" y2="156"/>
  <line x1="1" x2="1372" y1="70" y2="70"/>
  <line x1="1" x2="1372" y1="108" y2="108"/>
  <line x1="1" x2="1372" y1="147" y2="147"/>
  <line x1="1" x2="1372" y1="185" y2="185"/>
  <line x1="1" x2="1372" y1="224" y2="224"/>
  <line x1="1" x2="1372" y1="262" y2="262"/>
  <line x1="1" x2="1372" y1="202" y2="202"/>
  <line x1="1" x2="1372" y1="292" y2="292"/>
  <line x1="1" x2="1372" y1="382" y2="382"/>
  <line x1="1" x2="1372" y1="340" y2="340"/>
  <line x1="1" x2="1372" y1="297" y2="297"/>
  <line x1="1" x2="1372" y1="254" y2="254"/>
  <line x1="1" x2="1372" y1="168" y2="168"/>
  <line x1="1" x2="1372" y1="82" y2="82"/>
  <line x1="1" x2="1372" y1="121" y2="121"/>
  <line x1="1" x2="1372" y1="160" y2="160"/>
  <line x1="1" x2="1372" y1="198" y2="198"/>
  <line x1="1" x2="1372" y1="237" y2="237"/>
  <line x1="1" x2="1372" y1="275" y2="275"/>
 </g>
 <rect x="133.5" y="7.5" width="1087" height="399" rx="26" fill="#fff"/>
 <rect x="133.5" y="7.5" width="1087" height="399" rx="26" fill="url(#paint0_linear_220_3)" fill-opacity=".75"/>
 <rect x="133.5" y="7.5" width="1087" height="399" rx="26" stroke="url(#paint1_linear_220_3)" stroke-width="15"/>
 <g fill="#000">
  <path d="m161.77 45.718c0-1.224 0.276-2.322 0.828-3.294 0.552-0.984 1.302-1.752 2.25-2.304 0.96-0.552 2.022-0.828 3.186-0.828 1.368 0 2.562 0.33 3.582 0.99s1.764 1.596 2.232 2.808h-1.962c-0.348-0.756-0.852-1.338-1.512-1.746-0.648-0.408-1.428-0.612-2.34-0.612-0.876 0-1.662 0.204-2.358 0.612s-1.242 0.99-1.638 1.746c-0.396 0.744-0.594 1.62-0.594 2.628 0 0.996 0.198 1.872 0.594 2.628 0.396 0.744 0.942 1.32 1.638 1.728s1.482 0.612 2.358 0.612c0.912 0 1.692-0.198 2.34-0.594 0.66-0.408 1.164-0.99 1.512-1.746h1.962c-0.468 1.2-1.212 2.13-2.232 2.79-1.02 0.648-2.214 0.972-3.582 0.972-1.164 0-2.226-0.27-3.186-0.81-0.948-0.552-1.698-1.314-2.25-2.286s-0.828-2.07-0.828-3.294zm23.876 0.972c0 0.312-0.018 0.642-0.054 0.99h-7.884c0.06 0.972 0.39 1.734 0.99 2.286 0.612 0.54 1.35 0.81 2.214 0.81 0.708 0 1.296-0.162 1.764-0.486 0.48-0.336 0.816-0.78 1.008-1.332h1.764c-0.264 0.948-0.792 1.722-1.584 2.322-0.792 0.588-1.776 0.882-2.952 0.882-0.936 0-1.776-0.21-2.52-0.63-0.732-0.42-1.308-1.014-1.728-1.782-0.42-0.78-0.63-1.68-0.63-2.7s0.204-1.914 0.612-2.682 0.978-1.356 1.71-1.764c0.744-0.42 1.596-0.63 2.556-0.63 0.936 0 1.764 0.204 2.484 0.612s1.272 0.972 1.656 1.692c0.396 0.708 0.594 1.512 0.594 2.412zm-1.692-0.342c0-0.624-0.138-1.158-0.414-1.602-0.276-0.456-0.654-0.798-1.134-1.026-0.468-0.24-0.99-0.36-1.566-0.36-0.828 0-1.536 0.264-2.124 0.792-0.576 0.528-0.906 1.26-0.99 2.196zm5.852-2.61c0.288-0.564 0.696-1.002 1.224-1.314 0.54-0.312 1.194-0.468 1.962-0.468v1.692h-0.432c-1.836 0-2.754 0.996-2.754 2.988v5.364h-1.638v-9.864h1.638zm7.435-0.252v5.814c0 0.48 0.102 0.822 0.306 1.026 0.204 0.192 0.558 0.288 1.062 0.288h1.206v1.386h-1.476c-0.912 0-1.596-0.21-2.052-0.63s-0.684-1.11-0.684-2.07v-5.814h-1.278v-1.35h1.278v-2.484h1.638v2.484h2.574v1.35zm5.765-2.952c-0.312 0-0.576-0.108-0.792-0.324s-0.324-0.48-0.324-0.792 0.108-0.576 0.324-0.792 0.48-0.324 0.792-0.324c0.3 0 0.552 0.108 0.756 0.324 0.216 0.216 0.324 0.48 0.324 0.792s-0.108 0.576-0.324 0.792c-0.204 0.216-0.456 0.324-0.756 0.324zm0.792 1.602v9.864h-1.638v-9.864zm7.166 1.35h-2.07v8.514h-1.638v-8.514h-1.278v-1.35h1.278v-0.702c0-1.104 0.282-1.908 0.846-2.412 0.576-0.516 1.494-0.774 2.754-0.774v1.368c-0.72 0-1.23 0.144-1.53 0.432-0.288 0.276-0.432 0.738-0.432 1.386v0.702h2.07zm3.115-2.952c-0.312 0-0.576-0.108-0.792-0.324s-0.324-0.48-0.324-0.792 0.108-0.576 0.324-0.792 0.48-0.324 0.792-0.324c0.3 0 0.552 0.108 0.756 0.324 0.216 0.216 0.324 0.48 0.324 0.792s-0.108 0.576-0.324 0.792c-0.204 0.216-0.456 0.324-0.756 0.324zm0.792 1.602v9.864h-1.638v-9.864zm2.54 4.914c0-1.02 0.204-1.908 0.612-2.664 0.408-0.768 0.972-1.362 1.692-1.782 0.732-0.42 1.566-0.63 2.502-0.63 1.212 0 2.208 0.294 2.988 0.882 0.792 0.588 1.314 1.404 1.566 2.448h-1.764c-0.168-0.6-0.498-1.074-0.99-1.422-0.48-0.348-1.08-0.522-1.8-0.522-0.936 0-1.692 0.324-2.268 0.972-0.576 0.636-0.864 1.542-0.864 2.718 0 1.188 0.288 2.106 0.864 2.754s1.332 0.972 2.268 0.972c0.72 0 1.32-0.168 1.8-0.504s0.81-0.816 0.99-1.44h1.764c-0.264 1.008-0.792 1.818-1.584 2.43-0.792 0.6-1.782 0.9-2.97 0.9-0.936 0-1.77-0.21-2.502-0.63-0.72-0.42-1.284-1.014-1.692-1.782s-0.612-1.668-0.612-2.7zm11.294-0.018c0-1.008 0.204-1.89 0.612-2.646 0.408-0.768 0.966-1.362 1.674-1.782 0.72-0.42 1.518-0.63 2.394-0.63 0.864 0 1.614 0.186 2.25 0.558s1.11 0.84 1.422 1.404v-1.8h1.656v9.864h-1.656v-1.836c-0.324 0.576-0.81 1.056-1.458 1.44-0.636 0.372-1.38 0.558-2.232 0.558-0.876 0-1.668-0.216-2.376-0.648s-1.266-1.038-1.674-1.818-0.612-1.668-0.612-2.664zm8.352 0.018c0-0.744-0.15-1.392-0.45-1.944s-0.708-0.972-1.224-1.26c-0.504-0.3-1.062-0.45-1.674-0.45s-1.17 0.144-1.674 0.432-0.906 0.708-1.206 1.26-0.45 1.2-0.45 1.944c0 0.756 0.15 1.416 0.45 1.98 0.3 0.552 0.702 0.978 1.206 1.278 0.504 0.288 1.062 0.432 1.674 0.432s1.17-0.144 1.674-0.432c0.516-0.3 0.924-0.726 1.224-1.278 0.3-0.564 0.45-1.218 0.45-1.962zm6.782-3.564v5.814c0 0.48 0.102 0.822 0.306 1.026 0.204 0.192 0.558 0.288 1.062 0.288h1.206v1.386h-1.476c-0.912 0-1.596-0.21-2.052-0.63s-0.684-1.11-0.684-2.07v-5.814h-1.278v-1.35h1.278v-2.484h1.638v2.484h2.574v1.35zm13.918 3.204c0 0.312-0.018 0.642-0.054 0.99h-7.884c0.06 0.972 0.39 1.734 0.99 2.286 0.612 0.54 1.35 0.81 2.214 0.81 0.708 0 1.296-0.162 1.764-0.486 0.48-0.336 0.816-0.78 1.008-1.332h1.764c-0.264 0.948-0.792 1.722-1.584 2.322-0.792 0.588-1.776 0.882-2.952 0.882-0.936 0-1.776-0.21-2.52-0.63-0.732-0.42-1.308-1.014-1.728-1.782-0.42-0.78-0.63-1.68-0.63-2.7s0.204-1.914 0.612-2.682 0.978-1.356 1.71-1.764c0.744-0.42 1.596-0.63 2.556-0.63 0.936 0 1.764 0.204 2.484 0.612s1.272 0.972 1.656 1.692c0.396 0.708 0.594 1.512 0.594 2.412zm-1.692-0.342c0-0.624-0.138-1.158-0.414-1.602-0.276-0.456-0.654-0.798-1.134-1.026-0.468-0.24-0.99-0.36-1.566-0.36-0.828 0-1.536 0.264-2.124 0.792-0.576 0.528-0.906 1.26-0.99 2.196zm19.237 5.652h-1.638l-6.588-9.99v9.99h-1.638v-12.564h1.638l6.588 9.972v-9.972h1.638zm7.455 0.162c-0.924 0-1.764-0.21-2.52-0.63-0.744-0.42-1.332-1.014-1.764-1.782-0.42-0.78-0.63-1.68-0.63-2.7 0-1.008 0.216-1.896 0.648-2.664 0.444-0.78 1.044-1.374 1.8-1.782 0.756-0.42 1.602-0.63 2.538-0.63s1.782 0.21 2.538 0.63c0.756 0.408 1.35 0.996 1.782 1.764 0.444 0.768 0.666 1.662 0.666 2.682s-0.228 1.92-0.684 2.7c-0.444 0.768-1.05 1.362-1.818 1.782s-1.62 0.63-2.556 0.63zm0-1.44c0.588 0 1.14-0.138 1.656-0.414s0.93-0.69 1.242-1.242c0.324-0.552 0.486-1.224 0.486-2.016s-0.156-1.464-0.468-2.016-0.72-0.96-1.224-1.224c-0.504-0.276-1.05-0.414-1.638-0.414-0.6 0-1.152 0.138-1.656 0.414-0.492 0.264-0.888 0.672-1.188 1.224s-0.45 1.224-0.45 2.016c0 0.804 0.144 1.482 0.432 2.034 0.3 0.552 0.696 0.966 1.188 1.242 0.492 0.264 1.032 0.396 1.62 0.396zm8.093 1.386c-0.312 0-0.576-0.108-0.792-0.324s-0.324-0.48-0.324-0.792 0.108-0.576 0.324-0.792 0.48-0.324 0.792-0.324c0.3 0 0.552 0.108 0.756 0.324 0.216 0.216 0.324 0.48 0.324 0.792s-0.108 0.576-0.324 0.792c-0.204 0.216-0.456 0.324-0.756 0.324zm2.916-11.628v-1.494h3.384v13.014h-1.656v-11.52zm6.521 1.782c0.084-1.104 0.51-1.968 1.278-2.592s1.764-0.936 2.988-0.936c0.816 0 1.518 0.15 2.106 0.45 0.6 0.288 1.05 0.684 1.35 1.188 0.312 0.504 0.468 1.074 0.468 1.71 0 0.744-0.216 1.386-0.648 1.926-0.42 0.54-0.972 0.888-1.656 1.044v0.09c0.78 0.192 1.398 0.57 1.854 1.134s0.684 1.302 0.684 2.214c0 0.684-0.156 1.302-0.468 1.854-0.312 0.54-0.78 0.966-1.404 1.278s-1.374 0.468-2.25 0.468c-1.272 0-2.316-0.33-3.132-0.99-0.816-0.672-1.272-1.62-1.368-2.844h1.584c0.084 0.72 0.378 1.308 0.882 1.764s1.176 0.684 2.016 0.684 1.476-0.216 1.908-0.648c0.444-0.444 0.666-1.014 0.666-1.71 0-0.9-0.3-1.548-0.9-1.944s-1.506-0.594-2.718-0.594h-0.414v-1.368h0.432c1.104-0.012 1.938-0.192 2.502-0.54 0.564-0.36 0.846-0.912 0.846-1.656 0-0.636-0.21-1.146-0.63-1.53-0.408-0.384-0.996-0.576-1.764-0.576-0.744 0-1.344 0.192-1.8 0.576s-0.726 0.9-0.81 1.548zm10.96 0c0.084-1.104 0.51-1.968 1.278-2.592s1.764-0.936 2.988-0.936c0.816 0 1.518 0.15 2.106 0.45 0.6 0.288 1.05 0.684 1.35 1.188 0.312 0.504 0.468 1.074 0.468 1.71 0 0.744-0.216 1.386-0.648 1.926-0.42 0.54-0.972 0.888-1.656 1.044v0.09c0.78 0.192 1.398 0.57 1.854 1.134s0.684 1.302 0.684 2.214c0 0.684-0.156 1.302-0.468 1.854-0.312 0.54-0.78 0.966-1.404 1.278s-1.374 0.468-2.25 0.468c-1.272 0-2.316-0.33-3.132-0.99-0.816-0.672-1.272-1.62-1.368-2.844h1.584c0.084 0.72 0.378 1.308 0.882 1.764s1.176 0.684 2.016 0.684 1.476-0.216 1.908-0.648c0.444-0.444 0.666-1.014 0.666-1.71 0-0.9-0.3-1.548-0.9-1.944s-1.506-0.594-2.718-0.594h-0.414v-1.368h0.432c1.104-0.012 1.938-0.192 2.502-0.54 0.564-0.36 0.846-0.912 0.846-1.656 0-0.636-0.21-1.146-0.63-1.53-0.408-0.384-0.996-0.576-1.764-0.576-0.744 0-1.344 0.192-1.8 0.576s-0.726 0.9-0.81 1.548zm17.385-7.218-4.932 20.016h-1.62l4.914-20.016zm2.099 5.436v-1.494h3.384v13.014h-1.656v-11.52zm6.126 0v-1.494h3.384v13.014h-1.656v-11.52z"/>
  <path d="m172.75 357.45-4.734 12.546h-1.89l-4.734-12.546h1.746l3.942 10.818 3.942-10.818zm1.544 7.578c0-1.008 0.204-1.89 0.612-2.646 0.408-0.768 0.966-1.362 1.674-1.782 0.72-0.42 1.518-0.63 2.394-0.63 0.864 0 1.614 0.186 2.25 0.558s1.11 0.84 1.422 1.404v-1.8h1.656v9.864h-1.656v-1.836c-0.324 0.576-0.81 1.056-1.458 1.44-0.636 0.372-1.38 0.558-2.232 0.558-0.876 0-1.668-0.216-2.376-0.648s-1.266-1.038-1.674-1.818-0.612-1.668-0.612-2.664zm8.352 0.018c0-0.744-0.15-1.392-0.45-1.944s-0.708-0.972-1.224-1.26c-0.504-0.3-1.062-0.45-1.674-0.45s-1.17 0.144-1.674 0.432-0.906 0.708-1.206 1.26-0.45 1.2-0.45 1.944c0 0.756 0.15 1.416 0.45 1.98 0.3 0.552 0.702 0.978 1.206 1.278 0.504 0.288 1.062 0.432 1.674 0.432s1.17-0.144 1.674-0.432c0.516-0.3 0.924-0.726 1.224-1.278 0.3-0.564 0.45-1.218 0.45-1.962zm6.422-8.37v13.32h-1.638v-13.32zm3.998 1.854c-0.312 0-0.576-0.108-0.792-0.324s-0.324-0.48-0.324-0.792 0.108-0.576 0.324-0.792 0.48-0.324 0.792-0.324c0.3 0 0.552 0.108 0.756 0.324 0.216 0.216 0.324 0.48 0.324 0.792s-0.108 0.576-0.324 0.792c-0.204 0.216-0.456 0.324-0.756 0.324zm0.792 1.602v9.864h-1.638v-9.864zm2.539 4.896c0-1.008 0.204-1.89 0.612-2.646 0.408-0.768 0.966-1.362 1.674-1.782 0.72-0.42 1.524-0.63 2.412-0.63 0.768 0 1.482 0.18 2.142 0.54 0.66 0.348 1.164 0.81 1.512 1.386v-5.22h1.656v13.32h-1.656v-1.854c-0.324 0.588-0.804 1.074-1.44 1.458-0.636 0.372-1.38 0.558-2.232 0.558-0.876 0-1.674-0.216-2.394-0.648-0.708-0.432-1.266-1.038-1.674-1.818s-0.612-1.668-0.612-2.664zm8.352 0.018c0-0.744-0.15-1.392-0.45-1.944s-0.708-0.972-1.224-1.26c-0.504-0.3-1.062-0.45-1.674-0.45s-1.17 0.144-1.674 0.432-0.906 0.708-1.206 1.26-0.45 1.2-0.45 1.944c0 0.756 0.15 1.416 0.45 1.98 0.3 0.552 0.702 0.978 1.206 1.278 0.504 0.288 1.062 0.432 1.674 0.432s1.17-0.144 1.674-0.432c0.516-0.3 0.924-0.726 1.224-1.278 0.3-0.564 0.45-1.218 0.45-1.962zm11.941-3.564v5.814c0 0.48 0.102 0.822 0.306 1.026 0.204 0.192 0.558 0.288 1.062 0.288h1.206v1.386h-1.476c-0.912 0-1.596-0.21-2.052-0.63s-0.684-1.11-0.684-2.07v-5.814h-1.278v-1.35h1.278v-2.484h1.638v2.484h2.574v1.35zm5.765-2.952c-0.312 0-0.576-0.108-0.792-0.324s-0.324-0.48-0.324-0.792 0.108-0.576 0.324-0.792 0.48-0.324 0.792-0.324c0.3 0 0.552 0.108 0.756 0.324 0.216 0.216 0.324 0.48 0.324 0.792s-0.108 0.576-0.324 0.792c-0.204 0.216-0.456 0.324-0.756 0.324zm0.792 1.602v9.864h-1.638v-9.864zm4.79-3.456v13.32h-1.638v-13.32zm4.789 0v13.32h-1.638v-13.32zm3.674 13.428c-0.312 0-0.576-0.108-0.792-0.324s-0.324-0.48-0.324-0.792 0.108-0.576 0.324-0.792 0.48-0.324 0.792-0.324c0.3 0 0.552 0.108 0.756 0.324 0.216 0.216 0.324 0.48 0.324 0.792s-0.108 0.576-0.324 0.792c-0.204 0.216-0.456 0.324-0.756 0.324zm0-7.704c-0.312 0-0.576-0.108-0.792-0.324s-0.324-0.48-0.324-0.792 0.108-0.576 0.324-0.792 0.48-0.324 0.792-0.324c0.3 0 0.552 0.108 0.756 0.324 0.216 0.216 0.324 0.48 0.324 0.792s-0.108 0.576-0.324 0.792c-0.204 0.216-0.456 0.324-0.756 0.324zm13.977 7.596-2.34-3.672-2.25 3.672h-1.71l3.186-4.896-3.186-4.968h1.854l2.34 3.654 2.232-3.654h1.71l-3.168 4.878 3.186 4.986zm8.973 0-2.34-3.672-2.25 3.672h-1.71l3.186-4.896-3.186-4.968h1.854l2.34 3.654 2.232-3.654h1.71l-3.168 4.878 3.186 4.986zm4.348 0.108c-0.312 0-0.576-0.108-0.792-0.324s-0.324-0.48-0.324-0.792 0.108-0.576 0.324-0.792 0.48-0.324 0.792-0.324c0.3 0 0.552 0.108 0.756 0.324 0.216 0.216 0.324 0.48 0.324 0.792s-0.108 0.576-0.324 0.792c-0.204 0.216-0.456 0.324-0.756 0.324zm8.765-0.108-2.34-3.672-2.25 3.672h-1.71l3.186-4.896-3.186-4.968h1.854l2.34 3.654 2.232-3.654h1.71l-3.168 4.878 3.186 4.986zm8.973 0-2.34-3.672-2.25 3.672h-1.71l3.186-4.896-3.186-4.968h1.854l2.34 3.654 2.232-3.654h1.71l-3.168 4.878 3.186 4.986zm4.347 0.108c-0.312 0-0.576-0.108-0.792-0.324s-0.324-0.48-0.324-0.792 0.108-0.576 0.324-0.792 0.48-0.324 0.792-0.324c0.3 0 0.552 0.108 0.756 0.324 0.216 0.216 0.324 0.48 0.324 0.792s-0.108 0.576-0.324 0.792c-0.204 0.216-0.456 0.324-0.756 0.324zm8.766-0.108-2.34-3.672-2.25 3.672h-1.71l3.186-4.896-3.186-4.968h1.854l2.34 3.654 2.232-3.654h1.71l-3.168 4.878 3.186 4.986zm8.973 0-2.34-3.672-2.25 3.672h-1.71l3.186-4.896-3.186-4.968h1.854l2.34 3.654 2.232-3.654h1.71l-3.168 4.878 3.186 4.986zm8.973 0-2.34-3.672-2.25 3.672h-1.71l3.186-4.896-3.186-4.968h1.854l2.34 3.654 2.232-3.654h1.71l-3.168 4.878 3.186 4.986zm8.974 0-2.34-3.672-2.25 3.672h-1.71l3.186-4.896-3.186-4.968h1.854l2.34 3.654 2.232-3.654h1.71l-3.168 4.878 3.186 4.986z"/>
  <path d="m1113 62.224h5.86v1.776h-8.04v-16.728h2.18zm16.24 1.944c-1.55 0-2.97-0.36-4.25-1.08-1.28-0.736-2.29-1.752-3.04-3.048-0.74-1.312-1.11-2.784-1.11-4.416s0.37-3.096 1.11-4.392c0.75-1.312 1.76-2.328 3.04-3.048 1.28-0.736 2.7-1.104 4.25-1.104 1.57 0 2.99 0.368 4.27 1.104 1.28 0.72 2.29 1.728 3.03 3.024 0.73 1.296 1.1 2.768 1.1 4.416s-0.37 3.12-1.1 4.416c-0.74 1.296-1.75 2.312-3.03 3.048-1.28 0.72-2.7 1.08-4.27 1.08zm0-1.896c1.17 0 2.22-0.272 3.15-0.816 0.94-0.544 1.68-1.32 2.2-2.328 0.55-1.008 0.82-2.176 0.82-3.504 0-1.344-0.27-2.512-0.82-3.504-0.52-1.008-1.25-1.784-2.18-2.328s-1.98-0.816-3.17-0.816c-1.18 0-2.24 0.272-3.17 0.816-0.92 0.544-1.66 1.32-2.2 2.328-0.53 0.992-0.8 2.16-0.8 3.504 0 1.328 0.27 2.496 0.8 3.504 0.54 1.008 1.28 1.784 2.2 2.328 0.95 0.544 2 0.816 3.17 0.816zm24.44-10.152c-0.47-0.976-1.14-1.728-2.02-2.256-0.88-0.544-1.9-0.816-3.07-0.816s-2.23 0.272-3.17 0.816c-0.93 0.528-1.66 1.296-2.21 2.304-0.53 0.992-0.79 2.144-0.79 3.456s0.26 2.464 0.79 3.456c0.55 0.992 1.28 1.76 2.21 2.304 0.94 0.528 2 0.792 3.17 0.792 1.63 0 2.97-0.488 4.03-1.464s1.67-2.296 1.85-3.96h-6.67v-1.776h9v1.68c-0.13 1.376-0.56 2.64-1.3 3.792-0.74 1.136-1.7 2.04-2.9 2.712-1.2 0.656-2.54 0.984-4.01 0.984-1.55 0-2.97-0.36-4.25-1.08-1.28-0.736-2.3-1.752-3.05-3.048-0.73-1.296-1.1-2.76-1.1-4.392s0.37-3.096 1.1-4.392c0.75-1.312 1.77-2.328 3.05-3.048 1.28-0.736 2.7-1.104 4.25-1.104 1.77 0 3.34 0.44 4.7 1.32 1.38 0.88 2.38 2.12 3 3.72zm14.07 12.048c-1.55 0-2.97-0.36-4.25-1.08-1.28-0.736-2.3-1.752-3.05-3.048-0.73-1.312-1.1-2.784-1.1-4.416s0.37-3.096 1.1-4.392c0.75-1.312 1.77-2.328 3.05-3.048 1.28-0.736 2.7-1.104 4.25-1.104 1.57 0 2.99 0.368 4.27 1.104 1.28 0.72 2.29 1.728 3.02 3.024 0.74 1.296 1.11 2.768 1.11 4.416s-0.37 3.12-1.11 4.416c-0.73 1.296-1.74 2.312-3.02 3.048-1.28 0.72-2.7 1.08-4.27 1.08zm0-1.896c1.17 0 2.21-0.272 3.14-0.816 0.95-0.544 1.68-1.32 2.21-2.328 0.54-1.008 0.82-2.176 0.82-3.504 0-1.344-0.28-2.512-0.82-3.504-0.53-1.008-1.26-1.784-2.18-2.328-0.93-0.544-1.99-0.816-3.17-0.816-1.19 0-2.24 0.272-3.17 0.816s-1.66 1.32-2.21 2.328c-0.53 0.992-0.79 2.16-0.79 3.504 0 1.328 0.26 2.496 0.79 3.504 0.55 1.008 1.28 1.784 2.21 2.328 0.94 0.544 2 0.816 3.17 0.816zm-54.75 35.952h5.86v1.776h-8.04v-16.728h2.18zm16.24 1.944c-1.55 0-2.97-0.36-4.25-1.08-1.28-0.736-2.29-1.752-3.04-3.048-0.74-1.312-1.11-2.784-1.11-4.416s0.37-3.096 1.11-4.392c0.75-1.312 1.76-2.328 3.04-3.048 1.28-0.736 2.7-1.104 4.25-1.104 1.57 0 2.99 0.368 4.27 1.104 1.28 0.72 2.29 1.728 3.03 3.024 0.73 1.296 1.1 2.768 1.1 4.416s-0.37 3.12-1.1 4.416c-0.74 1.296-1.75 2.312-3.03 3.048-1.28 0.72-2.7 1.08-4.27 1.08zm0-1.896c1.17 0 2.22-0.272 3.15-0.816 0.94-0.544 1.68-1.32 2.2-2.328 0.55-1.008 0.82-2.176 0.82-3.504 0-1.344-0.27-2.512-0.82-3.504-0.52-1.008-1.25-1.784-2.18-2.328s-1.98-0.816-3.17-0.816c-1.18 0-2.24 0.272-3.17 0.816-0.92 0.544-1.66 1.32-2.2 2.328-0.53 0.992-0.8 2.16-0.8 3.504 0 1.328 0.27 2.496 0.8 3.504 0.54 1.008 1.28 1.784 2.2 2.328 0.95 0.544 2 0.816 3.17 0.816zm24.44-10.152c-0.47-0.976-1.14-1.728-2.02-2.256-0.88-0.544-1.9-0.816-3.07-0.816s-2.23 0.272-3.17 0.816c-0.93 0.528-1.66 1.296-2.21 2.304-0.53 0.992-0.79 2.144-0.79 3.456s0.26 2.464 0.79 3.456c0.55 0.992 1.28 1.76 2.21 2.304 0.94 0.528 2 0.792 3.17 0.792 1.63 0 2.97-0.488 4.03-1.464s1.67-2.296 1.85-3.96h-6.67v-1.776h9v1.68c-0.13 1.376-0.56 2.64-1.3 3.792-0.74 1.136-1.7 2.04-2.9 2.712-1.2 0.656-2.54 0.984-4.01 0.984-1.55 0-2.97-0.36-4.25-1.08-1.28-0.736-2.3-1.752-3.05-3.048-0.73-1.296-1.1-2.76-1.1-4.392s0.37-3.096 1.1-4.392c0.75-1.312 1.77-2.328 3.05-3.048 1.28-0.736 2.7-1.104 4.25-1.104 1.77 0 3.34 0.44 4.7 1.32 1.38 0.88 2.38 2.12 3 3.72zm14.07 12.048c-1.55 0-2.97-0.36-4.25-1.08-1.28-0.736-2.3-1.752-3.05-3.048-0.73-1.312-1.1-2.784-1.1-4.416s0.37-3.096 1.1-4.392c0.75-1.312 1.77-2.328 3.05-3.048 1.28-0.736 2.7-1.104 4.25-1.104 1.57 0 2.99 0.368 4.27 1.104 1.28 0.72 2.29 1.728 3.02 3.024 0.74 1.296 1.11 2.768 1.11 4.416s-0.37 3.12-1.11 4.416c-0.73 1.296-1.74 2.312-3.02 3.048-1.28 0.72-2.7 1.08-4.27 1.08zm0-1.896c1.17 0 2.21-0.272 3.14-0.816 0.95-0.544 1.68-1.32 2.21-2.328 0.54-1.008 0.82-2.176 0.82-3.504 0-1.344-0.28-2.512-0.82-3.504-0.53-1.008-1.26-1.784-2.18-2.328-0.93-0.544-1.99-0.816-3.17-0.816-1.19 0-2.24 0.272-3.17 0.816s-1.66 1.32-2.21 2.328c-0.53 0.992-0.79 2.16-0.79 3.504 0 1.328 0.26 2.496 0.79 3.504 0.55 1.008 1.28 1.784 2.21 2.328 0.94 0.544 2 0.816 3.17 0.816z"/>
  <path d="m841.03 326.27v16.728h-2.184v-16.728zm8.858 16.944c-1.008 0-1.912-0.168-2.712-0.504-0.8-0.352-1.432-0.832-1.896-1.44-0.464-0.624-0.72-1.336-0.768-2.136h2.256c0.064 0.656 0.368 1.192 0.912 1.608 0.56 0.416 1.288 0.624 2.184 0.624 0.832 0 1.488-0.184 1.968-0.552s0.72-0.832 0.72-1.392c0-0.576-0.256-1-0.768-1.272-0.512-0.288-1.304-0.568-2.376-0.84-0.976-0.256-1.776-0.512-2.4-0.768-0.608-0.272-1.136-0.664-1.584-1.176-0.432-0.528-0.648-1.216-0.648-2.064 0-0.672 0.2-1.288 0.6-1.848s0.968-1 1.704-1.32c0.736-0.336 1.576-0.504 2.52-0.504 1.456 0 2.632 0.368 3.528 1.104s1.376 1.744 1.44 3.024h-2.184c-0.048-0.688-0.328-1.24-0.84-1.656-0.496-0.416-1.168-0.624-2.016-0.624-0.784 0-1.408 0.168-1.872 0.504s-0.696 0.776-0.696 1.32c0 0.432 0.136 0.792 0.408 1.08 0.288 0.272 0.64 0.496 1.056 0.672 0.432 0.16 1.024 0.344 1.776 0.552 0.944 0.256 1.712 0.512 2.304 0.768 0.592 0.24 1.096 0.608 1.512 1.104 0.432 0.496 0.656 1.144 0.672 1.944 0 0.72-0.2 1.368-0.6 1.944s-0.968 1.032-1.704 1.368c-0.72 0.32-1.552 0.48-2.496 0.48zm13.019 0c-1.008 0-1.912-0.168-2.712-0.504-0.8-0.352-1.432-0.832-1.896-1.44-0.464-0.624-0.72-1.336-0.768-2.136h2.256c0.064 0.656 0.368 1.192 0.912 1.608 0.56 0.416 1.288 0.624 2.184 0.624 0.832 0 1.488-0.184 1.968-0.552s0.72-0.832 0.72-1.392c0-0.576-0.256-1-0.768-1.272-0.512-0.288-1.304-0.568-2.376-0.84-0.976-0.256-1.776-0.512-2.4-0.768-0.608-0.272-1.136-0.664-1.584-1.176-0.432-0.528-0.648-1.216-0.648-2.064 0-0.672 0.2-1.288 0.6-1.848s0.968-1 1.704-1.32c0.736-0.336 1.576-0.504 2.52-0.504 1.456 0 2.632 0.368 3.528 1.104s1.376 1.744 1.44 3.024h-2.184c-0.048-0.688-0.328-1.24-0.84-1.656-0.496-0.416-1.168-0.624-2.016-0.624-0.784 0-1.408 0.168-1.872 0.504s-0.696 0.776-0.696 1.32c0 0.432 0.136 0.792 0.408 1.08 0.288 0.272 0.64 0.496 1.056 0.672 0.432 0.16 1.024 0.344 1.776 0.552 0.944 0.256 1.712 0.512 2.304 0.768 0.592 0.24 1.096 0.608 1.512 1.104 0.432 0.496 0.656 1.144 0.672 1.944 0 0.72-0.2 1.368-0.6 1.944s-0.968 1.032-1.704 1.368c-0.72 0.32-1.552 0.48-2.496 0.48zm20.027-13.368v13.152h-2.184v-1.944c-0.416 0.672-1 1.2-1.752 1.584-0.736 0.368-1.552 0.552-2.448 0.552-1.024 0-1.944-0.208-2.76-0.624-0.816-0.432-1.464-1.072-1.944-1.92-0.464-0.848-0.696-1.88-0.696-3.096v-7.704h2.16v7.416c0 1.296 0.328 2.296 0.984 3 0.656 0.688 1.552 1.032 2.688 1.032 1.168 0 2.088-0.36 2.76-1.08s1.008-1.768 1.008-3.144v-7.224zm16.168 6.072c0 0.416-0.024 0.856-0.072 1.32h-10.512c0.08 1.296 0.52 2.312 1.32 3.048 0.816 0.72 1.8 1.08 2.952 1.08 0.944 0 1.728-0.216 2.352-0.648 0.64-0.448 1.088-1.04 1.344-1.776h2.352c-0.352 1.264-1.056 2.296-2.112 3.096-1.056 0.784-2.368 1.176-3.936 1.176-1.248 0-2.368-0.28-3.36-0.84-0.976-0.56-1.744-1.352-2.304-2.376-0.56-1.04-0.84-2.24-0.84-3.6s0.272-2.552 0.816-3.576 1.304-1.808 2.28-2.352c0.992-0.56 2.128-0.84 3.408-0.84 1.248 0 2.352 0.272 3.312 0.816s1.696 1.296 2.208 2.256c0.528 0.944 0.792 2.016 0.792 3.216zm-2.256-0.456c0-0.832-0.184-1.544-0.552-2.136-0.368-0.608-0.872-1.064-1.512-1.368-0.624-0.32-1.32-0.48-2.088-0.48-1.104 0-2.048 0.352-2.832 1.056-0.768 0.704-1.208 1.68-1.32 2.928zm4.803 0.912c0-1.344 0.272-2.52 0.816-3.528 0.544-1.024 1.288-1.816 2.232-2.376 0.96-0.56 2.032-0.84 3.216-0.84 1.024 0 1.976 0.24 2.856 0.72 0.88 0.464 1.552 1.08 2.016 1.848v-6.96h2.208v17.76h-2.208v-2.472c-0.432 0.784-1.072 1.432-1.92 1.944-0.848 0.496-1.84 0.744-2.976 0.744-1.168 0-2.232-0.288-3.192-0.864-0.944-0.576-1.688-1.384-2.232-2.424s-0.816-2.224-0.816-3.552zm11.136 0.024c0-0.992-0.2-1.856-0.6-2.592s-0.944-1.296-1.632-1.68c-0.672-0.4-1.416-0.6-2.232-0.6s-1.56 0.192-2.232 0.576-1.208 0.944-1.608 1.68-0.6 1.6-0.6 2.592c0 1.008 0.2 1.888 0.6 2.64 0.4 0.736 0.936 1.304 1.608 1.704 0.672 0.384 1.416 0.576 2.232 0.576s1.56-0.192 2.232-0.576c0.688-0.4 1.232-0.968 1.632-1.704 0.4-0.752 0.6-1.624 0.6-2.616zm15.441-4.104c0.448-0.784 1.104-1.424 1.968-1.92s1.848-0.744 2.952-0.744c1.184 0 2.248 0.28 3.192 0.84s1.688 1.352 2.232 2.376c0.544 1.008 0.816 2.184 0.816 3.528 0 1.328-0.272 2.512-0.816 3.552s-1.296 1.848-2.256 2.424c-0.944 0.576-2 0.864-3.168 0.864-1.136 0-2.136-0.248-3-0.744-0.848-0.496-1.488-1.128-1.92-1.896v2.424h-2.184v-17.76h2.184zm8.928 4.08c0-0.992-0.2-1.856-0.6-2.592s-0.944-1.296-1.632-1.68c-0.672-0.384-1.416-0.576-2.232-0.576-0.8 0-1.544 0.2-2.232 0.6-0.672 0.384-1.216 0.952-1.632 1.704-0.4 0.736-0.6 1.592-0.6 2.568 0 0.992 0.2 1.864 0.6 2.616 0.416 0.736 0.96 1.304 1.632 1.704 0.688 0.384 1.432 0.576 2.232 0.576 0.816 0 1.56-0.192 2.232-0.576 0.688-0.4 1.232-0.968 1.632-1.704 0.4-0.752 0.6-1.632 0.6-2.64zm16.915-6.528-7.92 19.344h-2.256l2.592-6.336-5.304-13.008h2.424l4.128 10.656 4.08-10.656zm8.738 4.776c0-1.632 0.368-3.096 1.104-4.392 0.736-1.312 1.736-2.336 3-3.072 1.28-0.736 2.696-1.104 4.248-1.104 1.824 0 3.416 0.44 4.776 1.32s2.352 2.128 2.976 3.744h-2.616c-0.464-1.008-1.136-1.784-2.016-2.328-0.864-0.544-1.904-0.816-3.12-0.816-1.168 0-2.216 0.272-3.144 0.816s-1.656 1.32-2.184 2.328c-0.528 0.992-0.792 2.16-0.792 3.504 0 1.328 0.264 2.496 0.792 3.504 0.528 0.992 1.256 1.76 2.184 2.304s1.976 0.816 3.144 0.816c1.216 0 2.256-0.264 3.12-0.792 0.88-0.544 1.552-1.32 2.016-2.328h2.616c-0.624 1.6-1.616 2.84-2.976 3.72-1.36 0.864-2.952 1.296-4.776 1.296-1.552 0-2.968-0.36-4.248-1.08-1.264-0.736-2.264-1.752-3-3.048s-1.104-2.76-1.104-4.392zm29.291-8.352v1.776h-7.272v5.64h5.904v1.776h-5.904v7.536h-2.184v-16.728zm5.301 0v16.728h-2.184v-16.728zm-153.34 36c1.824 0 3.4 0.344 4.728 1.032 1.344 0.672 2.368 1.64 3.072 2.904 0.72 1.264 1.08 2.752 1.08 4.464s-0.36 3.2-1.08 4.464c-0.704 1.248-1.728 2.208-3.072 2.88-1.328 0.656-2.904 0.984-4.728 0.984h-5.208v-16.728zm0 14.928c2.16 0 3.808-0.568 4.944-1.704 1.136-1.152 1.704-2.76 1.704-4.824 0-2.08-0.576-3.704-1.728-4.872-1.136-1.168-2.776-1.752-4.92-1.752h-3.024v13.152zm13.369-13.488c-0.416 0-0.768-0.144-1.056-0.432s-0.432-0.64-0.432-1.056 0.144-0.768 0.432-1.056 0.64-0.432 1.056-0.432c0.4 0 0.736 0.144 1.008 0.432 0.288 0.288 0.432 0.64 0.432 1.056s-0.144 0.768-0.432 1.056c-0.272 0.288-0.608 0.432-1.008 0.432zm1.056 2.136v13.152h-2.184v-13.152zm6.386 2.136c0.384-0.752 0.928-1.336 1.632-1.752 0.72-0.416 1.592-0.624 2.616-0.624v2.256h-0.576c-2.448 0-3.672 1.328-3.672 3.984v7.152h-2.184v-13.152h2.184zm19.249 3.936c0 0.416-0.024 0.856-0.072 1.32h-10.512c0.08 1.296 0.52 2.312 1.32 3.048 0.816 0.72 1.8 1.08 2.952 1.08 0.944 0 1.728-0.216 2.352-0.648 0.64-0.448 1.088-1.04 1.344-1.776h2.352c-0.352 1.264-1.056 2.296-2.112 3.096-1.056 0.784-2.368 1.176-3.936 1.176-1.248 0-2.368-0.28-3.36-0.84-0.976-0.56-1.744-1.352-2.304-2.376-0.56-1.04-0.84-2.24-0.84-3.6s0.272-2.552 0.816-3.576 1.304-1.808 2.28-2.352c0.992-0.56 2.128-0.84 3.408-0.84 1.248 0 2.352 0.272 3.312 0.816s1.696 1.296 2.208 2.256c0.528 0.944 0.792 2.016 0.792 3.216zm-2.256-0.456c0-0.832-0.184-1.544-0.552-2.136-0.368-0.608-0.872-1.064-1.512-1.368-0.624-0.32-1.32-0.48-2.088-0.48-1.104 0-2.048 0.352-2.832 1.056-0.768 0.704-1.208 1.68-1.32 2.928zm4.803 0.936c0-1.36 0.272-2.544 0.816-3.552 0.544-1.024 1.296-1.816 2.256-2.376 0.976-0.56 2.088-0.84 3.336-0.84 1.616 0 2.944 0.392 3.984 1.176 1.056 0.784 1.752 1.872 2.088 3.264h-2.352c-0.224-0.8-0.664-1.432-1.32-1.896-0.64-0.464-1.44-0.696-2.4-0.696-1.248 0-2.256 0.432-3.024 1.296-0.768 0.848-1.152 2.056-1.152 3.624 0 1.584 0.384 2.808 1.152 3.672s1.776 1.296 3.024 1.296c0.96 0 1.76-0.224 2.4-0.672s1.08-1.088 1.32-1.92h2.352c-0.352 1.344-1.056 2.424-2.112 3.24-1.056 0.8-2.376 1.2-3.96 1.2-1.248 0-2.36-0.28-3.336-0.84-0.96-0.56-1.712-1.352-2.256-2.376s-0.816-2.224-0.816-3.6zm18.538-4.752v7.752c0 0.64 0.136 1.096 0.408 1.368 0.272 0.256 0.744 0.384 1.416 0.384h1.608v1.848h-1.968c-1.216 0-2.128-0.28-2.736-0.84s-0.912-1.48-0.912-2.76v-7.752h-1.704v-1.8h1.704v-3.312h2.184v3.312h3.432v1.8zm12.294 11.568c-1.232 0-2.352-0.28-3.36-0.84-0.992-0.56-1.776-1.352-2.352-2.376-0.56-1.04-0.84-2.24-0.84-3.6 0-1.344 0.288-2.528 0.864-3.552 0.592-1.04 1.392-1.832 2.4-2.376 1.008-0.56 2.136-0.84 3.384-0.84s2.376 0.28 3.384 0.84c1.008 0.544 1.8 1.328 2.376 2.352 0.592 1.024 0.888 2.216 0.888 3.576s-0.304 2.56-0.912 3.6c-0.592 1.024-1.4 1.816-2.424 2.376s-2.16 0.84-3.408 0.84zm0-1.92c0.784 0 1.52-0.184 2.208-0.552s1.24-0.92 1.656-1.656c0.432-0.736 0.648-1.632 0.648-2.688s-0.208-1.952-0.624-2.688-0.96-1.28-1.632-1.632c-0.672-0.368-1.4-0.552-2.184-0.552-0.8 0-1.536 0.184-2.208 0.552-0.656 0.352-1.184 0.896-1.584 1.632s-0.6 1.632-0.6 2.688c0 1.072 0.192 1.976 0.576 2.712 0.4 0.736 0.928 1.288 1.584 1.656 0.656 0.352 1.376 0.528 2.16 0.528zm12.28-9.312c0.384-0.752 0.928-1.336 1.632-1.752 0.72-0.416 1.592-0.624 2.616-0.624v2.256h-0.576c-2.448 0-3.672 1.328-3.672 3.984v7.152h-2.184v-13.152h2.184zm7.945 11.16c-0.416 0-0.768-0.144-1.056-0.432s-0.432-0.64-0.432-1.056 0.144-0.768 0.432-1.056 0.64-0.432 1.056-0.432c0.4 0 0.736 0.144 1.008 0.432 0.288 0.288 0.432 0.64 0.432 1.056s-0.144 0.768-0.432 1.056c-0.272 0.288-0.608 0.432-1.008 0.432zm0-10.272c-0.416 0-0.768-0.144-1.056-0.432s-0.432-0.64-0.432-1.056 0.144-0.768 0.432-1.056 0.64-0.432 1.056-0.432c0.4 0 0.736 0.144 1.008 0.432 0.288 0.288 0.432 0.64 0.432 1.056s-0.144 0.768-0.432 1.056c-0.272 0.288-0.608 0.432-1.008 0.432zm17.076 10.296c-1.104 0-2.096-0.192-2.976-0.576-0.864-0.4-1.544-0.944-2.04-1.632-0.496-0.704-0.752-1.512-0.768-2.424h2.328c0.08 0.784 0.4 1.448 0.96 1.992 0.576 0.528 1.408 0.792 2.496 0.792 1.04 0 1.856-0.256 2.448-0.768 0.608-0.528 0.912-1.2 0.912-2.016 0-0.64-0.176-1.16-0.528-1.56s-0.792-0.704-1.32-0.912-1.24-0.432-2.136-0.672c-1.104-0.288-1.992-0.576-2.664-0.864-0.656-0.288-1.224-0.736-1.704-1.344-0.464-0.624-0.696-1.456-0.696-2.496 0-0.912 0.232-1.72 0.696-2.424s1.112-1.248 1.944-1.632c0.848-0.384 1.816-0.576 2.904-0.576 1.568 0 2.848 0.392 3.84 1.176 1.008 0.784 1.576 1.824 1.704 3.12h-2.4c-0.08-0.64-0.416-1.2-1.008-1.68-0.592-0.496-1.376-0.744-2.352-0.744-0.912 0-1.656 0.24-2.232 0.72-0.576 0.464-0.864 1.12-0.864 1.968 0 0.608 0.168 1.104 0.504 1.488 0.352 0.384 0.776 0.68 1.272 0.888 0.512 0.192 1.224 0.416 2.136 0.672 1.104 0.304 1.992 0.608 2.664 0.912 0.672 0.288 1.248 0.744 1.728 1.368 0.48 0.608 0.72 1.44 0.72 2.496 0 0.816-0.216 1.584-0.648 2.304s-1.072 1.304-1.92 1.752-1.848 0.672-3 0.672zm10.39-15.456c-0.416 0-0.768-0.144-1.056-0.432s-0.432-0.64-0.432-1.056 0.144-0.768 0.432-1.056 0.64-0.432 1.056-0.432c0.4 0 0.736 0.144 1.008 0.432 0.288 0.288 0.432 0.64 0.432 1.056s-0.144 0.768-0.432 1.056c-0.272 0.288-0.608 0.432-1.008 0.432zm1.056 2.136v13.152h-2.184v-13.152zm9.626-0.216c1.136 0 2.128 0.248 2.976 0.744 0.864 0.496 1.504 1.12 1.92 1.872v-2.4h2.208v13.44c0 1.2-0.256 2.264-0.768 3.192-0.512 0.944-1.248 1.68-2.208 2.208-0.944 0.528-2.048 0.792-3.312 0.792-1.728 0-3.168-0.408-4.32-1.224s-1.832-1.928-2.04-3.336h2.16c0.24 0.8 0.736 1.44 1.488 1.92 0.752 0.496 1.656 0.744 2.712 0.744 1.2 0 2.176-0.376 2.928-1.128 0.768-0.752 1.152-1.808 1.152-3.168v-2.76c-0.432 0.768-1.072 1.408-1.92 1.92s-1.84 0.768-2.976 0.768c-1.168 0-2.232-0.288-3.192-0.864-0.944-0.576-1.688-1.384-2.232-2.424s-0.816-2.224-0.816-3.552c0-1.344 0.272-2.52 0.816-3.528 0.544-1.024 1.288-1.816 2.232-2.376 0.96-0.56 2.024-0.84 3.192-0.84zm4.896 6.768c0-0.992-0.2-1.856-0.6-2.592s-0.944-1.296-1.632-1.68c-0.672-0.4-1.416-0.6-2.232-0.6s-1.56 0.192-2.232 0.576-1.208 0.944-1.608 1.68-0.6 1.6-0.6 2.592c0 1.008 0.2 1.888 0.6 2.64 0.4 0.736 0.936 1.304 1.608 1.704 0.672 0.384 1.416 0.576 2.232 0.576s1.56-0.192 2.232-0.576c0.688-0.4 1.232-0.968 1.632-1.704 0.4-0.752 0.6-1.624 0.6-2.616zm12.787-6.792c1.6 0 2.896 0.488 3.888 1.464 0.992 0.96 1.488 2.352 1.488 4.176v7.752h-2.16v-7.44c0-1.312-0.328-2.312-0.984-3-0.656-0.704-1.552-1.056-2.688-1.056-1.152 0-2.072 0.36-2.76 1.08-0.672 0.72-1.008 1.768-1.008 3.144v7.272h-2.184v-13.152h2.184v1.872c0.432-0.672 1.016-1.192 1.752-1.56 0.752-0.368 1.576-0.552 2.472-0.552zm8.609 6.768c0-1.344 0.27-2.52 0.81-3.528 0.55-1.024 1.29-1.816 2.24-2.376 0.96-0.56 2.02-0.84 3.19-0.84 1.15 0 2.15 0.248 3 0.744s1.48 1.12 1.89 1.872v-2.4h2.21v13.152h-2.21v-2.448c-0.43 0.768-1.08 1.408-1.94 1.92-0.85 0.496-1.84 0.744-2.98 0.744-1.16 0-2.22-0.288-3.16-0.864-0.95-0.576-1.69-1.384-2.24-2.424-0.54-1.04-0.81-2.224-0.81-3.552zm11.13 0.024c0-0.992-0.2-1.856-0.6-2.592s-0.94-1.296-1.63-1.68c-0.67-0.4-1.41-0.6-2.23-0.6s-1.56 0.192-2.23 0.576-1.21 0.944-1.61 1.68-0.6 1.6-0.6 2.592c0 1.008 0.2 1.888 0.6 2.64 0.4 0.736 0.94 1.304 1.61 1.704 0.67 0.384 1.41 0.576 2.23 0.576s1.56-0.192 2.23-0.576c0.69-0.4 1.23-0.968 1.63-1.704 0.4-0.752 0.6-1.624 0.6-2.616zm9.05-4.752v7.752c0 0.64 0.13 1.096 0.4 1.368 0.28 0.256 0.75 0.384 1.42 0.384h1.61v1.848h-1.97c-1.22 0-2.13-0.28-2.74-0.84-0.6-0.56-0.91-1.48-0.91-2.76v-7.752h-1.7v-1.8h1.7v-3.312h2.19v3.312h3.43v1.8zm18.22-1.8v13.152h-2.18v-1.944c-0.42 0.672-1 1.2-1.76 1.584-0.73 0.368-1.55 0.552-2.44 0.552-1.03 0-1.95-0.208-2.76-0.624-0.82-0.432-1.47-1.072-1.95-1.92-0.46-0.848-0.69-1.88-0.69-3.096v-7.704h2.16v7.416c0 1.296 0.32 2.296 0.98 3 0.66 0.688 1.55 1.032 2.69 1.032 1.17 0 2.09-0.36 2.76-1.08s1.01-1.768 1.01-3.144v-7.224zm6.35 2.136c0.38-0.752 0.93-1.336 1.63-1.752 0.72-0.416 1.59-0.624 2.62-0.624v2.256h-0.58c-2.45 0-3.67 1.328-3.67 3.984v7.152h-2.18v-13.152h2.18zm19.25 3.936c0 0.416-0.02 0.856-0.07 1.32h-10.51c0.08 1.296 0.52 2.312 1.32 3.048 0.81 0.72 1.8 1.08 2.95 1.08 0.94 0 1.73-0.216 2.35-0.648 0.64-0.448 1.09-1.04 1.34-1.776h2.36c-0.36 1.264-1.06 2.296-2.12 3.096-1.05 0.784-2.36 1.176-3.93 1.176-1.25 0-2.37-0.28-3.36-0.84-0.98-0.56-1.75-1.352-2.31-2.376-0.56-1.04-0.84-2.24-0.84-3.6s0.28-2.552 0.82-3.576 1.3-1.808 2.28-2.352c0.99-0.56 2.13-0.84 3.41-0.84 1.25 0 2.35 0.272 3.31 0.816s1.7 1.296 2.21 2.256c0.53 0.944 0.79 2.016 0.79 3.216zm-2.26-0.456c0-0.832-0.18-1.544-0.55-2.136-0.37-0.608-0.87-1.064-1.51-1.368-0.62-0.32-1.32-0.48-2.09-0.48-1.1 0-2.05 0.352-2.83 1.056-0.77 0.704-1.21 1.68-1.32 2.928zm20.66-15.072-6.57 26.688h-2.16l6.55-26.688zm27.58 6v16.608h-2.18v-12.384l-5.52 12.384h-1.54l-5.54-12.408v12.408h-2.19v-16.608h2.36l6.14 13.728 6.14-13.728zm4.88 16.752c-0.41 0-0.77-0.144-1.05-0.432-0.29-0.288-0.44-0.64-0.44-1.056s0.15-0.768 0.44-1.056c0.28-0.288 0.64-0.432 1.05-0.432 0.4 0 0.74 0.144 1.01 0.432 0.29 0.288 0.43 0.64 0.43 1.056s-0.14 0.768-0.43 1.056c-0.27 0.288-0.61 0.432-1.01 0.432zm10.13 0.024c-1.11 0-2.1-0.192-2.98-0.576-0.86-0.4-1.54-0.944-2.04-1.632-0.49-0.704-0.75-1.512-0.77-2.424h2.33c0.08 0.784 0.4 1.448 0.96 1.992 0.58 0.528 1.41 0.792 2.5 0.792 1.04 0 1.85-0.256 2.45-0.768 0.6-0.528 0.91-1.2 0.91-2.016 0-0.64-0.18-1.16-0.53-1.56s-0.79-0.704-1.32-0.912-1.24-0.432-2.14-0.672c-1.1-0.288-1.99-0.576-2.66-0.864-0.66-0.288-1.22-0.736-1.7-1.344-0.47-0.624-0.7-1.456-0.7-2.496 0-0.912 0.23-1.72 0.7-2.424 0.46-0.704 1.11-1.248 1.94-1.632 0.85-0.384 1.82-0.576 2.9-0.576 1.57 0 2.85 0.392 3.84 1.176 1.01 0.784 1.58 1.824 1.71 3.12h-2.4c-0.08-0.64-0.42-1.2-1.01-1.68-0.59-0.496-1.38-0.744-2.35-0.744-0.91 0-1.66 0.24-2.23 0.72-0.58 0.464-0.87 1.12-0.87 1.968 0 0.608 0.17 1.104 0.51 1.488 0.35 0.384 0.77 0.68 1.27 0.888 0.51 0.192 1.22 0.416 2.13 0.672 1.11 0.304 2 0.608 2.67 0.912 0.67 0.288 1.25 0.744 1.73 1.368 0.48 0.608 0.72 1.44 0.72 2.496 0 0.816-0.22 1.584-0.65 2.304s-1.07 1.304-1.92 1.752-1.85 0.672-3 0.672zm25.08-13.56c1.02 0 1.93 0.216 2.73 0.648 0.8 0.416 1.43 1.048 1.9 1.896 0.46 0.848 0.69 1.88 0.69 3.096v7.752h-2.16v-7.44c0-1.312-0.32-2.312-0.98-3-0.64-0.704-1.51-1.056-2.62-1.056-1.13 0-2.04 0.368-2.71 1.104-0.67 0.72-1.01 1.768-1.01 3.144v7.248h-2.16v-7.44c0-1.312-0.32-2.312-0.98-3-0.64-0.704-1.51-1.056-2.62-1.056-1.13 0-2.04 0.368-2.71 1.104-0.67 0.72-1.01 1.768-1.01 3.144v7.248h-2.18v-13.152h2.18v1.896c0.44-0.688 1.01-1.216 1.73-1.584 0.74-0.368 1.55-0.552 2.43-0.552 1.1 0 2.08 0.248 2.92 0.744 0.85 0.496 1.48 1.224 1.9 2.184 0.37-0.928 0.98-1.648 1.82-2.16 0.85-0.512 1.8-0.768 2.84-0.768zm10.52-1.896c-0.42 0-0.77-0.144-1.06-0.432s-0.43-0.64-0.43-1.056 0.14-0.768 0.43-1.056 0.64-0.432 1.06-0.432c0.4 0 0.73 0.144 1 0.432 0.29 0.288 0.44 0.64 0.44 1.056s-0.15 0.768-0.44 1.056c-0.27 0.288-0.6 0.432-1 0.432zm1.05 2.136v13.152h-2.18v-13.152zm6.87 1.8v7.752c0 0.64 0.13 1.096 0.41 1.368 0.27 0.256 0.74 0.384 1.41 0.384h1.61v1.848h-1.97c-1.21 0-2.13-0.28-2.73-0.84-0.61-0.56-0.92-1.48-0.92-2.76v-7.752h-1.7v-1.8h1.7v-3.312h2.19v3.312h3.43v1.8zm13.08-2.04c1 0 1.89 0.216 2.69 0.648 0.8 0.416 1.43 1.048 1.87 1.896 0.47 0.848 0.7 1.88 0.7 3.096v7.752h-2.16v-7.44c0-1.312-0.33-2.312-0.98-3-0.66-0.704-1.56-1.056-2.69-1.056-1.15 0-2.07 0.36-2.76 1.08-0.67 0.72-1.01 1.768-1.01 3.144v7.272h-2.18v-17.76h2.18v6.48c0.43-0.672 1.02-1.192 1.78-1.56s1.62-0.552 2.56-0.552z"/>
  <path d="m557.64 186.27v1.776h-4.56v14.952h-2.184v-14.952h-4.584v-1.776zm9.697 3.336c0.992 0 1.888 0.216 2.688 0.648 0.8 0.416 1.424 1.048 1.872 1.896 0.464 0.848 0.696 1.88 0.696 3.096v7.752h-2.16v-7.44c0-1.312-0.328-2.312-0.984-3-0.656-0.704-1.552-1.056-2.688-1.056-1.152 0-2.072 0.36-2.76 1.08-0.672 0.72-1.008 1.768-1.008 3.144v7.272h-2.184v-17.76h2.184v6.48c0.432-0.672 1.024-1.192 1.776-1.56 0.768-0.368 1.624-0.552 2.568-0.552zm10.431-1.896c-0.416 0-0.768-0.144-1.056-0.432s-0.432-0.64-0.432-1.056 0.144-0.768 0.432-1.056 0.64-0.432 1.056-0.432c0.4 0 0.736 0.144 1.008 0.432 0.288 0.288 0.432 0.64 0.432 1.056s-0.144 0.768-0.432 1.056c-0.272 0.288-0.608 0.432-1.008 0.432zm1.056 2.136v13.152h-2.184v-13.152zm8.859 13.368c-1.008 0-1.912-0.168-2.712-0.504-0.8-0.352-1.432-0.832-1.896-1.44-0.464-0.624-0.72-1.336-0.768-2.136h2.256c0.064 0.656 0.368 1.192 0.912 1.608 0.56 0.416 1.288 0.624 2.184 0.624 0.832 0 1.488-0.184 1.968-0.552s0.72-0.832 0.72-1.392c0-0.576-0.256-1-0.768-1.272-0.512-0.288-1.304-0.568-2.376-0.84-0.976-0.256-1.776-0.512-2.4-0.768-0.608-0.272-1.136-0.664-1.584-1.176-0.432-0.528-0.648-1.216-0.648-2.064 0-0.672 0.2-1.288 0.6-1.848s0.968-1 1.704-1.32c0.736-0.336 1.576-0.504 2.52-0.504 1.456 0 2.632 0.368 3.528 1.104s1.376 1.744 1.44 3.024h-2.184c-0.048-0.688-0.328-1.24-0.84-1.656-0.496-0.416-1.168-0.624-2.016-0.624-0.784 0-1.408 0.168-1.872 0.504s-0.696 0.776-0.696 1.32c0 0.432 0.136 0.792 0.408 1.08 0.288 0.272 0.64 0.496 1.056 0.672 0.432 0.16 1.024 0.344 1.776 0.552 0.944 0.256 1.712 0.512 2.304 0.768 0.592 0.24 1.096 0.608 1.512 1.104 0.432 0.496 0.656 1.144 0.672 1.944 0 0.72-0.2 1.368-0.6 1.944s-0.968 1.032-1.704 1.368c-0.72 0.32-1.552 0.48-2.496 0.48zm16.369-15.504c-0.416 0-0.768-0.144-1.056-0.432s-0.432-0.64-0.432-1.056 0.144-0.768 0.432-1.056 0.64-0.432 1.056-0.432c0.4 0 0.736 0.144 1.008 0.432 0.288 0.288 0.432 0.64 0.432 1.056s-0.144 0.768-0.432 1.056c-0.272 0.288-0.608 0.432-1.008 0.432zm1.056 2.136v13.152h-2.184v-13.152zm8.858 13.368c-1.008 0-1.912-0.168-2.712-0.504-0.8-0.352-1.432-0.832-1.896-1.44-0.464-0.624-0.72-1.336-0.768-2.136h2.256c0.064 0.656 0.368 1.192 0.912 1.608 0.56 0.416 1.288 0.624 2.184 0.624 0.832 0 1.488-0.184 1.968-0.552s0.72-0.832 0.72-1.392c0-0.576-0.256-1-0.768-1.272-0.512-0.288-1.304-0.568-2.376-0.84-0.976-0.256-1.776-0.512-2.4-0.768-0.608-0.272-1.136-0.664-1.584-1.176-0.432-0.528-0.648-1.216-0.648-2.064 0-0.672 0.2-1.288 0.6-1.848s0.968-1 1.704-1.32c0.736-0.336 1.576-0.504 2.52-0.504 1.456 0 2.632 0.368 3.528 1.104s1.376 1.744 1.44 3.024h-2.184c-0.048-0.688-0.328-1.24-0.84-1.656-0.496-0.416-1.168-0.624-2.016-0.624-0.784 0-1.408 0.168-1.872 0.504s-0.696 0.776-0.696 1.32c0 0.432 0.136 0.792 0.408 1.08 0.288 0.272 0.64 0.496 1.056 0.672 0.432 0.16 1.024 0.344 1.776 0.552 0.944 0.256 1.712 0.512 2.304 0.768 0.592 0.24 1.096 0.608 1.512 1.104 0.432 0.496 0.656 1.144 0.672 1.944 0 0.72-0.2 1.368-0.6 1.944s-0.968 1.032-1.704 1.368c-0.72 0.32-1.552 0.48-2.496 0.48zm17.906-11.568v7.752c0 0.64 0.136 1.096 0.408 1.368 0.272 0.256 0.744 0.384 1.416 0.384h1.608v1.848h-1.968c-1.216 0-2.128-0.28-2.736-0.84s-0.912-1.48-0.912-2.76v-7.752h-1.704v-1.8h1.704v-3.312h2.184v3.312h3.432v1.8zm12.294 11.568c-1.232 0-2.352-0.28-3.36-0.84-0.992-0.56-1.776-1.352-2.352-2.376-0.56-1.04-0.84-2.24-0.84-3.6 0-1.344 0.288-2.528 0.864-3.552 0.592-1.04 1.392-1.832 2.4-2.376 1.008-0.56 2.136-0.84 3.384-0.84s2.376 0.28 3.384 0.84c1.008 0.544 1.8 1.328 2.376 2.352 0.592 1.024 0.888 2.216 0.888 3.576s-0.304 2.56-0.912 3.6c-0.592 1.024-1.4 1.816-2.424 2.376s-2.16 0.84-3.408 0.84zm0-1.92c0.784 0 1.52-0.184 2.208-0.552s1.24-0.92 1.656-1.656c0.432-0.736 0.648-1.632 0.648-2.688s-0.208-1.952-0.624-2.688-0.96-1.28-1.632-1.632c-0.672-0.368-1.4-0.552-2.184-0.552-0.8 0-1.536 0.184-2.208 0.552-0.656 0.352-1.184 0.896-1.584 1.632s-0.6 1.632-0.6 2.688c0 1.072 0.192 1.976 0.576 2.712 0.4 0.736 0.928 1.288 1.584 1.656 0.656 0.352 1.376 0.528 2.16 0.528zm16.158-4.896c0-1.36 0.272-2.544 0.816-3.552 0.544-1.024 1.296-1.816 2.256-2.376 0.976-0.56 2.088-0.84 3.336-0.84 1.616 0 2.944 0.392 3.984 1.176 1.056 0.784 1.752 1.872 2.088 3.264h-2.352c-0.224-0.8-0.664-1.432-1.32-1.896-0.64-0.464-1.44-0.696-2.4-0.696-1.248 0-2.256 0.432-3.024 1.296-0.768 0.848-1.152 2.056-1.152 3.624 0 1.584 0.384 2.808 1.152 3.672s1.776 1.296 3.024 1.296c0.96 0 1.76-0.224 2.4-0.672s1.08-1.088 1.32-1.92h2.352c-0.352 1.344-1.056 2.424-2.112 3.24-1.056 0.8-2.376 1.2-3.96 1.2-1.248 0-2.36-0.28-3.336-0.84-0.96-0.56-1.712-1.352-2.256-2.376s-0.816-2.224-0.816-3.6zm27.874-0.48c0 0.416-0.024 0.856-0.072 1.32h-10.512c0.08 1.296 0.52 2.312 1.32 3.048 0.816 0.72 1.8 1.08 2.952 1.08 0.944 0 1.728-0.216 2.352-0.648 0.64-0.448 1.088-1.04 1.344-1.776h2.352c-0.352 1.264-1.056 2.296-2.112 3.096-1.056 0.784-2.368 1.176-3.936 1.176-1.248 0-2.368-0.28-3.36-0.84-0.976-0.56-1.744-1.352-2.304-2.376-0.56-1.04-0.84-2.24-0.84-3.6s0.272-2.552 0.816-3.576 1.304-1.808 2.28-2.352c0.992-0.56 2.128-0.84 3.408-0.84 1.248 0 2.352 0.272 3.312 0.816s1.696 1.296 2.208 2.256c0.528 0.944 0.792 2.016 0.792 3.216zm-2.256-0.456c0-0.832-0.184-1.544-0.552-2.136-0.368-0.608-0.872-1.064-1.512-1.368-0.624-0.32-1.32-0.48-2.088-0.48-1.104 0-2.048 0.352-2.832 1.056-0.768 0.704-1.208 1.68-1.32 2.928zm7.803-3.48c0.384-0.752 0.928-1.336 1.632-1.752 0.72-0.416 1.592-0.624 2.616-0.624v2.256h-0.576c-2.448 0-3.672 1.328-3.672 3.984v7.152h-2.184v-13.152h2.184zm9.913-0.336v7.752c0 0.64 0.136 1.096 0.408 1.368 0.272 0.256 0.744 0.384 1.416 0.384h1.608v1.848h-1.968c-1.216 0-2.128-0.28-2.736-0.84s-0.912-1.48-0.912-2.76v-7.752h-1.704v-1.8h1.704v-3.312h2.184v3.312h3.432v1.8zm7.686-3.936c-0.416 0-0.768-0.144-1.056-0.432s-0.432-0.64-0.432-1.056 0.144-0.768 0.432-1.056 0.64-0.432 1.056-0.432c0.4 0 0.736 0.144 1.008 0.432 0.288 0.288 0.432 0.64 0.432 1.056s-0.144 0.768-0.432 1.056c-0.272 0.288-0.608 0.432-1.008 0.432zm1.056 2.136v13.152h-2.184v-13.152zm9.555 1.8h-2.76v11.352h-2.184v-11.352h-1.704v-1.8h1.704v-0.936c0-1.472 0.376-2.544 1.128-3.216 0.768-0.688 1.992-1.032 3.672-1.032v1.824c-0.96 0-1.64 0.192-2.04 0.576-0.384 0.368-0.576 0.984-0.576 1.848v0.936h2.76zm14.354-1.8-7.92 19.344h-2.256l2.592-6.336-5.304-13.008h2.424l4.128 10.656 4.08-10.656zm12.218 1.8v7.752c0 0.64 0.136 1.096 0.408 1.368 0.272 0.256 0.744 0.384 1.416 0.384h1.608v1.848h-1.968c-1.216 0-2.128-0.28-2.736-0.84s-0.912-1.48-0.912-2.76v-7.752h-1.704v-1.8h1.704v-3.312h2.184v3.312h3.432v1.8zm13.086-2.04c0.992 0 1.888 0.216 2.688 0.648 0.8 0.416 1.424 1.048 1.872 1.896 0.464 0.848 0.696 1.88 0.696 3.096v7.752h-2.16v-7.44c0-1.312-0.328-2.312-0.984-3-0.656-0.704-1.552-1.056-2.688-1.056-1.152 0-2.072 0.36-2.76 1.08-0.672 0.72-1.008 1.768-1.008 3.144v7.272h-2.184v-17.76h2.184v6.48c0.432-0.672 1.024-1.192 1.776-1.56 0.768-0.368 1.624-0.552 2.568-0.552zm8.488 6.768c0-1.344 0.272-2.52 0.816-3.528 0.544-1.024 1.288-1.816 2.232-2.376 0.96-0.56 2.024-0.84 3.192-0.84 1.152 0 2.152 0.248 3 0.744s1.48 1.12 1.896 1.872v-2.4h2.208v13.152h-2.208v-2.448c-0.432 0.768-1.08 1.408-1.944 1.92-0.848 0.496-1.84 0.744-2.976 0.744-1.168 0-2.224-0.288-3.168-0.864s-1.688-1.384-2.232-2.424-0.816-2.224-0.816-3.552zm11.136 0.024c0-0.992-0.2-1.856-0.6-2.592s-0.944-1.296-1.632-1.68c-0.672-0.4-1.416-0.6-2.232-0.6s-1.56 0.192-2.232 0.576-1.208 0.944-1.608 1.68-0.6 1.6-0.6 2.592c0 1.008 0.2 1.888 0.6 2.64 0.4 0.736 0.936 1.304 1.608 1.704 0.672 0.384 1.416 0.576 2.232 0.576s1.56-0.192 2.232-0.576c0.688-0.4 1.232-0.968 1.632-1.704 0.4-0.752 0.6-1.624 0.6-2.616zm9.042-4.752v7.752c0 0.64 0.136 1.096 0.408 1.368 0.272 0.256 0.744 0.384 1.416 0.384h1.608v1.848h-1.968c-1.216 0-2.128-0.28-2.736-0.84s-0.912-1.48-0.912-2.76v-7.752h-1.704v-1.8h1.704v-3.312h2.184v3.312h3.432v1.8zm-445.15 30.624v12.36c0 1.376-0.424 2.48-1.272 3.312-0.848 0.816-1.968 1.224-3.36 1.224-1.408 0-2.536-0.416-3.384-1.248-0.848-0.848-1.272-2-1.272-3.456h2.184c0.016 0.816 0.224 1.48 0.624 1.992 0.416 0.512 1.032 0.768 1.848 0.768s1.424-0.24 1.824-0.72c0.4-0.496 0.6-1.12 0.6-1.872v-12.36zm10.518 16.944c-1.232 0-2.352-0.28-3.36-0.84-0.992-0.56-1.776-1.352-2.352-2.376-0.56-1.04-0.84-2.24-0.84-3.6 0-1.344 0.288-2.528 0.864-3.552 0.592-1.04 1.392-1.832 2.4-2.376 1.008-0.56 2.136-0.84 3.384-0.84s2.376 0.28 3.384 0.84c1.008 0.544 1.8 1.328 2.376 2.352 0.592 1.024 0.888 2.216 0.888 3.576s-0.304 2.56-0.912 3.6c-0.592 1.024-1.4 1.816-2.424 2.376s-2.16 0.84-3.408 0.84zm0-1.92c0.784 0 1.52-0.184 2.208-0.552s1.24-0.92 1.656-1.656c0.432-0.736 0.648-1.632 0.648-2.688s-0.208-1.952-0.624-2.688-0.96-1.28-1.632-1.632c-0.672-0.368-1.4-0.552-2.184-0.552-0.8 0-1.536 0.184-2.208 0.552-0.656 0.352-1.184 0.896-1.584 1.632s-0.6 1.632-0.6 2.688c0 1.072 0.192 1.976 0.576 2.712 0.4 0.736 0.928 1.288 1.584 1.656 0.656 0.352 1.376 0.528 2.16 0.528zm16.624-11.688c0.992 0 1.888 0.216 2.688 0.648 0.8 0.416 1.424 1.048 1.872 1.896 0.464 0.848 0.696 1.88 0.696 3.096v7.752h-2.16v-7.44c0-1.312-0.328-2.312-0.984-3-0.656-0.704-1.552-1.056-2.688-1.056-1.152 0-2.072 0.36-2.76 1.08-0.672 0.72-1.008 1.768-1.008 3.144v7.272h-2.184v-17.76h2.184v6.48c0.432-0.672 1.024-1.192 1.776-1.56 0.768-0.368 1.624-0.552 2.568-0.552zm15.712 0c1.6 0 2.896 0.488 3.888 1.464 0.992 0.96 1.488 2.352 1.488 4.176v7.752h-2.16v-7.44c0-1.312-0.328-2.312-0.984-3-0.656-0.704-1.552-1.056-2.688-1.056-1.152 0-2.072 0.36-2.76 1.08-0.672 0.72-1.008 1.768-1.008 3.144v7.272h-2.184v-13.152h2.184v1.872c0.432-0.672 1.016-1.192 1.752-1.56 0.752-0.368 1.576-0.552 2.472-0.552zm21.51-3.336c1.824 0 3.4 0.344 4.728 1.032 1.344 0.672 2.368 1.64 3.072 2.904 0.72 1.264 1.08 2.752 1.08 4.464s-0.36 3.2-1.08 4.464c-0.704 1.248-1.728 2.208-3.072 2.88-1.328 0.656-2.904 0.984-4.728 0.984h-5.208v-16.728zm0 14.928c2.16 0 3.808-0.568 4.944-1.704 1.136-1.152 1.704-2.76 1.704-4.824 0-2.08-0.576-3.704-1.728-4.872-1.136-1.168-2.776-1.752-4.92-1.752h-3.024v13.152zm17.976 2.016c-1.232 0-2.352-0.28-3.36-0.84-0.992-0.56-1.776-1.352-2.352-2.376-0.56-1.04-0.84-2.24-0.84-3.6 0-1.344 0.288-2.528 0.864-3.552 0.592-1.04 1.392-1.832 2.4-2.376 1.008-0.56 2.136-0.84 3.384-0.84s2.376 0.28 3.384 0.84c1.008 0.544 1.8 1.328 2.376 2.352 0.592 1.024 0.888 2.216 0.888 3.576s-0.304 2.56-0.912 3.6c-0.592 1.024-1.4 1.816-2.424 2.376s-2.16 0.84-3.408 0.84zm0-1.92c0.784 0 1.52-0.184 2.208-0.552s1.24-0.92 1.656-1.656c0.432-0.736 0.648-1.632 0.648-2.688s-0.208-1.952-0.624-2.688-0.96-1.28-1.632-1.632c-0.672-0.368-1.4-0.552-2.184-0.552-0.8 0-1.536 0.184-2.208 0.552-0.656 0.352-1.184 0.896-1.584 1.632s-0.6 1.632-0.6 2.688c0 1.072 0.192 1.976 0.576 2.712 0.4 0.736 0.928 1.288 1.584 1.656 0.656 0.352 1.376 0.528 2.16 0.528zm22.096-5.376c0 0.416-0.024 0.856-0.072 1.32h-10.512c0.08 1.296 0.52 2.312 1.32 3.048 0.816 0.72 1.8 1.08 2.952 1.08 0.944 0 1.728-0.216 2.352-0.648 0.64-0.448 1.088-1.04 1.344-1.776h2.352c-0.352 1.264-1.056 2.296-2.112 3.096-1.056 0.784-2.368 1.176-3.936 1.176-1.248 0-2.368-0.28-3.36-0.84-0.976-0.56-1.744-1.352-2.304-2.376-0.56-1.04-0.84-2.24-0.84-3.6s0.272-2.552 0.816-3.576 1.304-1.808 2.28-2.352c0.992-0.56 2.128-0.84 3.408-0.84 1.248 0 2.352 0.272 3.312 0.816s1.696 1.296 2.208 2.256c0.528 0.944 0.792 2.016 0.792 3.216zm-2.256-0.456c0-0.832-0.184-1.544-0.552-2.136-0.368-0.608-0.872-1.064-1.512-1.368-0.624-0.32-1.32-0.48-2.088-0.48-1.104 0-2.048 0.352-2.832 1.056-0.768 0.704-1.208 1.68-1.32 2.928zm7.875 4.512-2.688 6.456h-1.464l1.752-6.456zm12.044-7.68c0.448-0.784 1.104-1.424 1.968-1.92s1.848-0.744 2.952-0.744c1.184 0 2.248 0.28 3.192 0.84s1.688 1.352 2.232 2.376c0.544 1.008 0.816 2.184 0.816 3.528 0 1.328-0.272 2.512-0.816 3.552s-1.296 1.848-2.256 2.424c-0.944 0.576-2 0.864-3.168 0.864-1.136 0-2.136-0.248-3-0.744-0.848-0.496-1.488-1.128-1.92-1.896v2.424h-2.184v-17.76h2.184zm8.928 4.08c0-0.992-0.2-1.856-0.6-2.592s-0.944-1.296-1.632-1.68c-0.672-0.384-1.416-0.576-2.232-0.576-0.8 0-1.544 0.2-2.232 0.6-0.672 0.384-1.216 0.952-1.632 1.704-0.4 0.736-0.6 1.592-0.6 2.568 0 0.992 0.2 1.864 0.6 2.616 0.416 0.736 0.96 1.304 1.632 1.704 0.688 0.384 1.432 0.576 2.232 0.576 0.816 0 1.56-0.192 2.232-0.576 0.688-0.4 1.232-0.968 1.632-1.704 0.4-0.752 0.6-1.632 0.6-2.64zm6.715-8.664c-0.416 0-0.768-0.144-1.056-0.432s-0.432-0.64-0.432-1.056 0.144-0.768 0.432-1.056 0.64-0.432 1.056-0.432c0.4 0 0.736 0.144 1.008 0.432 0.288 0.288 0.432 0.64 0.432 1.056s-0.144 0.768-0.432 1.056c-0.272 0.288-0.608 0.432-1.008 0.432zm1.056 2.136v13.152h-2.184v-13.152zm6.386 2.136c0.384-0.752 0.928-1.336 1.632-1.752 0.72-0.416 1.592-0.624 2.616-0.624v2.256h-0.576c-2.448 0-3.672 1.328-3.672 3.984v7.152h-2.184v-13.152h2.184zm9.913-0.336v7.752c0 0.64 0.136 1.096 0.408 1.368 0.272 0.256 0.744 0.384 1.416 0.384h1.608v1.848h-1.968c-1.216 0-2.128-0.28-2.736-0.84s-0.912-1.48-0.912-2.76v-7.752h-1.704v-1.8h1.704v-3.312h2.184v3.312h3.432v1.8zm13.086-2.04c0.992 0 1.888 0.216 2.688 0.648 0.8 0.416 1.424 1.048 1.872 1.896 0.464 0.848 0.696 1.88 0.696 3.096v7.752h-2.16v-7.44c0-1.312-0.328-2.312-0.984-3-0.656-0.704-1.552-1.056-2.688-1.056-1.152 0-2.072 0.36-2.76 1.08-0.672 0.72-1.008 1.768-1.008 3.144v7.272h-2.184v-17.76h2.184v6.48c0.432-0.672 1.024-1.192 1.776-1.56 0.768-0.368 1.624-0.552 2.568-0.552zm8.488 6.768c0-1.344 0.272-2.52 0.816-3.528 0.544-1.024 1.288-1.816 2.232-2.376 0.96-0.56 2.032-0.84 3.216-0.84 1.024 0 1.976 0.24 2.856 0.72 0.88 0.464 1.552 1.08 2.016 1.848v-6.96h2.208v17.76h-2.208v-2.472c-0.432 0.784-1.072 1.432-1.92 1.944-0.848 0.496-1.84 0.744-2.976 0.744-1.168 0-2.232-0.288-3.192-0.864-0.944-0.576-1.688-1.384-2.232-2.424s-0.816-2.224-0.816-3.552zm11.136 0.024c0-0.992-0.2-1.856-0.6-2.592s-0.944-1.296-1.632-1.68c-0.672-0.4-1.416-0.6-2.232-0.6s-1.56 0.192-2.232 0.576-1.208 0.944-1.608 1.68-0.6 1.6-0.6 2.592c0 1.008 0.2 1.888 0.6 2.64 0.4 0.736 0.936 1.304 1.608 1.704 0.672 0.384 1.416 0.576 2.232 0.576s1.56-0.192 2.232-0.576c0.688-0.4 1.232-0.968 1.632-1.704 0.4-0.752 0.6-1.624 0.6-2.616zm5.563-0.024c0-1.344 0.272-2.52 0.816-3.528 0.544-1.024 1.288-1.816 2.232-2.376 0.96-0.56 2.024-0.84 3.192-0.84 1.152 0 2.152 0.248 3 0.744s1.48 1.12 1.896 1.872v-2.4h2.208v13.152h-2.208v-2.448c-0.432 0.768-1.08 1.408-1.944 1.92-0.848 0.496-1.84 0.744-2.976 0.744-1.168 0-2.224-0.288-3.168-0.864s-1.688-1.384-2.232-2.424-0.816-2.224-0.816-3.552zm11.136 0.024c0-0.992-0.2-1.856-0.6-2.592s-0.944-1.296-1.632-1.68c-0.672-0.4-1.416-0.6-2.232-0.6s-1.56 0.192-2.232 0.576-1.208 0.944-1.608 1.68-0.6 1.6-0.6 2.592c0 1.008 0.2 1.888 0.6 2.64 0.4 0.736 0.936 1.304 1.608 1.704 0.672 0.384 1.416 0.576 2.232 0.576s1.56-0.192 2.232-0.576c0.688-0.4 1.232-0.968 1.632-1.704 0.4-0.752 0.6-1.624 0.6-2.616zm9.042-4.752v7.752c0 0.64 0.136 1.096 0.408 1.368 0.272 0.256 0.744 0.384 1.416 0.384h1.608v1.848h-1.968c-1.216 0-2.128-0.28-2.736-0.84s-0.912-1.48-0.912-2.76v-7.752h-1.704v-1.8h1.704v-3.312h2.184v3.312h3.432v1.8zm18.558 4.272c0 0.416-0.024 0.856-0.072 1.32h-10.512c0.08 1.296 0.52 2.312 1.32 3.048 0.816 0.72 1.8 1.08 2.952 1.08 0.944 0 1.728-0.216 2.352-0.648 0.64-0.448 1.088-1.04 1.344-1.776h2.352c-0.352 1.264-1.056 2.296-2.112 3.096-1.056 0.784-2.368 1.176-3.936 1.176-1.248 0-2.368-0.28-3.36-0.84-0.976-0.56-1.744-1.352-2.304-2.376-0.56-1.04-0.84-2.24-0.84-3.6s0.272-2.552 0.816-3.576 1.304-1.808 2.28-2.352c0.992-0.56 2.128-0.84 3.408-0.84 1.248 0 2.352 0.272 3.312 0.816s1.696 1.296 2.208 2.256c0.528 0.944 0.792 2.016 0.792 3.216zm-2.256-0.456c0-0.832-0.184-1.544-0.552-2.136-0.368-0.608-0.872-1.064-1.512-1.368-0.624-0.32-1.32-0.48-2.088-0.48-1.104 0-2.048 0.352-2.832 1.056-0.768 0.704-1.208 1.68-1.32 2.928zm19.338-0.816 5.136 8.352h-2.472l-4.008-6.528-3.816 6.528h-2.424l5.112-8.352-5.136-8.376h2.448l4.032 6.552 3.84-6.552h2.448zm15.386 0 5.136 8.352h-2.472l-4.008-6.528-3.816 6.528h-2.424l5.112-8.352-5.136-8.376h2.448l4.032 6.552 3.84-6.552h2.448zm9.242 8.496c-0.416 0-0.768-0.144-1.056-0.432s-0.432-0.64-0.432-1.056 0.144-0.768 0.432-1.056 0.64-0.432 1.056-0.432c0.4 0 0.736 0.144 1.008 0.432 0.288 0.288 0.432 0.64 0.432 1.056s-0.144 0.768-0.432 1.056c-0.272 0.288-0.608 0.432-1.008 0.432zm11.663-8.496 5.136 8.352h-2.472l-4.008-6.528-3.816 6.528h-2.424l5.112-8.352-5.136-8.376h2.448l4.032 6.552 3.84-6.552h2.448zm15.387 0 5.136 8.352h-2.472l-4.008-6.528-3.816 6.528h-2.424l5.112-8.352-5.136-8.376h2.448l4.032 6.552 3.84-6.552h2.448zm9.242 8.496c-0.416 0-0.768-0.144-1.056-0.432s-0.432-0.64-0.432-1.056 0.144-0.768 0.432-1.056 0.64-0.432 1.056-0.432c0.4 0 0.736 0.144 1.008 0.432 0.288 0.288 0.432 0.64 0.432 1.056s-0.144 0.768-0.432 1.056c-0.272 0.288-0.608 0.432-1.008 0.432zm11.663-8.496 5.136 8.352h-2.472l-4.008-6.528-3.816 6.528h-2.424l5.112-8.352-5.136-8.376h2.448l4.032 6.552 3.84-6.552h2.448zm15.386 0 5.136 8.352h-2.472l-4.008-6.528-3.816 6.528h-2.424l5.112-8.352-5.136-8.376h2.448l4.032 6.552 3.84-6.552h2.448zm15.386 0 5.136 8.352h-2.472l-4.008-6.528-3.816 6.528h-2.424l5.112-8.352-5.136-8.376h2.448l4.032 6.552 3.84-6.552h2.448zm15.387 0 5.136 8.352h-2.472l-4.008-6.528-3.816 6.528h-2.424l5.112-8.352-5.136-8.376h2.448l4.032 6.552 3.84-6.552h2.448zm27.424 1.272c0 0.416-0.024 0.856-0.072 1.32h-10.512c0.08 1.296 0.52 2.312 1.32 3.048 0.816 0.72 1.8 1.08 2.952 1.08 0.944 0 1.728-0.216 2.352-0.648 0.64-0.448 1.088-1.04 1.344-1.776h2.352c-0.352 1.264-1.056 2.296-2.112 3.096-1.056 0.784-2.368 1.176-3.936 1.176-1.248 0-2.368-0.28-3.36-0.84-0.976-0.56-1.744-1.352-2.304-2.376-0.56-1.04-0.84-2.24-0.84-3.6s0.272-2.552 0.816-3.576 1.304-1.808 2.28-2.352c0.992-0.56 2.128-0.84 3.408-0.84 1.248 0 2.352 0.272 3.312 0.816s1.696 1.296 2.208 2.256c0.528 0.944 0.792 2.016 0.792 3.216zm-2.256-0.456c0-0.832-0.184-1.544-0.552-2.136-0.368-0.608-0.872-1.064-1.512-1.368-0.624-0.32-1.32-0.48-2.088-0.48-1.104 0-2.048 0.352-2.832 1.056-0.768 0.704-1.208 1.68-1.32 2.928zm21.435-5.856c1.024 0 1.936 0.216 2.736 0.648 0.8 0.416 1.432 1.048 1.896 1.896s0.696 1.88 0.696 3.096v7.752h-2.16v-7.44c0-1.312-0.328-2.312-0.984-3-0.64-0.704-1.512-1.056-2.616-1.056-1.136 0-2.04 0.368-2.712 1.104-0.672 0.72-1.008 1.768-1.008 3.144v7.248h-2.16v-7.44c0-1.312-0.328-2.312-0.984-3-0.64-0.704-1.512-1.056-2.616-1.056-1.136 0-2.04 0.368-2.712 1.104-0.672 0.72-1.008 1.768-1.008 3.144v7.248h-2.184v-13.152h2.184v1.896c0.432-0.688 1.008-1.216 1.728-1.584 0.736-0.368 1.544-0.552 2.424-0.552 1.104 0 2.08 0.248 2.928 0.744s1.48 1.224 1.896 2.184c0.368-0.928 0.976-1.648 1.824-2.16s1.792-0.768 2.832-0.768zm11.575 2.664c0.432-0.752 1.072-1.376 1.92-1.872 0.864-0.512 1.864-0.768 3-0.768 1.168 0 2.224 0.28 3.168 0.84 0.96 0.56 1.712 1.352 2.256 2.376 0.544 1.008 0.816 2.184 0.816 3.528 0 1.328-0.272 2.512-0.816 3.552s-1.296 1.848-2.256 2.424c-0.944 0.576-2 0.864-3.168 0.864-1.12 0-2.112-0.248-2.976-0.744-0.848-0.512-1.496-1.144-1.944-1.896v8.664h-2.184v-19.392h2.184zm8.928 4.104c0-0.992-0.2-1.856-0.6-2.592s-0.944-1.296-1.632-1.68c-0.672-0.384-1.416-0.576-2.232-0.576-0.8 0-1.544 0.2-2.232 0.6-0.672 0.384-1.216 0.952-1.632 1.704-0.4 0.736-0.6 1.592-0.6 2.568 0 0.992 0.2 1.864 0.6 2.616 0.416 0.736 0.96 1.304 1.632 1.704 0.688 0.384 1.432 0.576 2.232 0.576 0.816 0 1.56-0.192 2.232-0.576 0.688-0.4 1.232-0.968 1.632-1.704 0.4-0.752 0.6-1.632 0.6-2.64zm7.77-11.136v17.76h-2.184v-17.76zm9.939 17.976c-1.232 0-2.352-0.28-3.36-0.84-0.992-0.56-1.776-1.352-2.352-2.376-0.56-1.04-0.84-2.24-0.84-3.6 0-1.344 0.288-2.528 0.864-3.552 0.592-1.04 1.392-1.832 2.4-2.376 1.008-0.56 2.136-0.84 3.384-0.84s2.376 0.28 3.384 0.84c1.008 0.544 1.8 1.328 2.376 2.352 0.592 1.024 0.888 2.216 0.888 3.576s-0.304 2.56-0.912 3.6c-0.592 1.024-1.4 1.816-2.424 2.376s-2.16 0.84-3.408 0.84zm0-1.92c0.784 0 1.52-0.184 2.208-0.552s1.24-0.92 1.656-1.656c0.432-0.736 0.648-1.632 0.648-2.688s-0.208-1.952-0.624-2.688-0.96-1.28-1.632-1.632c-0.672-0.368-1.4-0.552-2.184-0.552-0.8 0-1.536 0.184-2.208 0.552-0.656 0.352-1.184 0.896-1.584 1.632s-0.6 1.632-0.6 2.688c0 1.072 0.192 1.976 0.576 2.712 0.4 0.736 0.928 1.288 1.584 1.656 0.656 0.352 1.376 0.528 2.16 0.528zm21.423-11.448-7.92 19.344h-2.256l2.592-6.336-5.304-13.008h2.424l4.128 10.656 4.08-10.656zm14.676 6.072c0 0.416-0.024 0.856-0.072 1.32h-10.512c0.08 1.296 0.52 2.312 1.32 3.048 0.816 0.72 1.8 1.08 2.952 1.08 0.944 0 1.728-0.216 2.352-0.648 0.64-0.448 1.088-1.04 1.344-1.776h2.352c-0.352 1.264-1.056 2.296-2.112 3.096-1.056 0.784-2.368 1.176-3.936 1.176-1.248 0-2.368-0.28-3.36-0.84-0.976-0.56-1.744-1.352-2.304-2.376-0.56-1.04-0.84-2.24-0.84-3.6s0.272-2.552 0.816-3.576 1.304-1.808 2.28-2.352c0.992-0.56 2.128-0.84 3.408-0.84 1.248 0 2.352 0.272 3.312 0.816s1.696 1.296 2.208 2.256c0.528 0.944 0.792 2.016 0.792 3.216zm-2.256-0.456c0-0.832-0.184-1.544-0.552-2.136-0.368-0.608-0.872-1.064-1.512-1.368-0.624-0.32-1.32-0.48-2.088-0.48-1.104 0-2.048 0.352-2.832 1.056-0.768 0.704-1.208 1.68-1.32 2.928zm4.802 0.912c0-1.344 0.272-2.52 0.816-3.528 0.544-1.024 1.288-1.816 2.232-2.376 0.96-0.56 2.032-0.84 3.216-0.84 1.024 0 1.976 0.24 2.856 0.72 0.88 0.464 1.552 1.08 2.016 1.848v-6.96h2.208v17.76h-2.208v-2.472c-0.432 0.784-1.072 1.432-1.92 1.944-0.848 0.496-1.84 0.744-2.976 0.744-1.168 0-2.232-0.288-3.192-0.864-0.944-0.576-1.688-1.384-2.232-2.424s-0.816-2.224-0.816-3.552zm11.136 0.024c0-0.992-0.2-1.856-0.6-2.592s-0.944-1.296-1.632-1.68c-0.672-0.4-1.416-0.6-2.232-0.6s-1.56 0.192-2.232 0.576-1.208 0.944-1.608 1.68-0.6 1.6-0.6 2.592c0 1.008 0.2 1.888 0.6 2.64 0.4 0.736 0.936 1.304 1.608 1.704 0.672 0.384 1.416 0.576 2.232 0.576s1.56-0.192 2.232-0.576c0.688-0.4 1.232-0.968 1.632-1.704 0.4-0.752 0.6-1.624 0.6-2.616zm12.442-0.024c0-1.344 0.272-2.52 0.816-3.528 0.544-1.024 1.288-1.816 2.232-2.376 0.96-0.56 2.024-0.84 3.192-0.84 1.152 0 2.152 0.248 3 0.744s1.48 1.12 1.896 1.872v-2.4h2.208v13.152h-2.208v-2.448c-0.432 0.768-1.08 1.408-1.944 1.92-0.848 0.496-1.84 0.744-2.976 0.744-1.168 0-2.224-0.288-3.168-0.864s-1.688-1.384-2.232-2.424-0.816-2.224-0.816-3.552zm11.136 0.024c0-0.992-0.2-1.856-0.6-2.592s-0.944-1.296-1.632-1.68c-0.672-0.4-1.416-0.6-2.232-0.6s-1.56 0.192-2.232 0.576-1.208 0.944-1.608 1.68-0.6 1.6-0.6 2.592c0 1.008 0.2 1.888 0.6 2.64 0.4 0.736 0.936 1.304 1.608 1.704 0.672 0.384 1.416 0.576 2.232 0.576s1.56-0.192 2.232-0.576c0.688-0.4 1.232-0.968 1.632-1.704 0.4-0.752 0.6-1.624 0.6-2.616zm9.042-4.752v7.752c0 0.64 0.136 1.096 0.408 1.368 0.272 0.256 0.744 0.384 1.416 0.384h1.608v1.848h-1.968c-1.216 0-2.128-0.28-2.736-0.84s-0.912-1.48-0.912-2.76v-7.752h-1.704v-1.8h1.704v-3.312h2.184v3.312h3.432v1.8zm7.255 11.496c-0.416 0-0.768-0.144-1.056-0.432s-0.432-0.64-0.432-1.056 0.144-0.768 0.432-1.056 0.64-0.432 1.056-0.432c0.4 0 0.736 0.144 1.008 0.432 0.288 0.288 0.432 0.64 0.432 1.056s-0.144 0.768-0.432 1.056c-0.272 0.288-0.608 0.432-1.008 0.432zm0-10.272c-0.416 0-0.768-0.144-1.056-0.432s-0.432-0.64-0.432-1.056 0.144-0.768 0.432-1.056 0.64-0.432 1.056-0.432c0.4 0 0.736 0.144 1.008 0.432 0.288 0.288 0.432 0.64 0.432 1.056s-0.144 0.768-0.432 1.056c-0.272 0.288-0.608 0.432-1.008 0.432zm18.611 1.776 5.136 8.352h-2.472l-4.008-6.528-3.816 6.528h-2.424l5.112-8.352-5.136-8.376h2.448l4.032 6.552 3.84-6.552h2.448zm15.387 0 5.136 8.352h-2.472l-4.008-6.528-3.816 6.528h-2.424l5.112-8.352-5.136-8.376h2.448l4.032 6.552 3.84-6.552h2.448zm15.386 0 5.136 8.352h-2.472l-4.008-6.528-3.816 6.528h-2.424l5.112-8.352-5.136-8.376h2.448l4.032 6.552 3.84-6.552h2.448zm15.386 0 5.136 8.352h-2.472l-4.008-6.528-3.816 6.528h-2.424l5.112-8.352-5.136-8.376h2.448l4.032 6.552 3.84-6.552h2.448zm15.386 0 5.136 8.352h-2.472l-4.008-6.528-3.816 6.528h-2.424l5.112-8.352-5.136-8.376h2.448l4.032 6.552 3.84-6.552h2.448zm15.387 0 5.136 8.352h-2.472l-4.008-6.528-3.816 6.528h-2.424l5.112-8.352-5.136-8.376h2.448l4.032 6.552 3.84-6.552h2.448zm15.386 0 5.138 8.352h-2.47l-4.012-6.528-3.816 6.528h-2.424l5.112-8.352-5.136-8.376h2.448l4.032 6.552 3.836-6.552h2.45zm-467.11 30.96c0.992 0 1.888 0.216 2.688 0.648 0.8 0.416 1.424 1.048 1.872 1.896 0.464 0.848 0.696 1.88 0.696 3.096v7.752h-2.16v-7.44c0-1.312-0.328-2.312-0.984-3-0.656-0.704-1.552-1.056-2.688-1.056-1.152 0-2.072 0.36-2.76 1.08-0.672 0.72-1.008 1.768-1.008 3.144v7.272h-2.184v-17.76h2.184v6.48c0.432-0.672 1.024-1.192 1.776-1.56 0.768-0.368 1.624-0.552 2.568-0.552zm8.487 6.768c0-1.344 0.272-2.52 0.816-3.528 0.544-1.024 1.288-1.816 2.232-2.376 0.96-0.56 2.024-0.84 3.192-0.84 1.152 0 2.152 0.248 3 0.744s1.48 1.12 1.896 1.872v-2.4h2.208v13.152h-2.208v-2.448c-0.432 0.768-1.08 1.408-1.944 1.92-0.848 0.496-1.84 0.744-2.976 0.744-1.168 0-2.224-0.288-3.168-0.864s-1.688-1.384-2.232-2.424-0.816-2.224-0.816-3.552zm11.136 0.024c0-0.992-0.2-1.856-0.6-2.592s-0.944-1.296-1.632-1.68c-0.672-0.4-1.416-0.6-2.232-0.6s-1.56 0.192-2.232 0.576-1.208 0.944-1.608 1.68-0.6 1.6-0.6 2.592c0 1.008 0.2 1.888 0.6 2.64 0.4 0.736 0.936 1.304 1.608 1.704 0.672 0.384 1.416 0.576 2.232 0.576s1.56-0.192 2.232-0.576c0.688-0.4 1.232-0.968 1.632-1.704 0.4-0.752 0.6-1.624 0.6-2.616zm11.035 6.816c-1.008 0-1.912-0.168-2.712-0.504-0.8-0.352-1.432-0.832-1.896-1.44-0.464-0.624-0.72-1.336-0.768-2.136h2.256c0.064 0.656 0.368 1.192 0.912 1.608 0.56 0.416 1.288 0.624 2.184 0.624 0.832 0 1.488-0.184 1.968-0.552s0.72-0.832 0.72-1.392c0-0.576-0.256-1-0.768-1.272-0.512-0.288-1.304-0.568-2.376-0.84-0.976-0.256-1.776-0.512-2.4-0.768-0.608-0.272-1.136-0.664-1.584-1.176-0.432-0.528-0.648-1.216-0.648-2.064 0-0.672 0.2-1.288 0.6-1.848s0.968-1 1.704-1.32c0.736-0.336 1.576-0.504 2.52-0.504 1.456 0 2.632 0.368 3.528 1.104s1.376 1.744 1.44 3.024h-2.184c-0.048-0.688-0.328-1.24-0.84-1.656-0.496-0.416-1.168-0.624-2.016-0.624-0.784 0-1.408 0.168-1.872 0.504s-0.696 0.776-0.696 1.32c0 0.432 0.136 0.792 0.408 1.08 0.288 0.272 0.64 0.496 1.056 0.672 0.432 0.16 1.024 0.344 1.776 0.552 0.944 0.256 1.712 0.512 2.304 0.768 0.592 0.24 1.096 0.608 1.512 1.104 0.432 0.496 0.656 1.144 0.672 1.944 0 0.72-0.2 1.368-0.6 1.944s-0.968 1.032-1.704 1.368c-0.72 0.32-1.552 0.48-2.496 0.48zm20.978 0c-1.232 0-2.352-0.28-3.36-0.84-0.992-0.56-1.776-1.352-2.352-2.376-0.56-1.04-0.84-2.24-0.84-3.6 0-1.344 0.288-2.528 0.864-3.552 0.592-1.04 1.392-1.832 2.4-2.376 1.008-0.56 2.136-0.84 3.384-0.84s2.376 0.28 3.384 0.84c1.008 0.544 1.8 1.328 2.376 2.352 0.592 1.024 0.888 2.216 0.888 3.576s-0.304 2.56-0.912 3.6c-0.592 1.024-1.4 1.816-2.424 2.376s-2.16 0.84-3.408 0.84zm0-1.92c0.784 0 1.52-0.184 2.208-0.552s1.24-0.92 1.656-1.656c0.432-0.736 0.648-1.632 0.648-2.688s-0.208-1.952-0.624-2.688-0.96-1.28-1.632-1.632c-0.672-0.368-1.4-0.552-2.184-0.552-0.8 0-1.536 0.184-2.208 0.552-0.656 0.352-1.184 0.896-1.584 1.632s-0.6 1.632-0.6 2.688c0 1.072 0.192 1.976 0.576 2.712 0.4 0.736 0.928 1.288 1.584 1.656 0.656 0.352 1.376 0.528 2.16 0.528zm12.279-9c0.448-0.784 1.104-1.424 1.968-1.92s1.848-0.744 2.952-0.744c1.184 0 2.248 0.28 3.192 0.84s1.688 1.352 2.232 2.376c0.544 1.008 0.816 2.184 0.816 3.528 0 1.328-0.272 2.512-0.816 3.552s-1.296 1.848-2.256 2.424c-0.944 0.576-2 0.864-3.168 0.864-1.136 0-2.136-0.248-3-0.744-0.848-0.496-1.488-1.128-1.92-1.896v2.424h-2.184v-17.76h2.184zm8.928 4.08c0-0.992-0.2-1.856-0.6-2.592s-0.944-1.296-1.632-1.68c-0.672-0.384-1.416-0.576-2.232-0.576-0.8 0-1.544 0.2-2.232 0.6-0.672 0.384-1.216 0.952-1.632 1.704-0.4 0.736-0.6 1.592-0.6 2.568 0 0.992 0.2 1.864 0.6 2.616 0.416 0.736 0.96 1.304 1.632 1.704 0.688 0.384 1.432 0.576 2.232 0.576 0.816 0 1.56-0.192 2.232-0.576 0.688-0.4 1.232-0.968 1.632-1.704 0.4-0.752 0.6-1.632 0.6-2.64zm8.251-4.728v7.752c0 0.64 0.136 1.096 0.408 1.368 0.272 0.256 0.744 0.384 1.416 0.384h1.608v1.848h-1.968c-1.216 0-2.128-0.28-2.736-0.84s-0.912-1.48-0.912-2.76v-7.752h-1.704v-1.8h1.704v-3.312h2.184v3.312h3.432v1.8zm5.742 4.728c0-1.344 0.272-2.52 0.816-3.528 0.544-1.024 1.288-1.816 2.232-2.376 0.96-0.56 2.024-0.84 3.192-0.84 1.152 0 2.152 0.248 3 0.744s1.48 1.12 1.896 1.872v-2.4h2.208v13.152h-2.208v-2.448c-0.432 0.768-1.08 1.408-1.944 1.92-0.848 0.496-1.84 0.744-2.976 0.744-1.168 0-2.224-0.288-3.168-0.864s-1.688-1.384-2.232-2.424-0.816-2.224-0.816-3.552zm11.136 0.024c0-0.992-0.2-1.856-0.6-2.592s-0.944-1.296-1.632-1.68c-0.672-0.4-1.416-0.6-2.232-0.6s-1.56 0.192-2.232 0.576-1.208 0.944-1.608 1.68-0.6 1.6-0.6 2.592c0 1.008 0.2 1.888 0.6 2.64 0.4 0.736 0.936 1.304 1.608 1.704 0.672 0.384 1.416 0.576 2.232 0.576s1.56-0.192 2.232-0.576c0.688-0.4 1.232-0.968 1.632-1.704 0.4-0.752 0.6-1.624 0.6-2.616zm7.507-8.688c-0.416 0-0.768-0.144-1.056-0.432s-0.432-0.64-0.432-1.056 0.144-0.768 0.432-1.056 0.64-0.432 1.056-0.432c0.4 0 0.736 0.144 1.008 0.432 0.288 0.288 0.432 0.64 0.432 1.056s-0.144 0.768-0.432 1.056c-0.272 0.288-0.608 0.432-1.008 0.432zm1.056 2.136v13.152h-2.184v-13.152zm10.61-0.24c1.6 0 2.896 0.488 3.888 1.464 0.992 0.96 1.488 2.352 1.488 4.176v7.752h-2.16v-7.44c0-1.312-0.328-2.312-0.984-3-0.656-0.704-1.552-1.056-2.688-1.056-1.152 0-2.072 0.36-2.76 1.08-0.672 0.72-1.008 1.768-1.008 3.144v7.272h-2.184v-13.152h2.184v1.872c0.432-0.672 1.016-1.192 1.752-1.56 0.752-0.368 1.576-0.552 2.472-0.552zm21.424 6.312c0 0.416-0.024 0.856-0.072 1.32h-10.512c0.08 1.296 0.52 2.312 1.32 3.048 0.816 0.72 1.8 1.08 2.952 1.08 0.944 0 1.728-0.216 2.352-0.648 0.64-0.448 1.088-1.04 1.344-1.776h2.352c-0.352 1.264-1.056 2.296-2.112 3.096-1.056 0.784-2.368 1.176-3.936 1.176-1.248 0-2.368-0.28-3.36-0.84-0.976-0.56-1.744-1.352-2.304-2.376-0.56-1.04-0.84-2.24-0.84-3.6s0.272-2.552 0.816-3.576 1.304-1.808 2.28-2.352c0.992-0.56 2.128-0.84 3.408-0.84 1.248 0 2.352 0.272 3.312 0.816s1.696 1.296 2.208 2.256c0.528 0.944 0.792 2.016 0.792 3.216zm-2.256-0.456c0-0.832-0.184-1.544-0.552-2.136-0.368-0.608-0.872-1.064-1.512-1.368-0.624-0.32-1.32-0.48-2.088-0.48-1.104 0-2.048 0.352-2.832 1.056-0.768 0.704-1.208 1.68-1.32 2.928zm4.803 0.912c0-1.344 0.272-2.52 0.816-3.528 0.544-1.024 1.288-1.816 2.232-2.376 0.96-0.56 2.032-0.84 3.216-0.84 1.024 0 1.976 0.24 2.856 0.72 0.88 0.464 1.552 1.08 2.016 1.848v-6.96h2.208v17.76h-2.208v-2.472c-0.432 0.784-1.072 1.432-1.92 1.944-0.848 0.496-1.84 0.744-2.976 0.744-1.168 0-2.232-0.288-3.192-0.864-0.944-0.576-1.688-1.384-2.232-2.424s-0.816-2.224-0.816-3.552zm11.136 0.024c0-0.992-0.2-1.856-0.6-2.592s-0.944-1.296-1.632-1.68c-0.672-0.4-1.416-0.6-2.232-0.6s-1.56 0.192-2.232 0.576-1.208 0.944-1.608 1.68-0.6 1.6-0.6 2.592c0 1.008 0.2 1.888 0.6 2.64 0.4 0.736 0.936 1.304 1.608 1.704 0.672 0.384 1.416 0.576 2.232 0.576s1.56-0.192 2.232-0.576c0.688-0.4 1.232-0.968 1.632-1.704 0.4-0.752 0.6-1.624 0.6-2.616zm12.441-1.776c0-1.632 0.368-3.096 1.104-4.392 0.736-1.312 1.736-2.336 3-3.072 1.28-0.736 2.696-1.104 4.248-1.104 1.824 0 3.416 0.44 4.776 1.32s2.352 2.128 2.976 3.744h-2.616c-0.464-1.008-1.136-1.784-2.016-2.328-0.864-0.544-1.904-0.816-3.12-0.816-1.168 0-2.216 0.272-3.144 0.816s-1.656 1.32-2.184 2.328c-0.528 0.992-0.792 2.16-0.792 3.504 0 1.328 0.264 2.496 0.792 3.504 0.528 0.992 1.256 1.76 2.184 2.304s1.976 0.816 3.144 0.816c1.216 0 2.256-0.264 3.12-0.792 0.88-0.544 1.552-1.32 2.016-2.328h2.616c-0.624 1.6-1.616 2.84-2.976 3.72-1.36 0.864-2.952 1.296-4.776 1.296-1.552 0-2.968-0.36-4.248-1.08-1.264-0.736-2.264-1.752-3-3.048s-1.104-2.76-1.104-4.392zm31.019-3.456c0 1.392-0.48 2.552-1.44 3.48-0.944 0.912-2.392 1.368-4.344 1.368h-3.216v6.984h-2.184v-16.728h5.4c1.888 0 3.32 0.456 4.296 1.368 0.992 0.912 1.488 2.088 1.488 3.528zm-5.784 3.048c1.216 0 2.112-0.264 2.688-0.792s0.864-1.28 0.864-2.256c0-2.064-1.184-3.096-3.552-3.096h-3.216v6.144zm18.866 5.064h-7.296l-1.344 3.72h-2.304l6.048-16.632h2.52l6.024 16.632h-2.304zm-0.624-1.776-3.024-8.448-3.024 8.448zm9.644 2.472-2.688 6.456h-1.464l1.752-6.456zm9.044-5.352c0-1.632 0.368-3.096 1.104-4.392 0.736-1.312 1.736-2.336 3-3.072 1.28-0.736 2.696-1.104 4.248-1.104 1.824 0 3.416 0.44 4.776 1.32s2.352 2.128 2.976 3.744h-2.616c-0.464-1.008-1.136-1.784-2.016-2.328-0.864-0.544-1.904-0.816-3.12-0.816-1.168 0-2.216 0.272-3.144 0.816s-1.656 1.32-2.184 2.328c-0.528 0.992-0.792 2.16-0.792 3.504 0 1.328 0.264 2.496 0.792 3.504 0.528 0.992 1.256 1.76 2.184 2.304s1.976 0.816 3.144 0.816c1.216 0 2.256-0.264 3.12-0.792 0.88-0.544 1.552-1.32 2.016-2.328h2.616c-0.624 1.6-1.616 2.84-2.976 3.72-1.36 0.864-2.952 1.296-4.776 1.296-1.552 0-2.968-0.36-4.248-1.08-1.264-0.736-2.264-1.752-3-3.048s-1.104-2.76-1.104-4.392zm32.507-3.504c-0.464-0.976-1.136-1.728-2.016-2.256-0.88-0.544-1.904-0.816-3.072-0.816s-2.224 0.272-3.168 0.816c-0.928 0.528-1.664 1.296-2.208 2.304-0.528 0.992-0.792 2.144-0.792 3.456s0.264 2.464 0.792 3.456c0.544 0.992 1.28 1.76 2.208 2.304 0.944 0.528 2 0.792 3.168 0.792 1.632 0 2.976-0.488 4.032-1.464s1.672-2.296 1.848-3.96h-6.672v-1.776h9v1.68c-0.128 1.376-0.56 2.64-1.296 3.792-0.736 1.136-1.704 2.04-2.904 2.712-1.2 0.656-2.536 0.984-4.008 0.984-1.552 0-2.968-0.36-4.248-1.08-1.28-0.736-2.296-1.752-3.048-3.048-0.736-1.296-1.104-2.76-1.104-4.392s0.368-3.096 1.104-4.392c0.752-1.312 1.768-2.328 3.048-3.048 1.28-0.736 2.696-1.104 4.248-1.104 1.776 0 3.344 0.44 4.704 1.32 1.376 0.88 2.376 2.12 3 3.72zm16.376 8.16h-7.296l-1.344 3.72h-2.304l6.048-16.632h2.52l6.024 16.632h-2.304zm-0.624-1.776-3.024-8.448-3.024 8.448zm8.084 5.64c-0.416 0-0.768-0.144-1.056-0.432s-0.432-0.64-0.432-1.056 0.144-0.768 0.432-1.056 0.64-0.432 1.056-0.432c0.4 0 0.736 0.144 1.008 0.432 0.288 0.288 0.432 0.64 0.432 1.056s-0.144 0.768-0.432 1.056c-0.272 0.288-0.608 0.432-1.008 0.432z"/>
  <path d="m388.72 138.04c0-2.72 0.613-5.16 1.84-7.32 1.227-2.187 2.893-3.893 5-5.12 2.133-1.227 4.493-1.84 7.08-1.84 3.04 0 5.693 0.733 7.96 2.2s3.92 3.547 4.96 6.24h-4.36c-0.773-1.68-1.893-2.973-3.36-3.88-1.44-0.907-3.173-1.36-5.2-1.36-1.947 0-3.693 0.453-5.24 1.36s-2.76 2.2-3.64 3.88c-0.88 1.653-1.32 3.6-1.32 5.84 0 2.213 0.44 4.16 1.32 5.84 0.88 1.653 2.093 2.933 3.64 3.84s3.293 1.36 5.24 1.36c2.027 0 3.76-0.44 5.2-1.32 1.467-0.907 2.587-2.2 3.36-3.88h4.36c-1.04 2.667-2.693 4.733-4.96 6.2-2.267 1.44-4.92 2.16-7.96 2.16-2.587 0-4.947-0.6-7.08-1.8-2.107-1.227-3.773-2.92-5-5.08s-1.84-4.6-1.84-7.32zm42.618 14.32c-2.053 0-3.92-0.467-5.6-1.4-1.653-0.933-2.96-2.253-3.92-3.96-0.933-1.733-1.4-3.733-1.4-6 0-2.24 0.48-4.213 1.44-5.92 0.987-1.733 2.32-3.053 4-3.96 1.68-0.933 3.56-1.4 5.64-1.4s3.96 0.467 5.64 1.4c1.68 0.907 3 2.213 3.96 3.92 0.987 1.707 1.48 3.693 1.48 5.96s-0.506 4.267-1.52 6c-0.986 1.707-2.333 3.027-4.04 3.96-1.706 0.933-3.6 1.4-5.68 1.4zm0-3.2c1.307 0 2.534-0.307 3.68-0.92 1.147-0.613 2.067-1.533 2.76-2.76 0.72-1.227 1.08-2.72 1.08-4.48s-0.346-3.253-1.04-4.48c-0.693-1.227-1.6-2.133-2.72-2.72-1.12-0.613-2.333-0.92-3.64-0.92-1.333 0-2.56 0.307-3.68 0.92-1.093 0.587-1.973 1.493-2.64 2.72-0.666 1.227-1 2.72-1 4.48 0 1.787 0.32 3.293 0.96 4.52 0.667 1.227 1.547 2.147 2.64 2.76 1.094 0.587 2.294 0.88 3.6 0.88zm20.466-15.52c0.64-1.253 1.547-2.227 2.72-2.92 1.2-0.693 2.654-1.04 4.36-1.04v3.76h-0.96c-4.08 0-6.12 2.213-6.12 6.64v11.92h-3.64v-21.92h3.64zm15.722 0.48c0.72-1.253 1.787-2.293 3.2-3.12 1.44-0.853 3.107-1.28 5-1.28 1.947 0 3.707 0.467 5.28 1.4 1.6 0.933 2.854 2.253 3.76 3.96 0.907 1.68 1.36 3.64 1.36 5.88 0 2.213-0.453 4.187-1.36 5.92-0.906 1.733-2.16 3.08-3.76 4.04-1.573 0.96-3.333 1.44-5.28 1.44-1.866 0-3.52-0.413-4.96-1.24-1.413-0.853-2.493-1.907-3.24-3.16v14.44h-3.64v-32.32h3.64zm14.88 6.84c0-1.653-0.333-3.093-1-4.32-0.666-1.227-1.573-2.16-2.72-2.8-1.12-0.64-2.36-0.96-3.72-0.96-1.333 0-2.573 0.333-3.72 1-1.12 0.64-2.026 1.587-2.72 2.84-0.666 1.227-1 2.653-1 4.28 0 1.653 0.334 3.107 1 4.36 0.694 1.227 1.6 2.173 2.72 2.84 1.147 0.64 2.387 0.96 3.72 0.96 1.36 0 2.6-0.32 3.72-0.96 1.147-0.667 2.054-1.613 2.72-2.84 0.667-1.253 1-2.72 1-4.4zm18.871 11.4c-2.053 0-3.92-0.467-5.6-1.4-1.653-0.933-2.96-2.253-3.92-3.96-0.933-1.733-1.4-3.733-1.4-6 0-2.24 0.48-4.213 1.44-5.92 0.987-1.733 2.32-3.053 4-3.96 1.68-0.933 3.56-1.4 5.64-1.4s3.96 0.467 5.64 1.4c1.68 0.907 3 2.213 3.96 3.92 0.987 1.707 1.48 3.693 1.48 5.96s-0.506 4.267-1.52 6c-0.986 1.707-2.333 3.027-4.04 3.96-1.706 0.933-3.6 1.4-5.68 1.4zm0-3.2c1.307 0 2.534-0.307 3.68-0.92 1.147-0.613 2.067-1.533 2.76-2.76 0.72-1.227 1.08-2.72 1.08-4.48s-0.346-3.253-1.04-4.48c-0.693-1.227-1.6-2.133-2.72-2.72-1.12-0.613-2.333-0.92-3.64-0.92-1.333 0-2.56 0.307-3.68 0.92-1.093 0.587-1.973 1.493-2.64 2.72-0.666 1.227-1 2.72-1 4.48 0 1.787 0.32 3.293 0.96 4.52 0.667 1.227 1.547 2.147 2.64 2.76 1.094 0.587 2.294 0.88 3.6 0.88zm20.466-15.52c0.64-1.253 1.547-2.227 2.72-2.92 1.2-0.693 2.654-1.04 4.36-1.04v3.76h-0.96c-4.08 0-6.12 2.213-6.12 6.64v11.92h-3.64v-21.92h3.64zm10.722 7.32c0-2.24 0.454-4.2 1.36-5.88 0.907-1.707 2.147-3.027 3.72-3.96 1.6-0.933 3.374-1.4 5.32-1.4 1.92 0 3.587 0.413 5 1.24 1.414 0.827 2.467 1.867 3.16 3.12v-4h3.68v21.92h-3.68v-4.08c-0.72 1.28-1.8 2.347-3.24 3.2-1.413 0.827-3.066 1.24-4.96 1.24-1.946 0-3.706-0.48-5.28-1.44-1.573-0.96-2.813-2.307-3.72-4.04-0.906-1.733-1.36-3.707-1.36-5.92zm18.56 0.04c0-1.653-0.333-3.093-1-4.32-0.666-1.227-1.573-2.16-2.72-2.8-1.12-0.667-2.36-1-3.72-1s-2.6 0.32-3.72 0.96-2.013 1.573-2.68 2.8c-0.666 1.227-1 2.667-1 4.32 0 1.68 0.334 3.147 1 4.4 0.667 1.227 1.56 2.173 2.68 2.84 1.12 0.64 2.36 0.96 3.72 0.96s2.6-0.32 3.72-0.96c1.147-0.667 2.054-1.613 2.72-2.84 0.667-1.253 1-2.707 1-4.36zm15.072-7.92v12.92c0 1.067 0.226 1.827 0.68 2.28 0.453 0.427 1.24 0.64 2.36 0.64h2.68v3.08h-3.28c-2.027 0-3.547-0.467-4.56-1.4-1.014-0.933-1.52-2.467-1.52-4.6v-12.92h-2.84v-3h2.84v-5.52h3.64v5.52h5.72v3zm30.93 7.12c0 0.693-0.04 1.427-0.12 2.2h-17.52c0.133 2.16 0.867 3.853 2.2 5.08 1.36 1.2 3 1.8 4.92 1.8 1.573 0 2.88-0.36 3.92-1.08 1.067-0.747 1.813-1.733 2.24-2.96h3.92c-0.587 2.107-1.76 3.827-3.52 5.16-1.76 1.307-3.947 1.96-6.56 1.96-2.08 0-3.947-0.467-5.6-1.4-1.627-0.933-2.907-2.253-3.84-3.96-0.933-1.733-1.4-3.733-1.4-6s0.453-4.253 1.36-5.96 2.173-3.013 3.8-3.92c1.653-0.933 3.547-1.4 5.68-1.4 2.08 0 3.92 0.453 5.52 1.36s2.827 2.16 3.68 3.76c0.88 1.573 1.32 3.36 1.32 5.36zm-3.76-0.76c0-1.387-0.307-2.573-0.92-3.56-0.613-1.013-1.453-1.773-2.52-2.28-1.04-0.533-2.2-0.8-3.48-0.8-1.84 0-3.413 0.587-4.72 1.76-1.28 1.173-2.013 2.8-2.2 4.88zm36.589-15.32v2.96h-12.12v9.4h9.84v2.96h-9.84v12.56h-3.64v-27.88zm7.076 2.4c-0.693 0-1.28-0.24-1.76-0.72s-0.72-1.067-0.72-1.76 0.24-1.28 0.72-1.76 1.067-0.72 1.76-0.72c0.667 0 1.227 0.24 1.68 0.72 0.48 0.48 0.72 1.067 0.72 1.76s-0.24 1.28-0.72 1.76c-0.453 0.48-1.013 0.72-1.68 0.72zm1.76 3.56v21.92h-3.64v-21.92zm17.684-0.4c2.666 0 4.826 0.813 6.48 2.44 1.653 1.6 2.48 3.92 2.48 6.96v12.92h-3.6v-12.4c0-2.187-0.547-3.853-1.64-5-1.094-1.173-2.587-1.76-4.48-1.76-1.92 0-3.454 0.6-4.6 1.8-1.12 1.2-1.68 2.947-1.68 5.24v12.12h-3.64v-21.92h3.64v3.12c0.72-1.12 1.693-1.987 2.92-2.6 1.253-0.613 2.626-0.92 4.12-0.92zm14.346 11.28c0-2.24 0.453-4.2 1.36-5.88 0.906-1.707 2.146-3.027 3.72-3.96 1.6-0.933 3.373-1.4 5.32-1.4 1.92 0 3.586 0.413 5 1.24 1.413 0.827 2.466 1.867 3.16 3.12v-4h3.68v21.92h-3.68v-4.08c-0.72 1.28-1.8 2.347-3.24 3.2-1.414 0.827-3.067 1.24-4.96 1.24-1.947 0-3.707-0.48-5.28-1.44-1.574-0.96-2.814-2.307-3.72-4.04-0.907-1.733-1.36-3.707-1.36-5.92zm18.56 0.04c0-1.653-0.334-3.093-1-4.32-0.667-1.227-1.574-2.16-2.72-2.8-1.12-0.667-2.36-1-3.72-1s-2.6 0.32-3.72 0.96-2.014 1.573-2.68 2.8c-0.667 1.227-1 2.667-1 4.32 0 1.68 0.333 3.147 1 4.4 0.666 1.227 1.56 2.173 2.68 2.84 1.12 0.64 2.36 0.96 3.72 0.96s2.6-0.32 3.72-0.96c1.146-0.667 2.053-1.613 2.72-2.84 0.666-1.253 1-2.707 1-4.36zm21.311-11.32c2.666 0 4.826 0.813 6.48 2.44 1.653 1.6 2.48 3.92 2.48 6.96v12.92h-3.6v-12.4c0-2.187-0.547-3.853-1.64-5-1.094-1.173-2.587-1.76-4.48-1.76-1.92 0-3.454 0.6-4.6 1.8-1.12 1.2-1.68 2.947-1.68 5.24v12.12h-3.64v-21.92h3.64v3.12c0.72-1.12 1.693-1.987 2.92-2.6 1.253-0.613 2.626-0.92 4.12-0.92zm14.346 11.32c0-2.267 0.453-4.24 1.36-5.92 0.906-1.707 2.16-3.027 3.76-3.96 1.626-0.933 3.48-1.4 5.56-1.4 2.693 0 4.906 0.653 6.64 1.96 1.76 1.307 2.92 3.12 3.48 5.44h-3.92c-0.374-1.333-1.107-2.387-2.2-3.16-1.067-0.773-2.4-1.16-4-1.16-2.08 0-3.76 0.72-5.04 2.16-1.28 1.413-1.92 3.427-1.92 6.04 0 2.64 0.64 4.68 1.92 6.12s2.96 2.16 5.04 2.16c1.6 0 2.933-0.373 4-1.12 1.066-0.747 1.8-1.813 2.2-3.2h3.92c-0.587 2.24-1.76 4.04-3.52 5.4-1.76 1.333-3.96 2-6.6 2-2.08 0-3.934-0.467-5.56-1.4-1.6-0.933-2.854-2.253-3.76-3.96-0.907-1.707-1.36-3.707-1.36-6zm46.457-0.8c0 0.693-0.04 1.427-0.12 2.2h-17.52c0.133 2.16 0.866 3.853 2.2 5.08 1.36 1.2 3 1.8 4.92 1.8 1.573 0 2.88-0.36 3.92-1.08 1.066-0.747 1.813-1.733 2.24-2.96h3.92c-0.587 2.107-1.76 3.827-3.52 5.16-1.76 1.307-3.947 1.96-6.56 1.96-2.08 0-3.947-0.467-5.6-1.4-1.627-0.933-2.907-2.253-3.84-3.96-0.934-1.733-1.4-3.733-1.4-6s0.453-4.253 1.36-5.96c0.906-1.707 2.173-3.013 3.8-3.92 1.653-0.933 3.546-1.4 5.68-1.4 2.08 0 3.92 0.453 5.52 1.36s2.826 2.16 3.68 3.76c0.88 1.573 1.32 3.36 1.32 5.36zm-3.76-0.76c0-1.387-0.307-2.573-0.92-3.56-0.614-1.013-1.454-1.773-2.52-2.28-1.04-0.533-2.2-0.8-3.48-0.8-1.84 0-3.414 0.587-4.72 1.76-1.28 1.173-2.014 2.8-2.2 4.88zm24.468-15.32v27.88h-3.64v-27.88zm17.684 5.56c2.667 0 4.827 0.813 6.48 2.44 1.653 1.6 2.48 3.92 2.48 6.96v12.92h-3.6v-12.4c0-2.187-0.547-3.853-1.64-5-1.093-1.173-2.587-1.76-4.48-1.76-1.92 0-3.453 0.6-4.6 1.8-1.12 1.2-1.68 2.947-1.68 5.24v12.12h-3.64v-21.92h3.64v3.12c0.72-1.12 1.693-1.987 2.92-2.6 1.253-0.613 2.627-0.92 4.12-0.92zm23.466 22.68c-1.68 0-3.187-0.28-4.52-0.84-1.333-0.587-2.387-1.387-3.16-2.4-0.773-1.04-1.2-2.227-1.28-3.56h3.76c0.107 1.093 0.613 1.987 1.52 2.68 0.933 0.693 2.147 1.04 3.64 1.04 1.387 0 2.48-0.307 3.28-0.92s1.2-1.387 1.2-2.32c0-0.96-0.427-1.667-1.28-2.12-0.853-0.48-2.173-0.947-3.96-1.4-1.627-0.427-2.96-0.853-4-1.28-1.013-0.453-1.893-1.107-2.64-1.96-0.72-0.88-1.08-2.027-1.08-3.44 0-1.12 0.333-2.147 1-3.08s1.613-1.667 2.84-2.2c1.227-0.56 2.627-0.84 4.2-0.84 2.427 0 4.387 0.613 5.88 1.84s2.293 2.907 2.4 5.04h-3.64c-0.08-1.147-0.547-2.067-1.4-2.76-0.827-0.693-1.947-1.04-3.36-1.04-1.307 0-2.347 0.28-3.12 0.84s-1.16 1.293-1.16 2.2c0 0.72 0.227 1.32 0.68 1.8 0.48 0.453 1.067 0.827 1.76 1.12 0.72 0.267 1.707 0.573 2.96 0.92 1.573 0.427 2.853 0.853 3.84 1.28 0.987 0.4 1.827 1.013 2.52 1.84 0.72 0.827 1.093 1.907 1.12 3.24 0 1.2-0.333 2.28-1 3.24s-1.613 1.72-2.84 2.28c-1.2 0.533-2.587 0.8-4.16 0.8zm18.378-19.28v12.92c0 1.067 0.227 1.827 0.68 2.28 0.454 0.427 1.24 0.64 2.36 0.64h2.68v3.08h-3.28c-2.026 0-3.546-0.467-4.56-1.4-1.013-0.933-1.52-2.467-1.52-4.6v-12.92h-2.84v-3h2.84v-5.52h3.64v5.52h5.72v3zm12.811-6.56c-0.694 0-1.28-0.24-1.76-0.72s-0.72-1.067-0.72-1.76 0.24-1.28 0.72-1.76 1.066-0.72 1.76-0.72c0.666 0 1.226 0.24 1.68 0.72 0.48 0.48 0.72 1.067 0.72 1.76s-0.24 1.28-0.72 1.76c-0.454 0.48-1.014 0.72-1.68 0.72zm1.76 3.56v21.92h-3.64v-21.92zm11.444 3v12.92c0 1.067 0.226 1.827 0.68 2.28 0.453 0.427 1.24 0.64 2.36 0.64h2.68v3.08h-3.28c-2.027 0-3.547-0.467-4.56-1.4-1.014-0.933-1.52-2.467-1.52-4.6v-12.92h-2.84v-3h2.84v-5.52h3.64v5.52h5.72v3zm30.37-3v21.92h-3.64v-3.24c-0.693 1.12-1.667 2-2.92 2.64-1.227 0.613-2.587 0.92-4.08 0.92-1.707 0-3.24-0.347-4.6-1.04-1.36-0.72-2.44-1.787-3.24-3.2-0.773-1.413-1.16-3.133-1.16-5.16v-12.84h3.6v12.36c0 2.16 0.547 3.827 1.64 5 1.093 1.147 2.587 1.72 4.48 1.72 1.947 0 3.48-0.6 4.6-1.8s1.68-2.947 1.68-5.24v-12.04zm11.386 3v12.92c0 1.067 0.226 1.827 0.68 2.28 0.453 0.427 1.24 0.64 2.36 0.64h2.68v3.08h-3.28c-2.027 0-3.547-0.467-4.56-1.4-1.014-0.933-1.52-2.467-1.52-4.6v-12.92h-2.84v-3h2.84v-5.52h3.64v5.52h5.72v3zm30.93 7.12c0 0.693-0.04 1.427-0.12 2.2h-17.52c0.133 2.16 0.867 3.853 2.2 5.08 1.36 1.2 3 1.8 4.92 1.8 1.573 0 2.88-0.36 3.92-1.08 1.067-0.747 1.813-1.733 2.24-2.96h3.92c-0.587 2.107-1.76 3.827-3.52 5.16-1.76 1.307-3.947 1.96-6.56 1.96-2.08 0-3.947-0.467-5.6-1.4-1.627-0.933-2.907-2.253-3.84-3.96-0.933-1.733-1.4-3.733-1.4-6s0.453-4.253 1.36-5.96 2.173-3.013 3.8-3.92c1.653-0.933 3.547-1.4 5.68-1.4 2.08 0 3.92 0.453 5.52 1.36s2.827 2.16 3.68 3.76c0.88 1.573 1.32 3.36 1.32 5.36zm-3.76-0.76c0-1.387-0.307-2.573-0.92-3.56-0.613-1.013-1.453-1.773-2.52-2.28-1.04-0.533-2.2-0.8-3.48-0.8-1.84 0-3.413 0.587-4.72 1.76-1.28 1.173-2.013 2.8-2.2 4.88z"/>
 </g>
 <defs>
  <linearGradient id="paint0_linear_220_3" x1="7.5299" x2="788.85" y1="5.9953e-7" y2="930.61" gradientTransform="translate(1)" gradientUnits="userSpaceOnUse">
   <stop stop-color="#74EBD5" offset="0"/>
   <stop stop-color="#9FACE6" offset=".91754"/>
  </linearGradient>
  <linearGradient id="paint1_linear_220_3" x1="65.633" x2="1375.8" y1="-.00012865" y2="130.65" gradientTransform="translate(1)" gradientUnits="userSpaceOnUse">
   <stop stop-color="#9094FF" offset="0"/>
   <stop stop-color="#55F4C5" offset=".66458"/>
   <stop stop-color="#A659F3" offset="1"/>
  </linearGradient>
 </defs>
 <rect y="1.794e-6" width="1372" height="424"/>
 <rect y="1.794e-6" width="1372" height="424"/>
</svg>
