<svg width="154" height="25" viewBox="0 0 154 25" fill="none" xmlns="http://www.w3.org/2000/svg">
<path d="M33.688 6.9813V18.1333H32.232V6.9813H33.688ZM46.7135 9.2053C47.3962 9.2053 48.0042 9.3493 48.5375 9.6373C49.0708 9.91463 49.4922 10.336 49.8015 10.9013C50.1108 11.4666 50.2655 12.1546 50.2655 12.9653V18.1333H48.8255V13.1733C48.8255 12.2986 48.6068 11.632 48.1695 11.1733C47.7428 10.704 47.1615 10.4693 46.4255 10.4693C45.6682 10.4693 45.0655 10.7146 44.6175 11.2053C44.1695 11.6853 43.9455 12.384 43.9455 13.3013V18.1333H42.5055V13.1733C42.5055 12.2986 42.2868 11.632 41.8495 11.1733C41.4228 10.704 40.8415 10.4693 40.1055 10.4693C39.3482 10.4693 38.7455 10.7146 38.2975 11.2053C37.8495 11.6853 37.6255 12.384 37.6255 13.3013V18.1333H36.1695V9.3653H37.6255V10.6293C37.9135 10.1706 38.2975 9.81863 38.7775 9.5733C39.2682 9.32797 39.8068 9.2053 40.3935 9.2053C41.1295 9.2053 41.7802 9.37063 42.3455 9.7013C42.9108 10.032 43.3322 10.5173 43.6095 11.1573C43.8548 10.5386 44.2602 10.0586 44.8255 9.7173C45.3908 9.37597 46.0202 9.2053 46.7135 9.2053ZM54.1099 10.9813C54.3979 10.48 54.8245 10.064 55.3899 9.7333C55.9659 9.39197 56.6325 9.2213 57.3899 9.2213C58.1685 9.2213 58.8725 9.40797 59.5019 9.7813C60.1419 10.1546 60.6432 10.6826 61.0059 11.3653C61.3685 12.0373 61.5499 12.8213 61.5499 13.7173C61.5499 14.6026 61.3685 15.392 61.0059 16.0853C60.6432 16.7786 60.1419 17.3173 59.5019 17.7013C58.8725 18.0853 58.1685 18.2773 57.3899 18.2773C56.6432 18.2773 55.9819 18.112 55.4059 17.7813C54.8405 17.44 54.4085 17.0186 54.1099 16.5173V22.2933H52.6539V9.3653H54.1099V10.9813ZM60.0619 13.7173C60.0619 13.056 59.9285 12.48 59.6619 11.9893C59.3952 11.4986 59.0325 11.1253 58.5739 10.8693C58.1259 10.6133 57.6299 10.4853 57.0859 10.4853C56.5525 10.4853 56.0565 10.6186 55.5979 10.8853C55.1499 11.1413 54.7872 11.52 54.5099 12.0213C54.2432 12.512 54.1099 13.0826 54.1099 13.7333C54.1099 14.3946 54.2432 14.976 54.5099 15.4773C54.7872 15.968 55.1499 16.3466 55.5979 16.6133C56.0565 16.8693 56.5525 16.9973 57.0859 16.9973C57.6299 16.9973 58.1259 16.8693 58.5739 16.6133C59.0325 16.3466 59.3952 15.968 59.6619 15.4773C59.9285 14.976 60.0619 14.3893 60.0619 13.7173ZM67.2904 18.2773C66.469 18.2773 65.7224 18.0906 65.0504 17.7173C64.389 17.344 63.8664 16.816 63.4824 16.1333C63.109 15.44 62.9224 14.64 62.9224 13.7333C62.9224 12.8373 63.1144 12.048 63.4984 11.3653C63.893 10.672 64.4264 10.144 65.0984 9.7813C65.7704 9.40797 66.5224 9.2213 67.3544 9.2213C68.1864 9.2213 68.9384 9.40797 69.6104 9.7813C70.2824 10.144 70.8104 10.6666 71.1944 11.3493C71.589 12.032 71.7864 12.8266 71.7864 13.7333C71.7864 14.64 71.5837 15.44 71.1784 16.1333C70.7837 16.816 70.245 17.344 69.5624 17.7173C68.8797 18.0906 68.1224 18.2773 67.2904 18.2773ZM67.2904 16.9973C67.813 16.9973 68.3037 16.8746 68.7624 16.6293C69.221 16.384 69.589 16.016 69.8664 15.5253C70.1544 15.0346 70.2984 14.4373 70.2984 13.7333C70.2984 13.0293 70.1597 12.432 69.8824 11.9413C69.605 11.4506 69.2424 11.088 68.7944 10.8533C68.3464 10.608 67.861 10.4853 67.3384 10.4853C66.805 10.4853 66.3144 10.608 65.8664 10.8533C65.429 11.088 65.077 11.4506 64.8104 11.9413C64.5437 12.432 64.4104 13.0293 64.4104 13.7333C64.4104 14.448 64.5384 15.0506 64.7944 15.5413C65.061 16.032 65.413 16.4 65.8504 16.6453C66.2877 16.88 66.7677 16.9973 67.2904 16.9973ZM75.1568 10.7893C75.4128 10.288 75.7754 9.89863 76.2448 9.6213C76.7248 9.34397 77.3061 9.2053 77.9888 9.2053V10.7093H77.6048C75.9728 10.7093 75.1568 11.5946 75.1568 13.3653V18.1333H73.7008V9.3653H75.1568V10.7893ZM81.4455 10.5653V15.7333C81.4455 16.16 81.5362 16.464 81.7175 16.6453C81.8988 16.816 82.2135 16.9013 82.6615 16.9013H83.7335V18.1333H82.4215C81.6108 18.1333 81.0028 17.9466 80.5975 17.5733C80.1922 17.2 79.9895 16.5866 79.9895 15.7333V10.5653H78.8535V9.3653H79.9895V7.1573H81.4455V9.3653H83.7335V10.5653H81.4455ZM93.3313 10.5653H91.4913V18.1333H90.0353V10.5653H88.8993V9.3653H90.0353V8.7413C90.0353 7.75997 90.2859 7.0453 90.7873 6.5973C91.2993 6.13863 92.1153 5.9093 93.2352 5.9093V7.1253C92.5953 7.1253 92.1419 7.2533 91.8753 7.5093C91.6193 7.75463 91.4913 8.1653 91.4913 8.7413V9.3653H93.3313V10.5653ZM96.4849 10.7893C96.7409 10.288 97.1035 9.89863 97.5729 9.6213C98.0529 9.34397 98.6342 9.2053 99.3169 9.2053V10.7093H98.9329C97.3009 10.7093 96.4849 11.5946 96.4849 13.3653V18.1333H95.0289V9.3653H96.4849V10.7893ZM104.822 18.2773C104 18.2773 103.254 18.0906 102.582 17.7173C101.92 17.344 101.398 16.816 101.014 16.1333C100.64 15.44 100.454 14.64 100.454 13.7333C100.454 12.8373 100.646 12.048 101.03 11.3653C101.424 10.672 101.958 10.144 102.63 9.7813C103.302 9.40797 104.054 9.2213 104.886 9.2213C105.718 9.2213 106.47 9.40797 107.142 9.7813C107.814 10.144 108.342 10.6666 108.726 11.3493C109.12 12.032 109.318 12.8266 109.318 13.7333C109.318 14.64 109.115 15.44 108.71 16.1333C108.315 16.816 107.776 17.344 107.094 17.7173C106.411 18.0906 105.654 18.2773 104.822 18.2773ZM104.822 16.9973C105.344 16.9973 105.835 16.8746 106.294 16.6293C106.752 16.384 107.12 16.016 107.398 15.5253C107.686 15.0346 107.83 14.4373 107.83 13.7333C107.83 13.0293 107.691 12.432 107.414 11.9413C107.136 11.4506 106.774 11.088 106.326 10.8533C105.878 10.608 105.392 10.4853 104.87 10.4853C104.336 10.4853 103.846 10.608 103.398 10.8533C102.96 11.088 102.608 11.4506 102.342 11.9413C102.075 12.432 101.942 13.0293 101.942 13.7333C101.942 14.448 102.07 15.0506 102.326 15.5413C102.592 16.032 102.944 16.4 103.382 16.6453C103.819 16.88 104.299 16.9973 104.822 16.9973ZM121.776 9.2053C122.459 9.2053 123.067 9.3493 123.6 9.6373C124.133 9.91463 124.555 10.336 124.864 10.9013C125.173 11.4666 125.328 12.1546 125.328 12.9653V18.1333H123.888V13.1733C123.888 12.2986 123.669 11.632 123.232 11.1733C122.805 10.704 122.224 10.4693 121.488 10.4693C120.731 10.4693 120.128 10.7146 119.68 11.2053C119.232 11.6853 119.008 12.384 119.008 13.3013V18.1333H117.568V13.1733C117.568 12.2986 117.349 11.632 116.912 11.1733C116.485 10.704 115.904 10.4693 115.168 10.4693C114.411 10.4693 113.808 10.7146 113.36 11.2053C112.912 11.6853 112.688 12.384 112.688 13.3013V18.1333H111.232V9.3653H112.688V10.6293C112.976 10.1706 113.36 9.81863 113.84 9.5733C114.331 9.32797 114.869 9.2053 115.456 9.2053C116.192 9.2053 116.843 9.37063 117.408 9.7013C117.973 10.032 118.395 10.5173 118.672 11.1573C118.917 10.5386 119.323 10.0586 119.888 9.7173C120.453 9.37597 121.083 9.2053 121.776 9.2053ZM135.55 10.5653H133.71V18.1333H132.254V10.5653H131.118V9.3653H132.254V8.7413C132.254 7.75997 132.505 7.0453 133.006 6.5973C133.518 6.13863 134.334 5.9093 135.454 5.9093V7.1253C134.814 7.1253 134.361 7.2533 134.094 7.5093C133.838 7.75463 133.71 8.1653 133.71 8.7413V9.3653H135.55V10.5653ZM138 7.9413C137.722 7.9413 137.488 7.8453 137.296 7.6533C137.104 7.4613 137.008 7.22663 137.008 6.9493C137.008 6.67197 137.104 6.4373 137.296 6.2453C137.488 6.0533 137.722 5.9573 138 5.9573C138.266 5.9573 138.49 6.0533 138.672 6.2453C138.864 6.4373 138.96 6.67197 138.96 6.9493C138.96 7.22663 138.864 7.4613 138.672 7.6533C138.49 7.8453 138.266 7.9413 138 7.9413ZM138.704 9.3653V18.1333H137.248V9.3653H138.704ZM142.641 6.2933V18.1333H141.185V6.2933H142.641ZM153.123 13.4133C153.123 13.6906 153.107 13.984 153.075 14.2933H146.067C146.12 15.1573 146.413 15.8346 146.947 16.3253C147.491 16.8053 148.147 17.0453 148.915 17.0453C149.544 17.0453 150.067 16.9013 150.483 16.6133C150.909 16.3146 151.208 15.92 151.379 15.4293H152.947C152.712 16.272 152.243 16.96 151.539 17.4933C150.835 18.016 149.96 18.2773 148.915 18.2773C148.083 18.2773 147.336 18.0906 146.675 17.7173C146.024 17.344 145.512 16.816 145.139 16.1333C144.765 15.44 144.579 14.64 144.579 13.7333C144.579 12.8266 144.76 12.032 145.123 11.3493C145.485 10.6666 145.992 10.144 146.643 9.7813C147.304 9.40797 148.061 9.2213 148.915 9.2213C149.747 9.2213 150.483 9.40263 151.123 9.7653C151.763 10.128 152.253 10.6293 152.595 11.2693C152.947 11.8986 153.123 12.6133 153.123 13.4133ZM151.619 13.1093C151.619 12.5546 151.496 12.08 151.251 11.6853C151.005 11.28 150.669 10.976 150.243 10.7733C149.827 10.56 149.363 10.4533 148.851 10.4533C148.115 10.4533 147.485 10.688 146.963 11.1573C146.451 11.6266 146.157 12.2773 146.083 13.1093H151.619Z" fill="#4148FF"/>
<path d="M14 2.1333H6C5.46957 2.1333 4.96086 2.34401 4.58579 2.71909C4.21071 3.09416 4 3.60287 4 4.1333V20.1333C4 20.6637 4.21071 21.1724 4.58579 21.5475C4.96086 21.9226 5.46957 22.1333 6 22.1333H18C18.5304 22.1333 19.0391 21.9226 19.4142 21.5475C19.7893 21.1724 20 20.6637 20 20.1333V8.1333L14 2.1333Z" stroke="#4148FF" stroke-width="2" stroke-linecap="round" stroke-linejoin="round"/>
<path d="M14 2.1333V8.1333H20" stroke="#4148FF" stroke-width="2" stroke-linecap="round" stroke-linejoin="round"/>
<path d="M12 18.1333V12.1333" stroke="#4148FF" stroke-width="2" stroke-linecap="round" stroke-linejoin="round"/>
<path d="M9 15.1333H15" stroke="#4148FF" stroke-width="2" stroke-linecap="round" stroke-linejoin="round"/>
</svg>
