<svg width="427" height="59" viewBox="0 0 427 59" fill="none" xmlns="http://www.w3.org/2000/svg">
<line x1="199.49" y1="19.7944" x2="77.697" y2="19.7944" stroke="#656565" stroke-width="0.553605"/>
<line x1="378.305" y1="19.7944" x2="256.511" y2="19.7944" stroke="#656565" stroke-width="0.553605"/>
<circle cx="45.8652" cy="18.6875" r="17.4386" stroke="url(#paint0_linear_168_3523)" stroke-width="1.10721"/>
<path d="M1.22219 48.6905C1.22219 47.9376 1.39197 47.2622 1.73151 46.6643C2.07106 46.059 2.53239 45.5866 3.11553 45.2471C3.70604 44.9075 4.35929 44.7378 5.07529 44.7378C5.91677 44.7378 6.65122 44.9408 7.27864 45.3467C7.90606 45.7527 8.36371 46.3285 8.65158 47.074H7.44472C7.23066 46.609 6.92064 46.251 6.51466 46C6.11607 45.749 5.63628 45.6235 5.07529 45.6235C4.53645 45.6235 4.05296 45.749 3.62484 46C3.19672 46.251 2.86087 46.609 2.61728 47.074C2.37369 47.5316 2.2519 48.0705 2.2519 48.6905C2.2519 49.3032 2.37369 49.842 2.61728 50.307C2.86087 50.7647 3.19672 51.119 3.62484 51.37C4.05296 51.6209 4.53645 51.7464 5.07529 51.7464C5.63628 51.7464 6.11607 51.6246 6.51466 51.381C6.92064 51.1301 7.23066 50.7721 7.44472 50.307H8.65158C8.36371 51.0452 7.90606 51.6172 7.27864 52.0232C6.65122 52.4218 5.91677 52.6211 5.07529 52.6211C4.35929 52.6211 3.70604 52.455 3.11553 52.1229C2.53239 51.7833 2.07106 51.3146 1.73151 50.7167C1.39197 50.1188 1.22219 49.4434 1.22219 48.6905ZM11.159 47.4726C11.3361 47.1257 11.5871 46.8562 11.9119 46.6643C12.244 46.4724 12.6463 46.3764 13.1187 46.3764V47.4172H12.853C11.7237 47.4172 11.159 48.0299 11.159 49.2552V52.5547H10.1514V46.4872H11.159V47.4726ZM19.8179 49.2884C19.8179 49.4803 19.8068 49.6833 19.7847 49.8974H14.9351C14.972 50.4953 15.175 50.964 15.5441 51.3035C15.9205 51.6357 16.3745 51.8018 16.9059 51.8018C17.3414 51.8018 17.7031 51.7021 17.991 51.5028C18.2862 51.2962 18.4929 51.023 18.611 50.6835H19.6961C19.5337 51.2666 19.2089 51.7427 18.7218 52.1118C18.2346 52.4735 17.6293 52.6543 16.9059 52.6543C16.3302 52.6543 15.8135 52.5252 15.3558 52.2668C14.9056 52.0085 14.5513 51.6431 14.2929 51.1707C14.0346 50.6909 13.9054 50.1373 13.9054 49.5099C13.9054 48.8824 14.0309 48.3325 14.2818 47.8601C14.5328 47.3877 14.8834 47.026 15.3337 46.775C15.7913 46.5167 16.3154 46.3875 16.9059 46.3875C17.4817 46.3875 17.991 46.513 18.4339 46.764C18.8768 47.0149 19.2163 47.3619 19.4525 47.8048C19.6961 48.2403 19.8179 48.7348 19.8179 49.2884ZM18.7771 49.078C18.7771 48.6942 18.6922 48.3657 18.5225 48.0926C18.3527 47.8121 18.1202 47.6018 17.8249 47.4615C17.537 47.3139 17.2159 47.2401 16.8616 47.2401C16.3523 47.2401 15.9168 47.4025 15.5551 47.7272C15.2008 48.052 14.9978 48.5023 14.9462 49.078H18.7771ZM20.7714 49.4988C20.7714 48.8787 20.8969 48.3362 21.1478 47.8712C21.3988 47.3988 21.742 47.0334 22.1775 46.775C22.6204 46.5167 23.1113 46.3875 23.6501 46.3875C24.1816 46.3875 24.6429 46.5019 25.0342 46.7308C25.4254 46.9596 25.7169 47.2475 25.9088 47.5944V46.4872H26.9275V52.5547H25.9088V51.4253C25.7096 51.7796 25.4106 52.0749 25.012 52.3111C24.6208 52.5399 24.1631 52.6543 23.6391 52.6543C23.1002 52.6543 22.613 52.5215 22.1775 52.2557C21.742 51.99 21.3988 51.6172 21.1478 51.1375C20.8969 50.6577 20.7714 50.1114 20.7714 49.4988ZM25.9088 49.5099C25.9088 49.0522 25.8166 48.6536 25.632 48.3141C25.4475 47.9745 25.1965 47.7162 24.8791 47.539C24.5691 47.3545 24.2259 47.2622 23.8494 47.2622C23.473 47.2622 23.1297 47.3508 22.8197 47.5279C22.5097 47.7051 22.2624 47.9635 22.0779 48.303C21.8934 48.6425 21.8011 49.0411 21.8011 49.4988C21.8011 49.9638 21.8934 50.3698 22.0779 50.7167C22.2624 51.0563 22.5097 51.3183 22.8197 51.5028C23.1297 51.68 23.473 51.7686 23.8494 51.7686C24.2259 51.7686 24.5691 51.68 24.8791 51.5028C25.1965 51.3183 25.4475 51.0563 25.632 50.7167C25.8166 50.3698 25.9088 49.9675 25.9088 49.5099ZM29.8592 47.3176V50.8939C29.8592 51.1891 29.9219 51.3995 30.0474 51.525C30.1729 51.6431 30.3906 51.7021 30.7006 51.7021H31.4425V52.5547H30.5346C29.9736 52.5547 29.5528 52.4255 29.2723 52.1672C28.9919 51.9088 28.8516 51.4844 28.8516 50.8939V47.3176H28.0655V46.4872H28.8516V44.9592H29.8592V46.4872H31.4425V47.3176H29.8592ZM38.1993 49.2884C38.1993 49.4803 38.1883 49.6833 38.1661 49.8974H33.3165C33.3534 50.4953 33.5564 50.964 33.9255 51.3035C34.3019 51.6357 34.7559 51.8018 35.2874 51.8018C35.7229 51.8018 36.0845 51.7021 36.3724 51.5028C36.6677 51.2962 36.8744 51.023 36.9925 50.6835H38.0775C37.9151 51.2666 37.5904 51.7427 37.1032 52.1118C36.616 52.4735 36.0107 52.6543 35.2874 52.6543C34.7116 52.6543 34.1949 52.5252 33.7373 52.2668C33.287 52.0085 32.9327 51.6431 32.6743 51.1707C32.416 50.6909 32.2868 50.1373 32.2868 49.5099C32.2868 48.8824 32.4123 48.3325 32.6633 47.8601C32.9142 47.3877 33.2649 47.026 33.7151 46.775C34.1728 46.5167 34.6968 46.3875 35.2874 46.3875C35.8631 46.3875 36.3724 46.513 36.8153 46.764C37.2582 47.0149 37.5977 47.3619 37.8339 47.8048C38.0775 48.2403 38.1993 48.7348 38.1993 49.2884ZM37.1585 49.078C37.1585 48.6942 37.0737 48.3657 36.9039 48.0926C36.7341 47.8121 36.5016 47.6018 36.2063 47.4615C35.9185 47.3139 35.5974 47.2401 35.2431 47.2401C34.7338 47.2401 34.2982 47.4025 33.9366 47.7272C33.5823 48.052 33.3793 48.5023 33.3276 49.078H37.1585ZM42.1047 49.4988C42.1047 48.8787 42.2301 48.3362 42.4811 47.8712C42.7321 47.3988 43.0753 47.0334 43.5108 46.775C43.9537 46.5167 44.4446 46.3875 44.9834 46.3875C45.5149 46.3875 45.9762 46.5019 46.3674 46.7308C46.7586 46.9596 47.0502 47.2475 47.2421 47.5944V46.4872H48.2608V52.5547H47.2421V51.4253C47.0428 51.7796 46.7439 52.0749 46.3453 52.3111C45.9541 52.5399 45.4964 52.6543 44.9723 52.6543C44.4335 52.6543 43.9463 52.5215 43.5108 52.2557C43.0753 51.99 42.7321 51.6172 42.4811 51.1375C42.2301 50.6577 42.1047 50.1114 42.1047 49.4988ZM47.2421 49.5099C47.2421 49.0522 47.1499 48.6536 46.9653 48.3141C46.7808 47.9745 46.5298 47.7162 46.2124 47.539C45.9024 47.3545 45.5592 47.2622 45.1827 47.2622C44.8063 47.2622 44.463 47.3508 44.153 47.5279C43.843 47.7051 43.5957 47.9635 43.4112 48.303C43.2266 48.6425 43.1344 49.0411 43.1344 49.4988C43.1344 49.9638 43.2266 50.3698 43.4112 50.7167C43.5957 51.0563 43.843 51.3183 44.153 51.5028C44.463 51.68 44.8063 51.7686 45.1827 51.7686C45.5592 51.7686 45.9024 51.68 46.2124 51.5028C46.5298 51.3183 46.7808 51.0563 46.9653 50.7167C47.1499 50.3698 47.2421 49.9675 47.2421 49.5099ZM53.9228 47.6055C54.1221 47.2585 54.4174 46.9707 54.8086 46.7418C55.2072 46.5056 55.6685 46.3875 56.1926 46.3875C56.7315 46.3875 57.2186 46.5167 57.6541 46.775C58.097 47.0334 58.444 47.3988 58.6949 47.8712C58.9459 48.3362 59.0714 48.8787 59.0714 49.4988C59.0714 50.1114 58.9459 50.6577 58.6949 51.1375C58.444 51.6172 58.097 51.99 57.6541 52.2557C57.2186 52.5215 56.7315 52.6543 56.1926 52.6543C55.6759 52.6543 55.2183 52.5399 54.8197 52.3111C54.4285 52.0749 54.1295 51.7833 53.9228 51.4364V55.4334H52.9153V46.4872H53.9228V47.6055ZM58.0417 49.4988C58.0417 49.0411 57.9494 48.6425 57.7649 48.303C57.5803 47.9635 57.3294 47.7051 57.012 47.5279C56.7019 47.3508 56.3587 47.2622 55.9823 47.2622C55.6132 47.2622 55.27 47.3545 54.9525 47.539C54.6425 47.7162 54.3916 47.9782 54.1996 48.3251C54.0151 48.6647 53.9228 49.0596 53.9228 49.5099C53.9228 49.9675 54.0151 50.3698 54.1996 50.7167C54.3916 51.0563 54.6425 51.3183 54.9525 51.5028C55.27 51.68 55.6132 51.7686 55.9823 51.7686C56.3587 51.7686 56.7019 51.68 57.012 51.5028C57.3294 51.3183 57.5803 51.0563 57.7649 50.7167C57.9494 50.3698 58.0417 49.9638 58.0417 49.4988ZM61.4052 47.4726C61.5823 47.1257 61.8333 46.8562 62.1581 46.6643C62.4902 46.4724 62.8925 46.3764 63.3649 46.3764V47.4172H63.0992C61.9698 47.4172 61.4052 48.0299 61.4052 49.2552V52.5547H60.3976V46.4872H61.4052V47.4726ZM67.1743 52.6543C66.6059 52.6543 66.0892 52.5252 65.6242 52.2668C65.1665 52.0085 64.8048 51.6431 64.5391 51.1707C64.2807 50.6909 64.1516 50.1373 64.1516 49.5099C64.1516 48.8898 64.2844 48.3436 64.5502 47.8712C64.8233 47.3914 65.1923 47.026 65.6574 46.775C66.1224 46.5167 66.6428 46.3875 67.2185 46.3875C67.7943 46.3875 68.3147 46.5167 68.7797 46.775C69.2447 47.026 69.6101 47.3877 69.8759 47.8601C70.149 48.3325 70.2855 48.8824 70.2855 49.5099C70.2855 50.1373 70.1453 50.6909 69.8648 51.1707C69.5917 51.6431 69.2189 52.0085 68.7465 52.2668C68.2741 52.5252 67.75 52.6543 67.1743 52.6543ZM67.1743 51.7686C67.5359 51.7686 67.8755 51.6837 68.1929 51.5139C68.5103 51.3441 68.7649 51.0895 68.9569 50.7499C69.1562 50.4104 69.2558 49.997 69.2558 49.5099C69.2558 49.0227 69.1599 48.6093 68.9679 48.2698C68.776 47.9302 68.5251 47.6793 68.215 47.5169C67.905 47.3471 67.5692 47.2622 67.2075 47.2622C66.8384 47.2622 66.4989 47.3471 66.1888 47.5169C65.8862 47.6793 65.6426 47.9302 65.4581 48.2698C65.2735 48.6093 65.1813 49.0227 65.1813 49.5099C65.1813 50.0044 65.2699 50.4215 65.447 50.761C65.6315 51.1006 65.8751 51.3552 66.1778 51.525C66.4804 51.6874 66.8126 51.7686 67.1743 51.7686ZM72.1528 45.5018C71.9609 45.5018 71.7985 45.4353 71.6656 45.3025C71.5402 45.1696 71.4774 45.0072 71.4774 44.8153C71.4774 44.6234 71.5402 44.461 71.6656 44.3281C71.7985 44.1952 71.9609 44.1288 72.1528 44.1288C72.3447 44.1288 72.5034 44.1952 72.6289 44.3281C72.7618 44.461 72.8282 44.6234 72.8282 44.8153C72.8282 45.0072 72.7618 45.1696 72.6289 45.3025C72.5034 45.4353 72.3447 45.5018 72.1528 45.5018ZM72.6511 53.8723C72.6511 54.4111 72.5145 54.806 72.2414 55.057C71.9683 55.308 71.5697 55.4334 71.0456 55.4334H70.4588V54.5809H70.8795C71.16 54.5809 71.3556 54.5255 71.4663 54.4148C71.5844 54.3041 71.6435 54.1159 71.6435 53.8501V46.4872H72.6511V53.8723ZM79.8927 49.2884C79.8927 49.4803 79.8817 49.6833 79.8595 49.8974H75.0099C75.0468 50.4953 75.2498 50.964 75.6189 51.3035C75.9954 51.6357 76.4493 51.8018 76.9808 51.8018C77.4163 51.8018 77.778 51.7021 78.0658 51.5028C78.3611 51.2962 78.5678 51.023 78.6859 50.6835H79.7709C79.6086 51.2666 79.2838 51.7427 78.7966 52.1118C78.3094 52.4735 77.7041 52.6543 76.9808 52.6543C76.405 52.6543 75.8883 52.5252 75.4307 52.2668C74.9804 52.0085 74.6261 51.6431 74.3678 51.1707C74.1094 50.6909 73.9802 50.1373 73.9802 49.5099C73.9802 48.8824 74.1057 48.3325 74.3567 47.8601C74.6076 47.3877 74.9583 47.026 75.4085 46.775C75.8662 46.5167 76.3903 46.3875 76.9808 46.3875C77.5565 46.3875 78.0658 46.513 78.5087 46.764C78.9516 47.0149 79.2912 47.3619 79.5274 47.8048C79.7709 48.2403 79.8927 48.7348 79.8927 49.2884ZM78.852 49.078C78.852 48.6942 78.7671 48.3657 78.5973 48.0926C78.4275 47.8121 78.195 47.6018 77.8998 47.4615C77.6119 47.3139 77.2908 47.2401 76.9365 47.2401C76.4272 47.2401 75.9917 47.4025 75.63 47.7272C75.2757 48.052 75.0727 48.5023 75.021 49.078H78.852ZM80.8462 49.5099C80.8462 48.8824 80.9717 48.3362 81.2227 47.8712C81.4737 47.3988 81.8206 47.0334 82.2635 46.775C82.7137 46.5167 83.2267 46.3875 83.8025 46.3875C84.548 46.3875 85.1607 46.5684 85.6405 46.9301C86.1276 47.2917 86.4487 47.7937 86.6037 48.4359H85.5187C85.4153 48.0668 85.2123 47.7752 84.9097 47.5612C84.6144 47.3471 84.2454 47.2401 83.8025 47.2401C83.2267 47.2401 82.7617 47.4394 82.4074 47.838C82.0531 48.2292 81.8759 48.7865 81.8759 49.5099C81.8759 50.2406 82.0531 50.8053 82.4074 51.2039C82.7617 51.6025 83.2267 51.8018 83.8025 51.8018C84.2454 51.8018 84.6144 51.6984 84.9097 51.4918C85.205 51.2851 85.4079 50.9898 85.5187 50.606H86.6037C86.4413 51.226 86.1166 51.7243 85.6294 52.1007C85.1422 52.4698 84.5332 52.6543 83.8025 52.6543C83.2267 52.6543 82.7137 52.5252 82.2635 52.2668C81.8206 52.0085 81.4737 51.6431 81.2227 51.1707C80.9717 50.6983 80.8462 50.1447 80.8462 49.5099ZM89.1771 47.3176V50.8939C89.1771 51.1891 89.2399 51.3995 89.3654 51.525C89.4908 51.6431 89.7086 51.7021 90.0186 51.7021H90.7604V52.5547H89.8525C89.2915 52.5547 88.8708 52.4255 88.5903 52.1672C88.3098 51.9088 88.1696 51.4844 88.1696 50.8939V47.3176H87.3835V46.4872H88.1696V44.9592H89.1771V46.4872H90.7604V47.3176H89.1771Z" fill="black"/>
<path d="M41.796 15.0485V12.7632H46.0654V25.6777H43.5143V15.0485H41.796ZM49.8973 25.8017C49.4485 25.8017 49.0765 25.6659 48.7812 25.3943C48.4978 25.1108 48.356 24.7624 48.356 24.3491C48.356 23.9357 48.4978 23.5932 48.7812 23.3216C49.0765 23.0381 49.4485 22.8964 49.8973 22.8964C50.3343 22.8964 50.6945 23.0381 50.9779 23.3216C51.2614 23.5932 51.4031 23.9357 51.4031 24.3491C51.4031 24.7624 51.2614 25.1108 50.9779 25.3943C50.6945 25.6659 50.3343 25.8017 49.8973 25.8017Z" fill="black"/>
<circle cx="408.754" cy="19.5181" r="17.1618" stroke="url(#paint1_linear_168_3523)" stroke-width="1.10721"/>
<circle cx="227.17" cy="19.5181" r="17.1618" stroke="url(#paint2_linear_168_3523)" stroke-width="1.10721"/>
<path d="M396.551 53.1859C396.042 53.1859 395.584 53.0973 395.179 52.9202C394.78 52.7356 394.466 52.4847 394.237 52.1673C394.009 51.8425 393.89 51.4697 393.883 51.049H394.957C394.994 51.4107 395.142 51.717 395.4 51.968C395.666 52.2116 396.05 52.3334 396.551 52.3334C397.031 52.3334 397.408 52.2152 397.681 51.979C397.961 51.7355 398.102 51.4254 398.102 51.049C398.102 50.7537 398.02 50.5138 397.858 50.3293C397.696 50.1448 397.493 50.0045 397.249 49.9086C397.005 49.8126 396.677 49.7093 396.264 49.5985C395.754 49.4657 395.345 49.3328 395.035 49.1999C394.732 49.0671 394.47 48.8604 394.248 48.5799C394.034 48.292 393.927 47.9082 393.927 47.4284C393.927 47.0077 394.034 46.6349 394.248 46.3101C394.463 45.9853 394.761 45.7344 395.145 45.5572C395.536 45.3801 395.983 45.2915 396.485 45.2915C397.208 45.2915 397.799 45.4723 398.257 45.834C398.722 46.1957 398.984 46.6755 399.043 47.2734H397.935C397.899 46.9781 397.744 46.7198 397.47 46.4983C397.197 46.2695 396.836 46.1551 396.385 46.1551C395.965 46.1551 395.621 46.2658 395.356 46.4873C395.09 46.7013 394.957 47.004 394.957 47.3952C394.957 47.6757 395.035 47.9045 395.19 48.0817C395.352 48.2588 395.548 48.3954 395.776 48.4913C396.013 48.5799 396.341 48.6832 396.762 48.8013C397.271 48.9416 397.681 49.0818 397.991 49.2221C398.301 49.355 398.567 49.5653 398.788 49.8532C399.009 50.1337 399.12 50.5175 399.12 51.0047C399.12 51.3811 399.021 51.7355 398.821 52.0676C398.622 52.3998 398.327 52.6692 397.935 52.8759C397.544 53.0826 397.083 53.1859 396.551 53.1859ZM403.614 46.9302C404.072 46.9302 404.486 47.0298 404.855 47.2291C405.224 47.421 405.512 47.7126 405.718 48.1038C405.932 48.495 406.039 48.9711 406.039 49.5321V53.1084H405.043V49.676C405.043 49.0708 404.891 48.6094 404.589 48.292C404.286 47.9672 403.873 47.8049 403.349 47.8049C402.817 47.8049 402.393 47.9709 402.075 48.3031C401.765 48.6353 401.61 49.1187 401.61 49.7535V53.1084H400.603V44.915H401.61V47.9045C401.81 47.5945 402.083 47.3546 402.43 47.1848C402.784 47.015 403.179 46.9302 403.614 46.9302ZM407.309 50.0525C407.309 49.4325 407.434 48.8899 407.685 48.4249C407.936 47.9525 408.279 47.5871 408.715 47.3288C409.158 47.0704 409.649 46.9412 410.187 46.9412C410.719 46.9412 411.18 47.0556 411.571 47.2845C411.963 47.5133 412.254 47.8012 412.446 48.1481V47.0409H413.465V53.1084H412.446V51.979C412.247 52.3334 411.948 52.6286 411.549 52.8648C411.158 53.0936 410.7 53.208 410.176 53.208C409.638 53.208 409.15 53.0752 408.715 52.8095C408.279 52.5437 407.936 52.171 407.685 51.6912C407.434 51.2114 407.309 50.6652 407.309 50.0525ZM412.446 50.0636C412.446 49.6059 412.354 49.2073 412.169 48.8678C411.985 48.5282 411.734 48.2699 411.416 48.0927C411.106 47.9082 410.763 47.8159 410.387 47.8159C410.01 47.8159 409.667 47.9045 409.357 48.0817C409.047 48.2588 408.8 48.5172 408.615 48.8567C408.431 49.1963 408.338 49.5948 408.338 50.0525C408.338 50.5175 408.431 50.9235 408.615 51.2704C408.8 51.61 409.047 51.872 409.357 52.0565C409.667 52.2337 410.01 52.3223 410.387 52.3223C410.763 52.3223 411.106 52.2337 411.416 52.0565C411.734 51.872 411.985 51.61 412.169 51.2704C412.354 50.9235 412.446 50.5212 412.446 50.0636ZM416.175 48.0263C416.352 47.6794 416.603 47.41 416.928 47.218C417.26 47.0261 417.662 46.9302 418.135 46.9302V47.9709H417.869C416.74 47.9709 416.175 48.5836 416.175 49.8089V53.1084H415.167V47.0409H416.175V48.0263ZM424.834 49.8421C424.834 50.034 424.823 50.237 424.801 50.4511H419.951C419.988 51.049 420.191 51.5177 420.56 51.8572C420.937 52.1894 421.391 52.3555 421.922 52.3555C422.357 52.3555 422.719 52.2558 423.007 52.0565C423.302 51.8499 423.509 51.5768 423.627 51.2372H424.712C424.55 51.8203 424.225 52.2964 423.738 52.6655C423.251 53.0272 422.645 53.208 421.922 53.208C421.346 53.208 420.83 53.0789 420.372 52.8205C419.922 52.5622 419.567 52.1968 419.309 51.7244C419.051 51.2446 418.921 50.691 418.921 50.0636C418.921 49.4361 419.047 48.8862 419.298 48.4138C419.549 47.9414 419.899 47.5797 420.35 47.3288C420.807 47.0704 421.331 46.9412 421.922 46.9412C422.498 46.9412 423.007 47.0667 423.45 47.3177C423.893 47.5687 424.232 47.9156 424.469 48.3585C424.712 48.794 424.834 49.2885 424.834 49.8421ZM423.793 49.6318C423.793 49.2479 423.708 48.9194 423.538 48.6463C423.369 48.3658 423.136 48.1555 422.841 48.0152C422.553 47.8676 422.232 47.7938 421.878 47.7938C421.368 47.7938 420.933 47.9562 420.571 48.281C420.217 48.6057 420.014 49.056 419.962 49.6318H423.793Z" fill="black"/>
<path d="M208.825 47.6498C208.825 48.292 208.603 48.8272 208.16 49.2553C207.725 49.676 207.057 49.8864 206.156 49.8864H204.673V53.1084H203.665V45.3911H206.156C207.027 45.3911 207.688 45.6015 208.138 46.0222C208.596 46.443 208.825 46.9855 208.825 47.6498ZM206.156 49.056C206.717 49.056 207.131 48.9342 207.396 48.6906C207.662 48.447 207.795 48.1001 207.795 47.6498C207.795 46.6976 207.249 46.2215 206.156 46.2215H204.673V49.056H206.156ZM209.7 50.0525C209.7 49.4325 209.826 48.8899 210.077 48.4249C210.328 47.9525 210.671 47.5871 211.107 47.3288C211.55 47.0704 212.04 46.9412 212.579 46.9412C213.111 46.9412 213.572 47.0556 213.963 47.2845C214.354 47.5133 214.646 47.8012 214.838 48.1481V47.0409H215.857V53.1084H214.838V51.979C214.639 52.3334 214.34 52.6286 213.941 52.8648C213.55 53.0936 213.092 53.208 212.568 53.208C212.029 53.208 211.542 53.0752 211.107 52.8095C210.671 52.5437 210.328 52.171 210.077 51.6912C209.826 51.2114 209.7 50.6652 209.7 50.0525ZM214.838 50.0636C214.838 49.6059 214.746 49.2073 214.561 48.8678C214.377 48.5282 214.126 48.2699 213.808 48.0927C213.498 47.9082 213.155 47.8159 212.779 47.8159C212.402 47.8159 212.059 47.9045 211.749 48.0817C211.439 48.2588 211.192 48.5172 211.007 48.8567C210.822 49.1963 210.73 49.5948 210.73 50.0525C210.73 50.5175 210.822 50.9235 211.007 51.2704C211.192 51.61 211.439 51.872 211.749 52.0565C212.059 52.2337 212.402 52.3223 212.779 52.3223C213.155 52.3223 213.498 52.2337 213.808 52.0565C214.126 51.872 214.377 51.61 214.561 51.2704C214.746 50.9235 214.838 50.5212 214.838 50.0636ZM222.785 47.0409L219.131 55.965H218.091L219.287 53.042L216.84 47.0409H217.958L219.862 51.9569L221.745 47.0409H222.785ZM231.095 46.9302C231.567 46.9302 231.988 47.0298 232.357 47.2291C232.726 47.421 233.018 47.7126 233.232 48.1038C233.446 48.495 233.553 48.9711 233.553 49.5321V53.1084H232.556V49.676C232.556 49.0708 232.405 48.6094 232.102 48.292C231.807 47.9672 231.405 47.8049 230.895 47.8049C230.371 47.8049 229.954 47.9746 229.644 48.3142C229.334 48.6463 229.179 49.1298 229.179 49.7646V53.1084H228.183V49.676C228.183 49.0708 228.031 48.6094 227.729 48.292C227.433 47.9672 227.031 47.8049 226.522 47.8049C225.998 47.8049 225.581 47.9746 225.271 48.3142C224.961 48.6463 224.806 49.1298 224.806 49.7646V53.1084H223.798V47.0409H224.806V47.9156C225.005 47.5982 225.271 47.3546 225.603 47.1848C225.942 47.015 226.315 46.9302 226.721 46.9302C227.23 46.9302 227.681 47.0446 228.072 47.2734C228.463 47.5022 228.755 47.8381 228.947 48.281C229.116 47.8528 229.397 47.5207 229.788 47.2845C230.179 47.0483 230.615 46.9302 231.095 46.9302ZM240.741 49.8421C240.741 50.034 240.73 50.237 240.708 50.4511H235.859C235.896 51.049 236.099 51.5177 236.468 51.8572C236.844 52.1894 237.298 52.3555 237.83 52.3555C238.265 52.3555 238.627 52.2558 238.915 52.0565C239.21 51.8499 239.417 51.5768 239.535 51.2372H240.62C240.457 51.8203 240.133 52.2964 239.645 52.6655C239.158 53.0272 238.553 53.208 237.83 53.208C237.254 53.208 236.737 53.0789 236.279 52.8205C235.829 52.5622 235.475 52.1968 235.217 51.7244C234.958 51.2446 234.829 50.691 234.829 50.0636C234.829 49.4361 234.954 48.8862 235.205 48.4138C235.456 47.9414 235.807 47.5797 236.257 47.3288C236.715 47.0704 237.239 46.9412 237.83 46.9412C238.405 46.9412 238.915 47.0667 239.357 47.3177C239.8 47.5687 240.14 47.9156 240.376 48.3585C240.62 48.794 240.741 49.2885 240.741 49.8421ZM239.701 49.6318C239.701 49.2479 239.616 48.9194 239.446 48.6463C239.276 48.3658 239.044 48.1555 238.749 48.0152C238.461 47.8676 238.14 47.7938 237.785 47.7938C237.276 47.7938 236.84 47.9562 236.479 48.281C236.124 48.6057 235.921 49.056 235.87 49.6318H239.701ZM245.028 46.9302C245.766 46.9302 246.364 47.1553 246.821 47.6056C247.279 48.0484 247.508 48.6906 247.508 49.5321V53.1084H246.511V49.676C246.511 49.0708 246.36 48.6094 246.057 48.292C245.755 47.9672 245.341 47.8049 244.817 47.8049C244.286 47.8049 243.861 47.9709 243.544 48.3031C243.234 48.6353 243.079 49.1187 243.079 49.7535V53.1084H242.071V47.0409H243.079V47.9045C243.278 47.5945 243.548 47.3546 243.887 47.1848C244.234 47.015 244.614 46.9302 245.028 46.9302ZM250.383 47.8713V51.4476C250.383 51.7428 250.445 51.9532 250.571 52.0787C250.696 52.1968 250.914 52.2558 251.224 52.2558H251.966V53.1084H251.058C250.497 53.1084 250.076 52.9792 249.796 52.7209C249.515 52.4625 249.375 52.0381 249.375 51.4476V47.8713H248.589V47.0409H249.375V45.5129H250.383V47.0409H251.966V47.8713H250.383Z" fill="black"/>
<path d="M403.638 16.7183C403.697 15.5373 404.111 14.6279 404.878 13.9901C405.658 13.3406 406.68 13.0158 407.943 13.0158C408.805 13.0158 409.544 13.1693 410.158 13.4764C410.772 13.7716 411.232 14.1791 411.539 14.6987C411.858 15.2066 412.018 15.7853 412.018 16.4348C412.018 17.1789 411.823 17.8107 411.433 18.3304C411.055 18.8382 410.601 19.1807 410.069 19.3579V19.4287C410.754 19.6413 411.286 20.0193 411.663 20.5625C412.053 21.1058 412.248 21.8026 412.248 22.6529C412.248 23.3616 412.083 23.9934 411.752 24.5485C411.433 25.1036 410.955 25.5405 410.317 25.8594C409.691 26.1665 408.935 26.32 408.05 26.32C406.715 26.32 405.628 25.9834 404.79 25.3102C403.951 24.6371 403.508 23.645 403.461 22.3341H405.871C405.894 22.9128 406.089 23.3793 406.455 23.7336C406.833 24.0761 407.347 24.2473 407.996 24.2473C408.599 24.2473 409.059 24.082 409.378 23.7513C409.709 23.4088 409.874 22.9718 409.874 22.4404C409.874 21.7317 409.65 21.2239 409.201 20.9168C408.752 20.6098 408.055 20.4562 407.111 20.4562H406.597V18.419H407.111C408.788 18.419 409.626 17.858 409.626 16.736C409.626 16.2282 409.473 15.8325 409.166 15.5491C408.87 15.2656 408.439 15.1239 407.872 15.1239C407.317 15.1239 406.886 15.2774 406.579 15.5845C406.284 15.8798 406.113 16.2577 406.065 16.7183H403.638ZM415.59 26.3555C415.141 26.3555 414.769 26.2196 414.474 25.948C414.19 25.6646 414.049 25.3162 414.049 24.9028C414.049 24.4894 414.19 24.1469 414.474 23.8753C414.769 23.5919 415.141 23.4501 415.59 23.4501C416.027 23.4501 416.387 23.5919 416.67 23.8753C416.954 24.1469 417.096 24.4894 417.096 24.9028C417.096 25.3162 416.954 25.6646 416.67 25.948C416.387 26.2196 416.027 26.3555 415.59 26.3555Z" fill="black"/>
<path d="M223.353 23.4324C224.487 22.4876 225.39 21.7022 226.064 21.0763C226.737 20.4385 227.298 19.7771 227.747 19.0921C228.195 18.4072 228.42 17.734 228.42 17.0726C228.42 16.4703 228.278 15.9979 227.995 15.6554C227.711 15.3129 227.274 15.1416 226.684 15.1416C226.093 15.1416 225.638 15.3424 225.32 15.7439C225.001 16.1337 224.835 16.671 224.824 17.356H222.414C222.461 15.9388 222.881 14.8641 223.672 14.1318C224.475 13.3996 225.491 13.0335 226.719 13.0335C228.065 13.0335 229.099 13.3937 229.819 14.1141C230.54 14.8227 230.9 15.7617 230.9 16.9309C230.9 17.8521 230.652 18.7319 230.156 19.5705C229.66 20.409 229.093 21.1412 228.455 21.7672C227.817 22.3813 226.985 23.1253 225.957 23.9993H231.183V26.0543H222.432V24.2119L223.353 23.4324ZM234.128 26.3555C233.679 26.3555 233.307 26.2196 233.012 25.948C232.728 25.6646 232.587 25.3162 232.587 24.9028C232.587 24.4894 232.728 24.1469 233.012 23.8753C233.307 23.5919 233.679 23.4501 234.128 23.4501C234.565 23.4501 234.925 23.5919 235.209 23.8753C235.492 24.1469 235.634 24.4894 235.634 24.9028C235.634 25.3162 235.492 25.6646 235.209 25.948C234.925 26.2196 234.565 26.3555 234.128 26.3555Z" fill="black"/>
<defs>
<linearGradient id="paint0_linear_168_3523" x1="25.9345" y1="0.695301" x2="69.0825" y2="2.31167" gradientUnits="userSpaceOnUse">
<stop stop-color="#9094FF"/>
<stop offset="0.664583" stop-color="#55F4C5"/>
<stop offset="1" stop-color="#A659F3"/>
</linearGradient>
<linearGradient id="paint1_linear_168_3523" x1="389.13" y1="1.80272" x2="431.615" y2="3.39422" gradientUnits="userSpaceOnUse">
<stop stop-color="#9094FF"/>
<stop offset="0.664583" stop-color="#55F4C5"/>
<stop offset="1" stop-color="#A659F3"/>
</linearGradient>
<linearGradient id="paint2_linear_168_3523" x1="207.546" y1="1.80272" x2="250.031" y2="3.39422" gradientUnits="userSpaceOnUse">
<stop stop-color="#9094FF"/>
<stop offset="0.664583" stop-color="#55F4C5"/>
<stop offset="1" stop-color="#A659F3"/>
</linearGradient>
</defs>
</svg>
